<?xml version="1.0" standalone="no"?>
<!DOCTYPE svg PUBLIC "-//W3C//DTD SVG 20010904//EN"
 "http://www.w3.org/TR/2001/REC-SVG-20010904/DTD/svg10.dtd">
<svg version="1.0" xmlns="http://www.w3.org/2000/svg"
 width="900.000000pt" height="855.000000pt" viewBox="0 0 900.000000 855.000000"
 preserveAspectRatio="xMidYMid meet">
<metadata>
Created by potrace 1.10, written by Peter Selinger 2001-2011
</metadata>
<g transform="translate(0.000000,855.000000) scale(0.100000,-0.100000)"
fill="#000000" stroke="none">
<path d="M1215 8152 c-24 -17 -197 -292 -274 -434 -71 -133 -201 -400 -201
-414 0 -3 -6 -20 -14 -37 -7 -18 -23 -57 -35 -87 -12 -30 -26 -64 -31 -75 -5
-11 -23 -65 -40 -120 -18 -55 -37 -111 -42 -125 -34 -84 -117 -436 -138 -580
-5 -36 -12 -76 -16 -90 -15 -60 -35 -262 -45 -476 -26 -512 33 -1038 167
-1488 7 -26 14 -55 14 -62 0 -8 4 -22 9 -32 5 -9 26 -69 46 -132 20 -63 40
-124 45 -135 5 -11 19 -45 30 -75 11 -30 25 -64 30 -75 5 -11 18 -42 30 -70
150 -354 352 -693 632 -1060 4 -5 63 -75 132 -155 180 -211 429 -451 621 -600
39 -30 72 -57 75 -61 3 -3 30 -23 60 -44 30 -21 57 -41 60 -44 13 -16 170
-118 300 -195 80 -48 152 -90 160 -95 59 -36 362 -181 460 -220 30 -12 64 -26
75 -30 11 -5 40 -16 65 -26 25 -9 56 -21 68 -26 50 -20 142 -49 153 -49 6 0
25 -6 42 -13 121 -52 478 -131 777 -173 321 -45 851 -45 1200 0 152 20 248 35
285 47 17 5 52 12 78 15 52 7 49 3 121 179 40 97 51 123 71 170 7 17 29 71 49
120 39 94 50 121 71 170 7 17 29 71 49 120 39 95 50 121 71 170 7 17 36 86 65
155 56 138 66 161 85 205 7 17 29 71 50 120 20 50 43 106 51 125 9 19 20 46
26 60 5 14 16 39 23 55 7 17 23 55 34 85 12 30 26 64 31 75 5 11 18 43 30 70
12 28 25 59 30 70 36 85 52 135 47 149 -4 10 -24 24 -44 32 -21 8 -54 22 -73
30 -19 9 -46 20 -60 26 -14 5 -38 16 -55 23 -16 7 -70 29 -120 49 -49 21 -101
42 -115 48 -14 5 -40 16 -58 24 -18 7 -47 20 -65 27 -17 8 -52 23 -77 33 -41
16 -90 36 -160 66 -14 5 -40 16 -58 24 -18 7 -47 20 -65 27 -17 8 -52 23 -77
33 -54 21 -128 52 -155 64 -11 5 -60 25 -110 45 -49 20 -99 40 -110 45 -18 8
-58 25 -145 62 -14 5 -38 16 -55 23 -16 7 -70 29 -120 49 -94 39 -121 50 -170
71 -16 7 -70 29 -120 49 -49 21 -101 42 -115 48 -14 5 -38 16 -55 22 -16 7
-46 20 -65 28 -19 9 -60 26 -90 37 -60 24 -89 36 -135 56 -16 8 -48 21 -70 30
-22 9 -53 22 -70 30 -16 7 -55 23 -85 34 -30 12 -64 26 -75 31 -65 31 -73 31
-95 1 -11 -16 -20 -33 -20 -38 0 -5 -16 -47 -36 -94 -19 -46 -42 -100 -50
-119 -9 -19 -20 -46 -26 -60 -5 -14 -16 -38 -23 -55 -7 -16 -29 -70 -50 -120
-20 -49 -43 -106 -51 -125 -32 -74 -99 -238 -107 -262 -10 -30 -42 -21 -146
41 -145 86 -251 169 -382 300 -224 225 -392 484 -524 811 -10 25 -24 59 -31
77 -8 17 -14 40 -14 50 0 10 -4 23 -9 28 -5 6 -14 33 -20 60 -10 50 -24 114
-41 192 -6 24 -13 74 -16 113 -6 56 -4 70 7 70 8 0 228 0 489 0 261 0 481 4
487 8 10 6 13 331 13 1546 0 846 -2 1542 -5 1547 -7 11 -2245 12 -2260 1z
m1746 -1519 c1 -944 1 -1044 -5 -1050 -3 -3 -497 -11 -767 -12 -112 -1 -160
-5 -173 -14 -32 -24 -50 -251 -37 -477 14 -241 21 -293 63 -470 6 -25 14 -61
19 -80 48 -207 191 -547 299 -715 11 -16 23 -37 27 -45 24 -50 160 -235 247
-335 92 -104 148 -160 281 -273 206 -177 425 -312 645 -397 25 -9 56 -21 68
-26 108 -42 260 -82 297 -77 33 3 36 9 85 133 37 94 57 140 76 178 8 16 14 33
14 38 0 5 14 39 31 76 51 113 56 125 94 218 53 128 93 213 104 220 5 3 27 -2
48 -11 85 -36 101 -43 173 -72 84 -34 429 -176 475 -197 17 -7 66 -27 110 -45
44 -18 95 -39 113 -46 17 -8 48 -21 67 -29 19 -8 50 -21 68 -29 17 -7 84 -35
147 -61 63 -26 130 -53 148 -61 17 -8 48 -21 67 -29 44 -18 96 -40 138 -59 17
-7 99 -42 180 -77 82 -34 151 -68 154 -76 5 -12 -2 -34 -33 -108 -7 -16 -24
-61 -39 -100 -15 -38 -43 -108 -62 -155 -19 -47 -49 -119 -65 -160 -17 -41
-36 -88 -43 -105 -44 -100 -75 -179 -75 -186 0 -5 -13 -37 -29 -71 -15 -35
-50 -115 -76 -178 -26 -63 -60 -142 -75 -175 -15 -33 -30 -70 -34 -81 -8 -26
-43 -41 -116 -48 -30 -3 -80 -9 -110 -13 -71 -8 -777 -9 -855 0 -175 19 -242
28 -263 37 -13 6 -38 10 -56 10 -19 0 -56 6 -82 14 -27 8 -85 22 -129 31 -85
19 -207 51 -240 64 -11 5 -67 23 -125 42 -99 31 -133 43 -205 74 -16 7 -55 23
-85 35 -104 42 -237 106 -330 157 -30 17 -73 41 -95 53 -22 12 -53 30 -70 41
-16 10 -37 22 -45 26 -28 13 -329 219 -340 232 -3 4 -25 22 -50 41 -25 19 -61
48 -81 65 -19 16 -62 52 -95 80 -73 61 -322 309 -390 390 -112 131 -162 193
-215 265 -87 117 -216 312 -248 375 -6 11 -26 47 -46 80 -51 88 -195 383 -195
399 0 8 -4 17 -10 21 -5 3 -14 20 -19 38 -5 18 -19 57 -31 87 -24 64 -83 240
-107 320 -9 30 -19 66 -24 80 -7 22 -22 86 -59 245 -5 22 -12 65 -15 95 -4 30
-11 66 -16 80 -8 23 -21 126 -37 290 -12 122 -8 741 5 800 7 30 17 91 23 135
16 124 27 188 39 246 7 30 19 86 28 124 16 76 37 157 58 220 7 22 20 67 30
100 59 200 210 548 330 760 19 33 38 67 42 75 4 8 15 25 23 38 l15 22 732 0
733 0 1 -1007z"/>
<path d="M4306 8151 c-8 -12 -8 -2870 -1 -2882 4 -5 214 -9 510 -9 l505 0 4
-22 c18 -84 28 -147 36 -229 9 -101 24 -229 41 -349 10 -72 14 -109 39 -360
14 -135 23 -165 48 -155 14 5 286 168 380 227 15 9 37 23 49 30 31 18 308 189
341 210 15 10 36 22 47 28 11 6 32 18 46 28 15 9 112 68 215 131 104 63 207
127 228 143 21 15 45 28 52 28 7 0 14 4 16 8 2 5 70 49 151 98 81 49 160 97
175 106 15 10 34 21 42 25 8 4 28 16 43 27 28 21 41 21 675 26 l647 5 0 1445
0 1445 -2142 3 c-1302 1 -2144 -2 -2147 -7z m3763 -525 c8 -10 10 -260 9 -927
l-3 -914 -453 -3 -453 -2 -107 -66 c-59 -35 -116 -70 -127 -77 -11 -7 -39 -24
-63 -39 -24 -16 -45 -28 -47 -28 -2 0 -23 -12 -47 -27 -24 -16 -52 -33 -63
-40 -38 -23 -240 -147 -305 -187 -36 -23 -74 -46 -85 -53 -11 -6 -109 -66
-218 -132 -109 -67 -202 -121 -208 -121 -14 0 -29 46 -29 90 0 22 -4 61 -10
87 -5 26 -14 91 -19 143 -37 357 -46 413 -69 432 -11 10 -127 14 -483 16
l-469 4 0 929 0 929 1619 0 c1352 0 1620 -2 1630 -14z"/>
</g>
</svg>
