<!-- Generated by IcoMoon.io -->
<svg version="1.1" xmlns="http://www.w3.org/2000/svg" width="1010" height="1024" viewBox="0 0 1010 1024">
<path fill="currentColor" d="M532.48 204.8v245.76c0 15.155 12.288 27.443 27.443 27.443h245.76c0-75.366-16.794-157.286-66.355-206.848s-131.482-66.355-206.848-66.355z"></path>
<path fill="currentColor" d="M800.358 1019.085c-114.688 18.842-253.542-15.155-386.662-94.618l44.646-99.533 101.171-46.694 158.515 90.522 82.33 150.323z"></path>
<path fill="currentColor" d="M4.915 223.642c-18.842 114.688 14.746 253.542 94.618 386.662l102.4-47.923 43.827-98.304-86.016-140.493-154.829-99.942z"></path>
<path fill="currentColor" d="M573.44 0c-22.528 0-40.96 18.432-40.96 40.96v163.84c150.733 0 273.203 122.47 273.203 273.203h163.84c22.528 0 40.96-18.432 40.96-40.96 0-241.254-195.789-437.043-437.043-437.043z"></path>
<path fill="currentColor" d="M971.571 924.877c21.709-20.89 22.528-54.886 2.048-76.595l-197.427-210.534c-21.709-20.48-55.296-20.070-76.186 0.819l-140.083 139.674 240.435 240.435c65.126-9.421 113.869-37.274 158.106-81.51l13.107-12.288z"></path>
<path fill="currentColor" d="M99.942 610.304c36.045 59.802 83.968 120.013 138.445 174.49s115.917 103.219 175.718 139.264l146.227-145.818-314.573-314.163z"></path>
<path fill="currentColor" d="M351.027 362.086v0l22.528-21.709c26.624-26.624 26.624-70.451 0-97.075l-185.549-185.549c-26.624-26.624-70.451-26.624-97.075 0l-6.554 4.506c-43.008 43.008-68.813 98.714-79.462 161.382l240.845 240.435 105.267-101.99z"></path>
</svg>
