<svg xmlns="http://www.w3.org/2000/svg" width="327" height="327" viewBox="0 0 327 327" version="1.1"><path d="M 0.136 80.750 C 0.217 128.970, 0.607 158.881, 1.104 155 C 1.562 151.425, 2.362 144.675, 2.881 140 C 3.942 130.455, 5.605 122.360, 7.040 119.764 C 7.568 118.809, 8.003 117.234, 8.006 116.264 C 8.010 115.294, 8.624 113.328, 9.372 111.895 C 10.119 110.462, 11.286 106.975, 11.965 104.145 C 12.644 101.315, 13.569 99, 14.020 99 C 14.472 99, 15.138 97.650, 15.500 96 C 15.862 94.350, 16.524 93, 16.971 93 C 17.418 93, 18.065 91.878, 18.409 90.507 C 19.364 86.703, 27.587 73.487, 34.903 64 C 42.416 54.257, 51.660 44.801, 61.013 37.291 C 64.581 34.427, 68.202 31.475, 69.059 30.732 C 74 26.453, 97.630 13.821, 103.259 12.450 C 104.777 12.081, 106.266 11.378, 106.568 10.889 C 106.871 10.400, 107.879 9.997, 108.809 9.994 C 109.739 9.990, 111.701 9.361, 113.168 8.596 C 114.636 7.830, 117.786 6.882, 120.168 6.489 C 122.551 6.096, 124.988 5.381, 125.585 4.901 C 126.182 4.422, 132.257 3.529, 139.085 2.918 C 145.913 2.307, 153.075 1.447, 155 1.007 C 156.925 0.567, 122.838 0.160, 79.250 0.103 L 0 0 0.136 80.750 M 172.500 1.040 C 175.250 1.481, 182.402 2.326, 188.393 2.917 C 194.385 3.509, 199.785 4.402, 200.393 4.903 C 201.002 5.403, 203.643 6.132, 206.262 6.522 C 208.882 6.912, 211.271 7.629, 211.571 8.115 C 211.872 8.602, 212.879 9.003, 213.809 9.006 C 214.739 9.010, 216.789 9.685, 218.364 10.506 C 219.940 11.328, 221.699 12, 222.274 12 C 224.442 12, 245.984 23.075, 252.603 27.593 C 268.925 38.732, 282.196 51.220, 292.357 65 C 295.399 69.125, 298.363 73.044, 298.944 73.708 C 299.525 74.372, 300 75.352, 300 75.886 C 300 76.420, 300.563 77.460, 301.250 78.196 C 301.938 78.933, 303.625 81.778, 305 84.518 C 306.375 87.258, 307.802 89.730, 308.171 90.010 C 308.540 90.291, 309.151 91.753, 309.529 93.260 C 309.907 94.767, 310.560 96, 310.978 96 C 311.397 96, 312.336 98.137, 313.065 100.750 C 313.794 103.362, 314.974 106.625, 315.689 108 C 316.403 109.375, 316.990 111.261, 316.994 112.191 C 316.997 113.121, 317.398 114.128, 317.885 114.429 C 318.371 114.729, 319.088 117.118, 319.478 119.738 C 319.868 122.357, 320.548 124.950, 320.989 125.500 C 323.594 128.750, 326.173 160.219, 325.005 174.500 C 323.927 187.686, 322.086 200.122, 321.008 201.500 C 320.578 202.050, 319.904 204.449, 319.511 206.832 C 319.118 209.214, 318.170 212.364, 317.404 213.832 C 316.639 215.299, 316.010 217.261, 316.006 218.191 C 316.003 219.121, 315.550 220.160, 315 220.500 C 314.450 220.840, 314 221.863, 314 222.774 C 314 226.071, 298.921 254.569, 295.624 257.500 C 295.006 258.050, 293.150 260.514, 291.500 262.976 C 287.427 269.052, 267.665 288.459, 259.907 294 C 247.616 302.780, 225.391 314.986, 221.661 315.006 C 221.022 315.010, 219.293 315.642, 217.817 316.412 C 216.342 317.182, 213.642 318.105, 211.817 318.464 C 209.993 318.823, 207.600 319.514, 206.500 320 C 201.433 322.238, 186.751 324.792, 177.500 325.045 C 173.650 325.151, 169.150 325.580, 167.500 326 C 165.850 326.420, 201.036 326.817, 245.691 326.882 C 303.680 326.966, 327.076 326.686, 327.560 325.902 C 327.934 325.298, 327.903 251.723, 327.492 162.402 L 326.745 0 247.122 0.119 C 203.161 0.184, 169.739 0.597, 172.500 1.040 M 83.031 52.279 C 78.151 59.073, 67.358 73.723, 44.641 104.389 C 36.537 115.328, 30.046 125.003, 30.216 125.889 C 30.486 127.293, 33.017 127.535, 49.885 127.772 L 69.244 128.044 68.787 133.557 C 68.252 140.008, 67.416 141.085, 62.301 141.916 C 59.497 142.372, 58.500 143.018, 58.500 144.378 C 58.500 146.110, 59.740 146.222, 78.839 146.222 C 92.421 146.222, 99.547 145.853, 100.289 145.111 C 101.711 143.689, 100.305 142.278, 97.025 141.835 C 93.918 141.415, 92.034 137.810, 92.015 132.250 L 92 128 98.539 128 L 105.078 128 104.789 119.250 L 104.500 110.500 98.250 110.202 L 92 109.905 92 77.952 L 92 46 89.750 46.029 C 88.153 46.050, 86.203 47.863, 83.031 52.279 M 67.702 80.250 C 67.420 80.938, 62.651 87.575, 57.104 95 C 51.557 102.425, 47.014 108.838, 47.009 109.250 C 47.004 109.662, 51.950 110, 58 110 L 69 110 69 94.500 C 69 85.975, 68.823 79, 68.607 79 C 68.391 79, 67.984 79.563, 67.702 80.250 M 144.327 87.553 C 142.581 88.318, 140.867 89.406, 140.518 89.972 C 139.472 91.663, 138 91.137, 138 89.073 C 138 87.241, 137.342 87.171, 124.750 87.654 C 117.463 87.934, 110.909 88.348, 110.187 88.574 C 108.445 89.120, 109.637 90.911, 112.453 91.982 C 114.057 92.592, 114.896 93.952, 115.345 96.671 C 116.122 101.373, 116.184 136.712, 115.421 139.556 C 115.117 140.686, 113.454 142.145, 111.726 142.797 C 109.311 143.709, 108.857 144.257, 109.764 145.164 C 110.559 145.959, 115.848 146.370, 125.961 146.422 C 141.697 146.504, 143.771 145.913, 139.933 142.439 C 138.137 140.814, 138 139.171, 138 119.297 L 138 97.905 140.646 95.452 C 147.084 89.486, 148.193 93.277, 147.807 119.928 C 147.526 139.337, 147.339 141.282, 145.625 142.534 C 144.593 143.288, 143.973 144.488, 144.247 145.202 C 144.627 146.193, 148.260 146.471, 159.622 146.378 C 172.507 146.273, 174.543 146.038, 174.823 144.628 C 175.001 143.733, 174.696 143, 174.145 143 C 173.594 143, 172.436 142.293, 171.571 141.429 C 170.248 140.105, 170 136.716, 170 119.976 C 170 98.740, 170.501 96.004, 174.740 94.073 C 176.806 93.131, 177.596 93.229, 179.130 94.617 C 180.850 96.175, 181 98.096, 181 118.647 C 181 139.900, 180.903 141.044, 179 142.232 C 177.053 143.448, 176.244 145.931, 177.750 146.068 C 178.162 146.105, 185.249 146.190, 193.498 146.256 C 206.380 146.358, 208.539 146.154, 208.798 144.809 C 208.984 143.846, 208.163 143.007, 206.670 142.632 C 205.296 142.287, 203.975 141.038, 203.633 139.761 C 203.300 138.517, 203.021 128.667, 203.014 117.872 C 202.999 97.350, 202.315 93.261, 198.333 89.923 C 192.753 85.245, 183.650 84.688, 175.535 88.527 C 172.597 89.917, 169.919 91.770, 169.583 92.644 C 169.079 93.959, 168.612 93.776, 166.894 91.592 C 162.771 86.351, 151.625 84.356, 144.327 87.553 M 204 89.385 C 204 90.147, 205.139 91.516, 206.531 92.429 C 209.078 94.097, 209.981 95.852, 221.493 121.500 C 228.515 137.146, 232.481 145.914, 234.726 150.758 C 236.666 154.944, 235.041 159.394, 230.580 162.115 C 226.289 164.731, 225.217 164.463, 228.023 161.475 C 231.343 157.942, 231.121 152.361, 227.537 149.278 C 225.529 147.551, 223.654 147, 219.789 147 C 205.483 147, 203.360 162.273, 217.139 166.062 C 222.662 167.581, 228.080 167.411, 232.458 165.582 C 237.615 163.427, 238.015 162.497, 253.066 117.645 C 259.638 98.060, 260.783 95.411, 263.898 92.593 C 268.181 88.717, 266.792 88, 255 88 C 245.810 88, 244 88.251, 244 89.525 C 244 90.363, 245.080 91.460, 246.399 91.962 C 252.649 94.338, 253.504 101.546, 249.190 115.469 L 246.410 124.439 240.246 109.842 C 236.856 101.815, 233.951 94.653, 233.791 93.929 C 233.620 93.153, 234.728 92.380, 236.488 92.048 C 238.237 91.718, 239.615 90.762, 239.811 89.742 C 240.120 88.138, 238.717 88, 222.073 88 C 207.342 88, 204 88.256, 204 89.385 M 260.432 128.510 C 258.744 129.251, 256.893 130.452, 256.319 131.179 C 254.436 133.563, 253.891 138.138, 255.065 141.697 C 256.942 147.384, 265.070 149.669, 272.452 146.585 C 276.418 144.927, 278 142.420, 278 137.788 C 278 133.525, 275.640 130.165, 271.401 128.394 C 267.351 126.702, 264.482 126.732, 260.432 128.510 M 86.500 155.625 C 75.230 158.504, 69.127 165.783, 67.580 178.190 C 66.930 183.404, 66.648 183.905, 64.194 184.190 C 62.599 184.375, 61.383 185.207, 61.185 186.250 C 60.927 187.609, 61.540 188, 63.927 188 L 67 188 67 212.902 L 67 237.804 63.910 238.882 C 62.147 239.496, 61.002 240.505, 61.243 241.229 C 61.887 243.160, 98.500 243.064, 98.500 241.131 C 98.500 240.378, 96.937 239.253, 95.026 238.631 C 89.402 236.800, 89.031 235.051, 89.015 210.300 L 89 188.100 94.750 187.800 C 99.061 187.575, 100.500 187.125, 100.500 186 C 100.500 184.875, 99.061 184.425, 94.750 184.200 L 89 183.900 89.115 175.200 C 89.203 168.575, 89.403 167.394, 89.957 170.247 C 90.890 175.057, 93.413 177.799, 97.631 178.591 C 111.131 181.123, 116.302 165.122, 104.287 157.994 C 100.527 155.764, 90.951 154.488, 86.500 155.625 M 91.552 160.942 C 88.741 164.049, 90.224 164.782, 93.186 161.750 C 94.664 160.238, 95.296 159, 94.591 159 C 93.887 159, 92.519 159.874, 91.552 160.942 M 1.140 249.250 L 1 327 81.250 326.900 C 125.388 326.845, 160.375 326.440, 159 326 C 157.625 325.560, 153.350 325.122, 149.500 325.027 C 145.650 324.932, 140.250 324.464, 137.500 323.988 C 128.336 322.402, 121.521 320.939, 119.500 320.125 C 118.400 319.682, 114.350 318.278, 110.500 317.005 C 106.650 315.732, 100.258 313.185, 96.296 311.345 C 92.334 309.505, 88.863 308, 88.582 308 C 87.411 308, 72.018 298.232, 66 293.670 C 51.739 282.861, 34.804 264.384, 25.919 249.942 C 24.039 246.884, 21.936 243.509, 21.248 242.442 C 20.559 241.374, 19.534 239.375, 18.971 238 C 18.407 236.625, 16.668 233.019, 15.104 229.986 C 13.541 226.953, 11.936 222.985, 11.537 221.168 C 11.138 219.352, 10.182 216.658, 9.412 215.183 C 8.642 213.707, 8.010 211.514, 8.006 210.309 C 8.003 209.104, 7.592 207.866, 7.094 207.558 C 6.595 207.250, 5.865 204.654, 5.471 201.789 C 5.077 198.924, 4.352 195.887, 3.860 195.040 C 3.368 194.193, 2.586 188.550, 2.123 182.500 C 1.566 175.238, 1.232 197.919, 1.140 249.250 M 118.446 183.579 C 108.293 185.841, 103 190.460, 103 197.058 C 103 199.675, 103.801 201.798, 105.589 203.923 C 107.871 206.636, 108.796 207, 113.402 207 C 117.873 207, 119.030 206.578, 121.432 204.071 C 125.265 200.070, 125.280 193.946, 121.467 189.965 C 118.885 187.271, 118.869 187.176, 120.868 186.542 C 123.326 185.762, 126.564 187.317, 127.977 189.957 C 129.253 192.340, 129.323 204.527, 128.075 206.860 C 127.204 208.487, 123.523 210.375, 113 214.589 C 103.510 218.391, 100 222.551, 100 230 C 100 238.887, 104.815 243.003, 115.200 242.995 C 120.077 242.991, 122.396 242.447, 125.467 240.589 L 129.434 238.187 132.294 240.594 C 134.760 242.669, 136.189 243, 142.676 243 C 147.562 243, 151.403 242.428, 153.638 241.367 C 157.358 239.602, 157.636 237.450, 154.126 237.582 C 151.205 237.692, 151.100 236.929, 150.776 213.321 C 150.520 194.607, 150.347 192.938, 148.395 190.321 C 147.238 188.770, 144.855 186.659, 143.099 185.631 C 138.980 183.219, 125.207 182.073, 118.446 183.579 M 196.787 183.405 C 193.644 184.075, 190.193 185.420, 189.117 186.394 C 187.230 188.102, 187.149 188.082, 186.830 185.832 C 186.622 184.361, 185.854 183.531, 184.750 183.583 C 183.787 183.629, 177.600 183.742, 171 183.833 C 159.722 183.990, 159 184.120, 159 186 C 159 187.140, 159.667 188, 160.551 188 C 163.952 188, 165 194.099, 165 213.903 C 165 233.645, 164.321 237.842, 160.988 238.713 C 159.880 239.003, 159 240.078, 159 241.141 C 159 242.952, 159.830 243.035, 175.168 242.775 C 186.969 242.574, 191.447 242.164, 191.749 241.256 C 191.976 240.572, 191.001 239.571, 189.581 239.031 L 187 238.050 187 216.216 C 187 200.288, 187.338 193.940, 188.250 192.746 C 190.178 190.222, 194.426 189.568, 196.356 191.499 C 197.777 192.920, 198 195.993, 198 214.137 C 198 235.107, 197.446 239, 194.465 239 C 193.659 239, 193 239.911, 193 241.025 C 193 242.986, 193.510 243.041, 209.250 242.775 C 221.664 242.565, 225.500 242.197, 225.500 241.217 C 225.500 240.511, 224.375 239.374, 223 238.690 L 220.500 237.446 219.898 214.473 C 219.567 201.838, 219.230 191.403, 219.148 191.285 C 216.308 187.164, 212.229 183.958, 209.174 183.444 C 207.153 183.104, 204.825 182.682, 204 182.506 C 203.175 182.331, 199.929 182.736, 196.787 183.405 M 245 183.434 C 238.414 184.823, 236.422 185.859, 232.584 189.892 C 230.284 192.309, 229.572 194.113, 229.214 198.435 C 228.616 205.640, 231.419 210.498, 241.421 219.592 C 249.336 226.790, 252.656 232.250, 251.622 236.371 C 250.416 241.177, 242.817 240.948, 238.637 235.981 C 237.308 234.401, 235.425 230.496, 234.453 227.304 C 231.018 216.019, 229.287 217.542, 228.832 232.251 C 228.510 242.678, 228.565 243.002, 230.643 243.001 C 231.822 243.001, 233.045 242.325, 233.362 241.500 C 233.984 239.879, 237.538 239.444, 238.426 240.880 C 239.203 242.137, 248.368 245, 251.617 245 C 254.172 245, 257.569 244.124, 264.239 241.744 C 268.193 240.333, 273.609 233.897, 274.403 229.667 C 275.292 224.927, 273.611 218.879, 270.316 214.963 C 268.868 213.243, 263.981 208.743, 259.455 204.963 C 254.825 201.095, 250.800 196.866, 250.251 195.290 C 248.303 189.702, 251.844 186.148, 258.010 187.502 C 262.557 188.501, 264.319 191.311, 267.615 202.824 C 267.823 203.552, 268.783 203.997, 269.747 203.812 C 271.259 203.523, 271.539 202.067, 271.785 193.238 C 272.036 184.216, 271.871 183, 270.395 183 C 269.474 183, 268.221 183.670, 267.610 184.489 C 266.650 185.776, 265.890 185.796, 262 184.637 C 254.749 182.476, 250.848 182.200, 245 183.434 M 125.627 216.031 C 124.225 217.698, 122.647 220.618, 122.122 222.520 C 120.455 228.558, 123.374 234.222, 127.364 232.691 C 128.720 232.170, 129 230.433, 129 222.531 C 129 217.289, 128.815 213, 128.589 213 C 128.363 213, 127.030 214.364, 125.627 216.031" stroke="none" fill="#000000" fill-rule="evenodd"/></svg>