<svg xmlns="http://www.w3.org/2000/svg" width="300" height="300" viewBox="0 0 300 300" version="1.1">
    <path d="M 126 1.433 L 118.500 2.774 112.192 4.429 L 105.884 6.085 98.692 8.669 L 91.500 11.252 83.500 15.252 L 75.500 19.252 68.500 23.767 L 61.500 28.282 54.500 34.050 L 47.500 39.818 41.926 45.659 L 36.352 51.500 32.306 56.500 L 28.260 61.500 23.756 68.500 L 19.252 75.500 15.065 83.849 L 10.878 92.197 7.502 102.349 L 4.125 112.500 2.312 121 L 0.500 129.500 0.500 150 L 0.500 170.500 2.312 179 L 4.125 187.500 7.502 197.651 L 10.878 207.803 15.065 216.151 L 19.252 224.500 23.756 231.500 L 28.260 238.500 32.306 243.500 L 36.352 248.500 41.926 254.341 L 47.500 260.182 54.500 265.950 L 61.500 271.718 68.500 276.233 L 75.500 280.748 83.849 284.935 L 92.197 289.122 102.349 292.498 L 112.500 295.875 121 297.688 L 129.500 299.500 150 299.500 L 170.500 299.500 179 297.688 L 187.500 295.875 197.651 292.498 L 207.803 289.122 216.151 284.935 L 224.500 280.748 231.500 276.233 L 238.500 271.718 245.500 265.950 L 252.500 260.182 258.074 254.341 L 263.648 248.500 267.694 243.500 L 271.740 238.500 276.244 231.500 L 280.748 224.500 284.935 216.151 L 289.122 207.803 292.493 197.651 L 295.864 187.500 297.432 179.792 L 299 172.084 299 169.601 L 299 167.118 300 166.500 L 301 165.882 301 148.882 L 301 131.882 300 132.500 L 299 133.118 299 130.517 L 299 127.916 297.432 120.208 L 295.864 112.500 292.493 102.349 L 289.122 92.197 284.935 83.849 L 280.748 75.500 276.244 68.500 L 271.740 61.500 267.694 56.500 L 263.648 51.500 258.074 45.659 L 252.500 39.818 245.500 34.050 L 238.500 28.282 231.500 23.767 L 224.500 19.252 216.151 15.065 L 207.803 10.878 197.651 7.508 L 187.500 4.137 180 2.472 L 172.500 0.807 153 0.450 L 133.500 0.092 126 1.433 M 140 21.644 L 135.500 22.057 127.126 23.584 L 118.752 25.111 110.626 27.660 L 102.500 30.210 93.773 34.526 L 85.046 38.842 77.773 43.651 L 70.500 48.461 59.480 59.480 L 48.461 70.500 43.651 77.773 L 38.842 85.046 34.526 93.773 L 30.210 102.500 27.660 110.626 L 25.111 118.752 23.634 127.126 L 22.157 135.500 21.625 142 L 21.093 148.500 22.531 146.500 L 23.970 144.500 48.735 108.572 L 73.500 72.644 76.322 70.573 L 79.145 68.501 87.822 67.876 L 96.500 67.250 136.777 67.090 L 177.053 66.930 181.327 68.821 L 185.602 70.711 189.275 73.937 L 192.949 77.162 196.641 82.331 L 200.334 87.500 204.359 91.733 L 208.384 95.967 212.942 97.421 L 217.500 98.875 232.500 99.539 L 247.500 100.203 251.592 101.976 L 255.684 103.748 257.862 106.806 L 260.040 109.865 261.134 115.312 L 262.228 120.760 259.103 133.130 L 255.977 145.500 252.704 155.895 L 249.430 166.289 236.683 173.645 L 223.936 181 222.968 181 L 222 181 222 173.750 L 222.001 166.500 192.250 166.792 L 162.500 167.083 159.716 168.177 L 156.932 169.271 154.966 171.770 L 153 174.270 153.006 178.385 L 153.011 182.500 154.040 186.205 L 155.069 189.909 157.669 191.955 L 160.270 194 215.595 194 L 270.920 194 272.928 187.498 L 274.936 180.995 276.628 172.248 L 278.319 163.500 278.319 150 L 278.319 136.500 276.604 127.626 L 274.889 118.752 272.340 110.626 L 269.790 102.500 265.435 93.694 L 261.079 84.888 256.343 77.694 L 251.606 70.500 240.553 59.480 L 229.500 48.461 222.227 43.651 L 214.954 38.842 206.227 34.526 L 197.500 30.210 189.426 27.677 L 181.352 25.144 173.426 23.648 L 165.500 22.152 155 21.691 L 144.500 21.231 140 21.644 M 100.767 87.925 L 89.035 88.500 86.135 91.500 L 83.235 94.500 54.618 138.343 L 26 182.187 26 183.418 L 26 184.650 28.446 191.841 L 30.892 199.031 34.904 207.048 L 38.916 215.064 43.688 222.282 L 48.461 229.500 59.480 240.553 L 70.500 251.606 77.694 256.343 L 84.888 261.079 93.694 265.435 L 102.500 269.790 110.626 272.340 L 118.752 274.889 127.626 276.604 L 136.500 278.319 150 278.319 L 163.500 278.319 172.374 276.604 L 181.248 274.889 189.374 272.340 L 197.500 269.790 206.227 265.474 L 214.954 261.158 222.174 256.329 L 229.393 251.500 238.216 243.118 L 247.038 234.736 252.009 228.118 L 256.981 221.500 256.990 219.750 L 257 218 255 216 L 253 214 206.038 214 L 159.075 214 153.313 211.844 L 147.551 209.688 142.445 204.860 L 137.340 200.031 134.519 194.270 L 131.698 188.509 131.222 181.853 L 130.745 175.197 132.879 168.172 L 135.013 161.147 140.040 155.646 L 145.067 150.146 149.784 147.823 L 154.500 145.500 191.838 145 L 229.176 144.500 231.456 141.847 L 233.737 139.194 235.430 131.847 L 237.124 124.500 237.581 122.250 L 238.038 120 180.019 120 L 122 120 122 118.888 L 122 117.775 126.722 107.737 L 131.443 97.699 152.472 98.281 L 173.500 98.863 176.128 98.338 L 178.756 97.814 177.666 94.263 L 176.576 90.713 173.538 88.860 L 170.500 87.007 141.500 87.179 L 112.500 87.350 100.767 87.925 M 0.411 150 L 0.411 167.500 0.745 158.750 L 1.078 150 0.745 141.250 L 0.411 132.500 0.411 150" stroke="none" fill="#000000" fill-rule="evenodd"/>
</svg>
