<svg xmlns="http://www.w3.org/2000/svg" width="324" height="143" viewBox="0 0 324 143" version="1.1">
    <path d="M 39 31 L 39 62 49.466 62 L 59.932 62 60.216 51.250 L 60.500 40.500 67.750 40.206 L 75 39.912 75 50.956 L 75 62 85.500 62 L 96 62 96 31 L 96 0 85.500 0 L 75 0 75 10.500 L 75 21 67.500 21 L 60 21 60 10.500 L 60 0 49.500 0 L 39 0 39 31 M 105 31.500 L 105 63 126 63 L 147 63 147 54.500 L 147 46 137 46 L 127 46 127 42.500 L 127 39 136 39 L 145 39 145 31 L 145 23 136 23 L 127 23 127 20 L 127 17 136.500 17 L 146 17 146 8.500 L 146 0 125.500 0 L 105 0 105 31.500 M 155 31.520 L 155 63.041 175.750 62.770 L 196.500 62.500 196.786 52.787 L 197.072 43.073 187.286 42.787 L 177.500 42.500 177.230 21.250 L 176.960 0 165.980 0 L 155 0 155 31.520 M 205.236 31.250 L 205.500 62.500 216.500 62.500 L 227.500 62.500 227.764 31.250 L 228.028 0 216.500 0 L 204.972 0 205.236 31.250 M 237 0.550 L 237 1.100 246.576 15.059 L 256.152 29.019 253.883 32.759 L 251.614 36.500 243.760 48.291 L 235.906 60.081 235.334 61.571 L 234.762 63.062 247.479 62.781 L 260.196 62.500 264.348 54.316 L 268.500 46.131 269 46.113 L 269.500 46.095 273.661 54.298 L 277.822 62.500 290.411 62.780 L 303 63.060 303 62.202 L 303 61.344 292.505 45.922 L 282.009 30.500 282.006 29.500 L 282.003 28.500 291 15 L 299.997 1.500 299.999 0.750 L 300 0 287.634 0 L 275.268 0 272.085 7.119 L 268.901 14.238 265.490 7.119 L 262.078 0 249.539 0 L 237 0 237 0.550 M 12 81.097 L 8.500 83.187 6.756 85.344 L 5.012 87.500 3.968 91.250 L 2.923 95 3.946 98.798 L 4.968 102.595 7.734 105.221 L 10.500 107.847 19.114 111.945 L 27.728 116.042 29.531 118.034 L 31.333 120.026 31.333 124.500 L 31.333 128.974 29.419 131.089 L 27.505 133.205 24.802 134.602 L 22.099 136 19.418 136 L 16.736 136 13.413 133.946 L 10.091 131.893 8.816 128.367 L 7.541 124.842 4.552 125.440 L 1.563 126.037 0.785 126.815 L 0.008 127.592 2.254 131.988 L 4.500 136.384 8.343 139.442 L 12.186 142.500 19.416 142.500 L 26.646 142.500 30.803 139.749 L 34.960 136.998 36.980 133.039 L 39 129.080 39 123.688 L 39 118.296 36.745 114.898 L 34.489 111.500 24.839 106.500 L 15.188 101.500 13.094 99.595 L 11 97.690 11 94.800 L 11 91.909 13.414 89.495 L 15.828 87.081 18.414 86.432 L 21 85.783 23.652 86.449 L 26.305 87.115 28.902 89.865 L 31.500 92.615 34.248 91.057 L 36.996 89.500 36.998 88.446 L 37 87.392 33.750 84.258 L 30.500 81.123 27.685 80.061 L 24.870 79 20.185 79.004 L 15.500 79.007 12 81.097 M 240 79.876 L 237.500 80.698 233.277 82.856 L 229.053 85.014 225.526 88.540 L 222 92.067 219.290 97.283 L 216.581 102.500 216.544 111 L 216.507 119.500 220.082 126 L 223.658 132.500 228.340 136.056 L 233.022 139.613 238.084 141.433 L 243.147 143.254 250.323 142.773 L 257.500 142.293 262.236 140.043 L 266.972 137.793 271.085 133.802 L 275.197 129.811 277.842 124.155 L 280.487 118.500 280.487 111 L 280.487 103.500 277.881 98 L 275.274 92.500 271.387 88.650 L 267.500 84.801 262.500 82.237 L 257.500 79.673 250 79.363 L 242.500 79.054 240 79.876 M 296.274 81.093 L 292.049 83.185 290.112 86.342 L 288.174 89.500 287.936 92.500 L 287.698 95.500 287.849 98.173 L 288 100.847 290.561 103.890 L 293.122 106.933 302.556 111.553 L 311.991 116.174 313.996 118.722 L 316 121.270 315.985 123.885 L 315.971 126.500 314.721 128.970 L 313.471 131.440 310.088 133.720 L 306.704 136 303.387 136 L 300.070 136 296.526 132.889 L 292.982 129.777 292.383 127.389 L 291.783 125 290.457 125 L 289.130 125 286.545 125.983 L 283.959 126.966 285.527 130.719 L 287.095 134.473 289.298 136.834 L 291.500 139.195 295.210 141.097 L 298.920 143 303.644 143 L 308.369 143 312.711 140.898 L 317.054 138.795 319.472 135.626 L 321.889 132.456 322.911 127.898 L 323.932 123.339 322.928 119.701 L 321.923 116.062 319.490 113.170 L 317.056 110.278 307.565 105.660 L 298.073 101.041 296.448 98.561 L 294.823 96.081 295.507 92.968 L 296.191 89.855 299.345 87.875 L 302.500 85.895 306.500 86.380 L 310.500 86.865 313.013 89.861 L 315.527 92.858 318.263 91.197 L 321 89.537 321 88.465 L 321 87.392 317.750 84.258 L 314.500 81.123 311.685 80.061 L 308.870 79 304.685 79.001 L 300.500 79.002 296.274 81.093 M 44 83.478 L 44 87 51.500 87 L 59 87 59 114.560 L 59 142.121 62.568 141.810 L 66.136 141.500 66.039 114.293 L 65.941 87.085 73.721 86.793 L 81.500 86.500 81.500 83.500 L 81.500 80.500 62.750 80.228 L 44 79.956 44 83.478 M 90.022 103.250 L 90.044 126.500 91.880 130.541 L 93.715 134.583 97.108 137.443 L 100.500 140.303 103.718 141.652 L 106.936 143 112.354 143 L 117.772 143 123.120 140.206 L 128.469 137.412 131.485 132.536 L 134.500 127.661 134.500 104.081 L 134.500 80.500 130.817 80.194 L 127.134 79.887 126.817 103.241 L 126.500 126.594 124.736 129.283 L 122.972 131.972 120.524 133.576 L 118.076 135.180 114.185 135.702 L 110.294 136.224 105.613 134.153 L 100.932 132.083 99.466 128.573 L 98 125.064 98 102.532 L 98 80 94 80 L 90 80 90.022 103.250 M 143 111.121 L 143 142.241 155.250 141.760 L 167.500 141.279 171.353 139.583 L 175.207 137.887 179.996 133.407 L 184.785 128.928 186.830 124.173 L 188.876 119.418 189.542 114.392 L 190.209 109.365 188.590 103.045 L 186.971 96.725 184.069 92.779 L 181.167 88.833 177.075 85.824 L 172.983 82.814 167.742 81.419 L 162.500 80.024 152.750 80.012 L 143 80 143 111.121 M 200 111 L 200 142 204 142 L 208 142 208 111 L 208 80 204 80 L 200 80 200 111 M 241.994 86.875 L 239.487 87.697 236.494 89.259 L 233.500 90.821 230.809 93.661 L 228.118 96.500 226.081 101 L 224.044 105.500 224.044 111 L 224.044 116.500 226.081 121 L 228.118 125.500 230.809 128.342 L 233.500 131.183 237.500 133.312 L 241.500 135.441 248.500 135.470 L 255.500 135.500 260.292 132.683 L 265.084 129.866 268.045 125.779 L 271.006 121.692 272.113 117.596 L 273.220 113.500 272.694 108.363 L 272.168 103.225 270.470 99.863 L 268.772 96.500 266.136 93.658 L 263.500 90.817 259.572 88.797 L 255.645 86.778 250.072 86.416 L 244.500 86.053 241.994 86.875 M 151 110.855 L 151 135 155.750 134.994 L 160.500 134.989 164.500 133.912 L 168.500 132.834 172.313 130.237 L 176.126 127.640 178.631 123.367 L 181.135 119.094 181.677 113.797 L 182.220 108.500 181.113 104.404 L 180.006 100.308 177.093 96.287 L 174.180 92.265 169.667 90.081 L 165.155 87.897 158.078 87.303 L 151 86.710 151 110.855" stroke="none" fill="currentColor" fill-rule="evenodd"/>
</svg>
