<svg xmlns="http://www.w3.org/2000/svg" width="225" height="225" viewBox="0 0 225 225" version="1.1"><path d="M 0 112.500 L 0 225 112 225 L 224 225 224 112.500 L 224 0 112 0 L 0 0 0 112.500 M 52.357 45.954 L 50.214 46.856 48.607 49.151 L 47 51.445 46.998 98.973 L 46.997 146.500 45.248 150 L 43.500 153.500 38.729 155.866 L 33.958 158.233 29.729 157.019 L 25.500 155.806 22.159 155.283 L 18.817 154.760 16.519 155.990 L 14.221 157.220 13.110 159.657 L 12 162.094 12 164.470 L 12 166.847 14.575 169.907 L 17.150 172.967 22.257 174.484 L 27.363 176 33.067 176 L 38.770 176 43.980 174.317 L 49.190 172.635 54.150 168.175 L 59.111 163.715 61.805 158.608 L 64.500 153.500 64.784 102.346 L 65.069 51.191 62.784 48.595 L 60.500 45.998 57.500 45.524 L 54.500 45.051 52.357 45.954 M 87.077 48.589 L 84 51.178 84 110.915 L 84 170.651 86.250 172.688 L 88.500 174.724 90.818 175.286 L 93.136 175.848 96.099 174.816 L 99.061 173.783 100.530 170.941 L 102 168.099 102 143.050 L 102 118 116.444 118 L 130.888 118 133.672 115.606 L 136.455 113.212 136.455 109.163 L 136.455 105.113 134.053 102.556 L 131.651 100 116.803 100 L 101.954 100 102.227 82.250 L 102.500 64.500 118.950 64.224 L 135.399 63.949 137.314 62.224 L 139.230 60.500 140.145 58.106 L 141.060 55.712 139.947 52.339 L 138.833 48.965 135.966 47.483 L 133.099 46 111.626 46 L 90.153 46 87.077 48.589 M 156.138 48.538 L 153 51.178 153 110.155 L 153 169.131 154.080 171.150 L 155.161 173.169 158.580 174.598 L 162 176.027 165.378 174.615 L 168.756 173.204 169.628 171.852 L 170.500 170.500 171 144.500 L 171.500 118.500 186.340 118 L 201.180 117.500 203.590 114.694 L 206 111.888 206 109.021 L 206 106.153 203.433 103.103 L 200.867 100.053 186.183 99.776 L 171.500 99.500 171.500 82 L 171.500 64.500 189 63.940 L 206.500 63.380 206.724 63.190 L 206.949 63 208.563 59.879 L 210.177 56.757 209.569 53.516 L 208.961 50.275 206.878 48.387 L 204.794 46.500 182.035 46.199 L 159.275 45.897 156.138 48.538" stroke="none" fill="#000000" fill-rule="evenodd"/></svg>