<svg xmlns="http://www.w3.org/2000/svg" width="225" height="225" viewBox="0 0 225 225" version="1.1"><path d="M 49.452 47.646 L 47 50.292 47 98.112 C 47 152.913, 47.224 151.333, 38.854 155.574 C 34.454 157.803, 33.888 157.863, 29.338 156.579 C 19.515 153.807, 18.388 153.835, 15.065 156.939 C 9.048 162.560, 11.951 171.307, 20.879 174.457 C 26.441 176.420, 39.443 176.461, 44.905 174.533 C 51.200 172.313, 58.785 165.367, 62.111 158.779 L 65 153.057 65 101.716 L 65 50.374 62.195 47.687 C 58.341 43.995, 52.852 43.977, 49.452 47.646 M 86.742 48.330 L 83.984 50.588 84.242 111.397 L 84.500 172.207 88.114 174.303 C 91.311 176.157, 92.184 176.261, 95.699 175.208 C 98.312 174.426, 100.069 173.144, 100.835 171.462 C 101.624 169.731, 102 160.691, 102 143.453 L 102 118 116.540 118 C 129.929 118, 131.315 117.827, 134.040 115.812 C 136.498 113.995, 137 112.916, 137 109.447 C 137 106.735, 136.273 104.345, 134.927 102.635 L 132.855 100 117.283 100 L 101.711 100 102.348 93.250 C 102.699 89.537, 102.989 81.732, 102.993 75.903 L 103 65.307 119.600 64.718 C 133.124 64.239, 136.541 63.821, 138.043 62.461 C 142.202 58.697, 141.212 49.329, 136.424 47.147 C 134.763 46.390, 126.350 46.012, 111.703 46.036 C 90.162 46.071, 89.418 46.139, 86.742 48.330 M 155.750 48.324 L 153 50.575 153 110.353 C 153 147.985, 153.368 170.818, 153.992 171.986 C 155.545 174.887, 161.290 176.390, 165.508 174.997 C 167.437 174.361, 169.402 173.088, 169.875 172.170 C 170.347 171.251, 171.046 159.035, 171.427 145.023 C 171.809 131.011, 172.219 119.448, 172.339 119.328 C 172.459 119.208, 179.069 118.802, 187.028 118.426 C 201.027 117.764, 201.572 117.656, 203.714 115.121 C 206.661 111.632, 206.626 106.352, 203.630 102.691 C 201.349 99.904, 201.220 99.878, 186.666 99.289 L 172 98.694 172 81.997 L 172 65.299 181.154 64.650 C 186.188 64.292, 194.054 64, 198.633 64 L 206.959 64 208.817 60.250 C 211.062 55.717, 210.283 50.457, 206.969 47.774 C 205.009 46.187, 202.339 46.004, 181.639 46.036 C 159.146 46.071, 158.423 46.135, 155.750 48.324" stroke="none" fill="#080404" fill-rule="evenodd"/></svg>