<svg xmlns="http://www.w3.org/2000/svg" width="147" height="64" viewBox="0 0 147 64" version="1.1"><path d="M 2 15.443 L 2 31 5.464 31 L 8.928 31 9.214 21.280 L 9.500 11.560 15.296 21.280 L 21.092 31 25.546 31 L 30 31 30 15.440 L 30 -0.121 26.356 0.190 L 22.713 0.500 22.920 10.480 L 23.126 20.460 22.313 19.662 L 21.500 18.864 15.935 9.682 L 10.370 0.500 6.185 0.193 L 2 -0.115 2 15.443 M 43.084 2.190 L 42.172 4.500 36.638 17.750 L 31.104 31 35.104 31 L 39.104 31 40.150 28 L 41.196 25 47.185 25 L 53.174 25 54.306 28 L 55.438 31 59.652 31 L 63.865 31 57.596 15.750 L 51.327 0.500 47.662 0.190 L 43.996 -0.121 43.084 2.190 M 65 15.440 L 65 31 69.085 31 L 73.171 31 72.835 24.498 L 72.500 17.996 73.071 17.998 L 73.641 18 78.850 24.500 L 84.059 31 88.588 31 L 93.118 31 92.365 29.750 L 91.613 28.500 85.806 21.724 L 80 14.949 80 14.193 L 80 13.437 86 7.500 L 92 1.563 92 0.781 L 92 0 87.750 0.007 L 83.500 0.014 78.563 6.007 L 73.625 12 73.037 12 L 72.450 12 72.475 6.250 L 72.500 0.500 68.750 0.190 L 65 -0.121 65 15.440 M 95 15.500 L 95 31 105.500 31 L 116 31 116 28 L 116 25 109 25 L 102 25 102 21.500 L 102 18 108.500 18 L 115 18 115 15 L 115 12 108.500 12 L 102 12 102 9 L 102 6 109 6 L 116 6 116 3 L 116 0 105.500 0 L 95 0 95 15.500 M 118 15.483 L 118 31.239 127.488 30.824 L 136.976 30.409 139.676 28.393 L 142.376 26.376 144.325 23.766 L 146.274 21.156 146.355 15.607 L 146.435 10.059 144.406 7.341 L 142.376 4.624 139.769 2.677 L 137.161 0.730 127.581 0.229 L 118 -0.273 118 15.483 M 125 15.630 L 125 25.260 129.717 24.728 L 134.434 24.197 136.717 21.543 L 139 18.888 139 15.878 L 139 12.869 137.920 10.850 L 136.839 8.831 133.452 7.415 L 130.064 6 127.532 6 L 125 6 125 15.630 M 45.693 12.810 L 44 17.040 44 18.020 L 44 19 47.567 19 L 51.135 19 50.444 16.750 L 49.753 14.500 48.569 11.539 L 47.386 8.579 45.693 12.810 M 8 32.706 L 6.500 33.255 4.250 35.302 L 2 37.349 2 41.602 L 2 45.855 4.635 47.927 L 7.270 50 13.076 50 L 18.882 50 19.514 48.977 L 20.146 47.955 14.573 45.490 L 9 43.025 9 40.981 L 9 38.937 10.647 38.305 L 12.295 37.673 15.336 38.821 L 18.377 39.969 20.189 38.329 L 22 36.690 22 35.794 L 22 34.898 18.532 33.449 L 15.064 32 12.282 32.079 L 9.500 32.158 8 32.706 M 71.020 33.752 L 67.540 35.500 65.270 38.898 L 63 42.296 63 44.255 L 63 46.214 64.582 45.607 L 66.164 45 68.582 45 L 71 45 71 43.557 L 71 42.113 73.223 40.557 L 75.445 39 78.682 39 L 81.919 39 84.252 41.516 L 86.586 44.033 89.793 43.391 L 93 42.750 92.996 42.125 L 92.993 41.500 91.114 38.420 L 89.236 35.340 85.717 33.670 L 82.198 32 78.349 32.002 L 74.500 32.003 71.020 33.752 M 24.419 41 L 26.474 49 28.487 48.985 L 30.500 48.969 31.884 48.093 L 33.268 47.216 31.526 40.108 L 29.785 33 26.074 33 L 22.364 33 24.419 41 M 38.137 38.250 L 36.956 43.500 36.361 45.750 L 35.767 48 38.261 48 L 40.756 48 42.326 45.750 L 43.895 43.500 43.948 45.250 L 44 47 47.125 47 L 50.250 47 49.611 43.804 L 48.972 40.609 47.947 36.804 L 46.923 33 43.121 33 L 39.318 33 38.137 38.250 M 56.495 34.250 L 56.053 35.500 55.051 40 L 54.049 44.500 54.024 45.250 L 54 46 57.381 46 L 60.763 46 61.927 41.250 L 63.090 36.500 63.613 34.750 L 64.135 33 60.536 33 L 56.937 33 56.495 34.250 M 95 38 L 95 43 96.418 43 L 97.836 43 99.418 42.393 L 101 41.786 101 40.393 L 101 39 104.450 39 L 107.901 39 108.700 40.376 L 109.500 41.753 112.631 41.280 L 115.763 40.808 115.258 38.880 L 114.754 36.952 112.242 34.976 L 109.730 33 102.365 33 L 95 33 95 38 M 118 37 L 118 41 118.986 41 L 119.971 41 124.274 39.849 L 128.578 38.698 132.330 39.402 L 136.083 40.106 137.674 43.442 L 139.264 46.778 138.587 50.386 L 137.910 53.995 135.005 55.498 L 132.099 57 128.550 57 L 125 57 125 49.201 L 125 41.402 121.500 41.810 L 118 42.219 118 53.235 L 118 64.251 126.326 63.814 L 134.652 63.377 138.576 61.341 L 142.500 59.305 144.465 55.942 L 146.430 52.580 146.355 47.391 L 146.280 42.201 143.991 38.988 L 141.703 35.774 138.383 34.387 L 135.064 33 126.532 33 L 118 33 118 37 M 111.571 42.730 L 109.641 43.216 108.249 44.608 L 106.857 46 103.929 46 L 101 46 101 45 L 101 44 98 44 L 95 44 95 54 L 95 64 97.952 64 L 100.905 64 101.202 57.829 L 101.500 51.659 102.530 51.319 L 103.561 50.980 106.771 57.490 L 109.981 64 112.824 64 L 115.667 64 116.204 63.462 L 116.742 62.925 113.481 56.820 L 110.219 50.716 112.558 48.608 L 114.897 46.500 115.199 44.604 L 115.500 42.707 114.500 42.476 L 113.500 42.244 111.571 42.730 M 86.333 46.425 L 86.880 47.851 85.871 51.505 L 84.862 55.160 81.479 56.573 L 78.096 57.987 75.649 57.057 L 73.202 56.126 71.601 53.841 L 70 51.555 70 49.277 L 70 47 66.500 47 L 63 47 63.004 50.250 L 63.007 53.500 64.995 56.759 L 66.982 60.018 70.241 62.005 L 73.500 63.993 78 63.995 L 82.500 63.997 86 62.248 L 89.500 60.500 91.750 56.038 L 94 51.576 94 48.288 L 94 45 89.893 45 L 85.786 45 86.333 46.425 M 52.992 49.750 L 51.884 51.500 51.359 50.250 L 50.833 49 47.810 49 L 44.786 49 45.266 50.250 L 45.745 51.500 47.043 57.299 L 48.340 63.098 52.360 62.799 L 56.380 62.500 57.521 58 L 58.661 53.500 59.350 50.750 L 60.038 48 57.069 48 L 54.099 48 52.992 49.750 M 30.170 50.819 L 26.839 51.139 27.438 52.698 L 28.036 54.258 29.137 58.629 L 30.237 63 33.955 63 L 37.672 63 39.336 57.015 L 41 51.030 41 50.515 L 41 50 38 50 L 35 50 34.985 51.250 L 34.969 52.500 34.235 51.500 L 33.500 50.500 30.170 50.819 M 14.461 54.750 L 14.500 57.500 11.685 57.823 L 8.871 58.145 6.546 56.622 L 4.221 55.099 2.610 56.878 L 1 58.657 1 59.803 L 1 60.949 3.950 62.474 L 6.901 64 11.016 64 L 15.131 64 17.055 62.970 L 18.979 61.941 20.490 59.020 L 22 56.099 22 54.050 L 22 52 18.211 52 L 14.421 52 14.461 54.750" stroke="none" fill="#000000" fill-rule="evenodd"/></svg>