<svg xmlns="http://www.w3.org/2000/svg" width="258" height="196" viewBox="0 0 258 196" version="1.1"><path d="M 84.539 28.054 L 78.578 28.981 73.091 30.576 L 67.605 32.171 62.050 34.975 L 56.495 37.779 50.998 41.866 L 45.500 45.952 40.178 52.226 L 34.857 58.500 30.489 67.500 L 26.120 76.500 24.560 84.208 L 23 91.916 23.008 97.208 L 23.015 102.500 24.059 108.935 L 25.103 115.369 27.119 121.435 L 29.135 127.500 33.008 134.074 L 36.880 140.648 42.697 146.685 L 48.513 152.723 56.152 157.709 L 63.790 162.696 72.645 165.598 L 81.500 168.500 93.500 168.475 L 105.500 168.450 112 166.720 L 118.500 164.990 126.550 161.045 L 134.600 157.101 141.288 150.973 L 147.976 144.845 153.386 136.629 L 158.797 128.414 160.167 127.276 L 161.537 126.139 168.406 124.943 L 175.274 123.747 183.215 119.773 L 191.155 115.798 196.905 110.149 L 202.654 104.500 205.498 99.620 L 208.343 94.739 210.704 88.235 L 213.065 81.731 212.637 81.304 L 212.210 80.877 201.855 82.019 L 191.500 83.162 186 82.507 L 180.500 81.852 178.161 81.295 L 175.823 80.739 186.733 77.089 L 197.643 73.440 204.649 69.278 L 211.655 65.116 216.790 60.499 L 221.924 55.883 226.295 49.191 L 230.666 42.500 232.740 37.500 L 234.813 32.500 235.157 30 L 235.500 27.500 205 27.635 L 174.500 27.771 167.172 29.348 L 159.844 30.925 154.497 33.373 L 149.150 35.821 144.654 39.965 L 140.157 44.110 135.329 40.672 L 130.500 37.235 125.500 34.731 L 120.500 32.228 113.836 30.173 L 107.172 28.118 98.836 27.623 L 90.500 27.127 84.539 28.054 M 86.637 78.465 L 82.775 79.842 79.761 82.671 L 76.748 85.500 74.896 89.500 L 73.044 93.500 73.022 98.054 L 73 102.607 75.533 107.691 L 78.066 112.774 82.198 115.637 L 86.329 118.500 93.988 118.500 L 101.647 118.500 105.339 116 L 109.032 113.500 111.726 109.644 L 114.419 105.788 114.815 99.562 L 115.212 93.335 113.197 89.418 L 111.183 85.500 108.342 82.803 L 105.500 80.106 101.782 78.553 L 98.064 77 94.282 77.044 L 90.500 77.088 86.637 78.465" stroke="none" fill="#000000" fill-rule="evenodd"/></svg>