<svg xmlns="http://www.w3.org/2000/svg" width="362" height="362" viewBox="0 0 362 362" version="1.1"><path d="M 38.400 183.400 C 36.530 185.270, 35.001 187.633, 35.002 188.650 C 35.003 189.822, 35.643 189.218, 36.752 187 C 37.752 184.998, 39.998 182.752, 42 181.752 C 44.218 180.643, 44.822 180.003, 43.650 180.002 C 42.633 180.001, 40.270 181.530, 38.400 183.400 M 322 181.752 C 324.002 182.752, 326.248 184.998, 327.248 187 C 328.357 189.218, 328.997 189.822, 328.998 188.650 C 329 186.252, 322.748 180, 320.350 180.002 C 319.178 180.003, 319.782 180.643, 322 181.752 M 46.250 197.662 C 45.266 198.059, 45.051 210.556, 45.238 256.333 L 45.476 314.500 46 256.500 L 46.524 198.500 46.762 255.750 L 47 313 57 313 L 67 313 67.224 288.750 L 67.447 264.500 68 289.500 L 68.553 314.500 68.800 289 C 69.026 265.707, 69.434 260.402, 71.454 254.500 C 71.912 253.160, 71.632 253.325, 70.605 255 C 69.761 256.375, 69.055 257.024, 69.035 256.441 C 69.016 255.859, 69.661 254.509, 70.468 253.441 C 71.276 252.374, 71.951 251.884, 71.968 252.354 C 71.986 252.823, 73.591 251.811, 75.535 250.104 C 77.479 248.397, 79.841 246.993, 80.785 246.985 C 82.103 246.973, 82.192 246.774, 81.169 246.126 C 80.233 245.532, 80.789 245.092, 83.044 244.641 C 87.438 243.762, 88.898 243.952, 86.500 245.089 C 84.918 245.840, 85.180 245.935, 87.750 245.544 C 92.015 244.896, 95.494 246.298, 97.602 249.515 C 99.114 251.822, 99.312 255.607, 99.347 282.809 L 99.387 313.500 99.968 286.500 L 100.548 259.500 100.774 286.250 L 101 313 111 313 L 121 313 121.228 283.250 L 121.456 253.500 122.040 283.500 L 122.624 313.500 122.547 281 C 122.472 249.014, 122.433 248.416, 120.093 243.206 C 115.915 233.902, 104.747 226.976, 96.148 228.357 C 93.611 228.765, 92.957 228.649, 94 227.978 C 95.015 227.326, 93.882 227.209, 90.500 227.618 C 84.713 228.318, 74.586 232.522, 75.424 233.877 C 76.029 234.857, 69.596 241, 67.965 241 C 67.368 241, 67.084 232.891, 67.219 219.750 L 67.439 198.500 67.969 219.142 L 68.500 239.785 71.962 236.892 C 73.866 235.302, 75.020 234, 74.527 234 C 74.033 234, 72.587 234.978, 71.314 236.174 L 69 238.349 69 218.281 C 69 200.905, 68.788 198.133, 67.418 197.607 C 65.545 196.888, 48.055 196.934, 46.250 197.662 M 242.250 197.646 C 241.270 198.054, 241 210.645, 240.999 255.833 L 240.998 313.500 251.749 313.500 L 262.500 313.500 262.160 307.137 C 261.901 302.304, 262.127 300.876, 263.097 301.199 C 263.800 301.433, 264.574 302.222, 264.817 302.952 C 265.115 303.844, 264.807 304.016, 263.880 303.478 C 263.121 303.038, 263.625 303.938, 265 305.480 C 267.708 308.515, 275.738 314.006, 277.446 313.991 C 278.026 313.985, 276.250 312.688, 273.500 311.107 C 270.750 309.526, 267.600 307.183, 266.500 305.901 C 264.958 304.104, 265.301 304.227, 268 306.440 C 272.531 310.156, 280.686 313.946, 284.500 314.109 L 287.500 314.237 284.500 314.964 C 282.417 315.469, 283.792 315.691, 289 315.691 C 294.596 315.690, 295.611 315.508, 293 314.976 L 289.500 314.263 293 314.122 C 298.331 313.907, 306.441 309.646, 311.692 304.302 C 314.576 301.368, 315.596 300.667, 314.314 302.500 C 311.523 306.490, 309.383 308.339, 304 311.409 C 301.525 312.821, 299.974 313.981, 300.554 313.988 C 301.134 313.995, 303.642 312.710, 306.127 311.134 C 314.858 305.598, 322.500 293.513, 321.478 286.862 C 321.113 284.482, 321.211 284.071, 321.815 285.453 C 322.556 287.147, 322.757 286.965, 323.334 284.078 C 323.700 282.248, 323.941 275.969, 323.868 270.125 C 323.779 262.912, 323.505 260.624, 323.015 263 C 322.465 265.669, 322.306 264.838, 322.345 259.500 C 322.387 253.766, 321.902 251.544, 319.663 247.214 C 316.791 241.660, 310.473 234, 308.763 234 C 308.211 234, 309.580 235.767, 311.805 237.927 C 314.030 240.086, 316.359 242.899, 316.981 244.177 C 317.775 245.810, 317.427 245.609, 315.812 243.500 C 314.547 241.850, 312.160 239.251, 310.506 237.725 C 308.853 236.199, 307.500 234.402, 307.500 233.731 C 307.500 232.113, 297.779 228.408, 291.500 227.632 C 288.283 227.234, 287.016 227.343, 287.948 227.938 C 288.900 228.546, 287.966 228.671, 285.221 228.303 C 281.960 227.865, 279.859 228.324, 275.626 230.394 C 272.646 231.853, 269.598 233.823, 268.853 234.773 C 267.606 236.364, 267.657 236.385, 269.500 235.038 C 270.600 234.234, 270.178 235.022, 268.563 236.788 C 263.158 242.698, 262.977 242.102, 263.228 219.250 L 263.456 198.500 263.749 218.750 C 263.910 229.887, 264.427 239, 264.898 239 C 265.370 239, 266.373 238.241, 267.128 237.313 C 268.328 235.837, 268.283 235.707, 266.771 236.273 C 265.174 236.871, 265.021 235.412, 264.771 217.211 L 264.500 197.500 254 197.312 C 248.225 197.209, 242.938 197.359, 242.250 197.646 M 242.468 256 C 242.468 287.625, 242.595 300.562, 242.749 284.750 C 242.904 268.937, 242.904 243.062, 242.749 227.250 C 242.595 211.437, 242.468 224.375, 242.468 256 M 143.201 262.750 C 143.487 295.033, 143.595 296.706, 145.690 301.243 C 146.895 303.851, 149.145 307.160, 150.690 308.595 C 153.778 311.464, 160.183 315.013, 162.210 314.978 C 162.920 314.966, 161.475 314.039, 159 312.919 C 152.561 310.004, 145.857 302.959, 146.040 299.300 C 146.062 298.860, 146.792 299.850, 147.662 301.500 C 148.531 303.150, 150.201 305.572, 151.372 306.882 C 154.051 309.881, 162.548 313.940, 166.500 314.109 L 169.500 314.237 166.500 314.976 C 164.397 315.495, 165.743 315.712, 171 315.704 C 176.630 315.695, 177.752 315.491, 175.500 314.885 C 173.129 314.248, 173.549 314.148, 177.500 314.410 C 180.250 314.593, 181.907 314.527, 181.182 314.265 C 180.457 314.003, 182.120 312.743, 184.877 311.466 C 187.634 310.188, 191.877 307.311, 194.306 305.072 C 196.736 302.832, 199.011 301, 199.362 301 C 199.713 301, 200 303.670, 200 306.934 L 200 312.867 210.002 313.184 L 220.004 313.500 220.002 271.250 L 220 229 208.750 228.999 L 197.500 228.998 197.606 256.249 C 197.668 272.351, 197.406 281.045, 196.967 277.500 L 196.222 271.500 196.245 279.500 C 196.258 283.900, 196.208 288.047, 196.134 288.715 C 195.952 290.365, 190.048 297, 188.762 297 C 188.194 297, 188.925 296.060, 190.385 294.912 C 192.891 292.941, 196.053 288.053, 195.956 286.300 C 195.931 285.860, 195.023 287.182, 193.938 289.239 C 191.456 293.939, 188.643 295.789, 181.309 297.541 C 174.775 299.102, 172.521 299.280, 175.500 298 C 177.105 297.310, 177.170 297.127, 175.827 297.070 C 174.906 297.032, 172.769 295.835, 171.077 294.411 C 167.257 291.197, 167.010 292.163, 170.750 295.687 C 173.027 297.833, 173.117 298.079, 171.273 297.116 C 170.048 296.477, 168.633 295.177, 168.129 294.227 C 167.624 293.277, 167.141 278.864, 167.054 262.197 C 166.967 245.530, 166.647 231.243, 166.341 230.447 C 165.902 229.301, 163.405 229, 154.344 229 L 142.901 229 143.201 262.750 M 154.234 230.728 L 164.969 231.067 165.259 259.284 L 165.548 287.500 165.524 259 L 165.500 230.500 154.500 230.444 L 143.500 230.388 154.234 230.728 M 203.287 230.740 C 206.469 230.939, 211.419 230.937, 214.287 230.736 C 217.154 230.535, 214.550 230.372, 208.500 230.374 C 202.450 230.376, 200.104 230.541, 203.287 230.740 M 106.083 231.365 C 106.313 231.565, 107.625 232.265, 109 232.920 C 111.357 234.042, 111.389 234.022, 109.559 232.555 C 107.966 231.279, 104.711 230.164, 106.083 231.365 M 273.441 232.555 C 271.611 234.022, 271.643 234.042, 274 232.920 C 277.061 231.462, 277.628 231, 276.358 231 C 275.821 231, 274.509 231.700, 273.441 232.555 M 301.083 231.365 C 301.313 231.565, 302.625 232.265, 304 232.920 C 306.357 234.042, 306.389 234.022, 304.559 232.555 C 302.966 231.279, 299.711 230.164, 301.083 231.365 M 114.035 236.616 C 115.391 238.330, 117.069 240.580, 117.764 241.616 C 118.510 242.728, 118.450 242.270, 117.617 240.498 C 116.840 238.846, 115.162 236.596, 113.888 235.498 C 111.650 233.568, 111.655 233.606, 114.035 236.616 M 119.170 245 C 119.186 245.825, 119.560 247.625, 120 249 C 120.644 251.010, 120.806 251.108, 120.830 249.500 C 120.846 248.400, 120.473 246.600, 120 245.500 C 119.473 244.275, 119.152 244.081, 119.170 245 M 280 244.969 C 280 245.501, 279.366 245.694, 278.590 245.396 C 276.792 244.706, 272.082 247.127, 269.498 250.070 C 268.399 251.320, 268.063 252.015, 268.750 251.613 C 270.483 250.599, 270.324 251.337, 267.932 255.390 C 266.371 258.036, 265.659 261.663, 265.024 270.197 C 264.562 276.414, 264.367 281.688, 264.592 281.917 C 264.816 282.146, 265.015 281.471, 265.033 280.417 C 265.051 279.363, 265.890 280.887, 266.897 283.804 C 268.924 289.672, 273.173 294.754, 276.817 295.669 C 278.602 296.117, 278.857 296.479, 277.845 297.131 C 276.984 297.685, 277.580 297.833, 279.500 297.540 C 281.150 297.289, 284.142 296.828, 286.149 296.516 C 290.708 295.806, 294.474 292.900, 296.978 288.160 C 298.042 286.147, 298.931 284.996, 298.956 285.602 C 299.036 287.599, 294.514 293.411, 291.078 295.726 C 289.223 296.977, 288.205 298, 288.817 298 C 292.643 298, 301.071 286.469, 300.878 281.500 C 300.811 279.772, 300.712 279.814, 300.150 281.814 C 299.793 283.086, 299.500 279.036, 299.500 272.814 C 299.500 259.657, 298.312 255.379, 293.253 250.320 C 291.103 248.169, 290.543 247.220, 291.834 247.911 C 293.004 248.537, 295.095 250.718, 296.481 252.757 C 297.866 254.796, 299 256.065, 299 255.577 C 299 255.088, 297.852 253.183, 296.448 251.343 C 293.571 247.571, 288.528 244.583, 286.410 245.396 C 285.634 245.694, 285 245.501, 285 244.969 C 285 244.436, 283.875 244, 282.500 244 C 281.125 244, 280 244.436, 280 244.969 M 74.306 248.592 L 71.500 251.183 75 248.916 C 79.557 245.963, 79.516 246, 78.222 246 C 77.611 246, 75.849 247.166, 74.306 248.592 M 95.284 249.926 C 96.778 251.701, 98.036 254.131, 98.079 255.327 C 98.122 256.522, 98.392 256.915, 98.679 256.199 C 99.471 254.224, 96.991 249.066, 94.647 247.811 C 92.910 246.882, 93.015 247.229, 95.284 249.926 M 271.861 249.059 L 269.500 251.119 272.250 249.444 C 273.762 248.523, 275 247.597, 275 247.385 C 275 246.604, 274.165 247.050, 271.861 249.059 M 318.031 247.500 C 318.031 248.050, 318.467 249.175, 319 250 C 319.533 250.825, 319.969 251.050, 319.969 250.500 C 319.969 249.950, 319.533 248.825, 319 248 C 318.467 247.175, 318.031 246.950, 318.031 247.500 M 265.954 255.086 C 265.340 256.233, 265.026 257.360, 265.257 257.590 C 265.487 257.820, 266.189 256.882, 266.816 255.504 C 268.194 252.480, 267.523 252.154, 265.954 255.086 M 68.158 260 C 68.158 261.375, 68.385 261.938, 68.662 261.250 C 68.940 260.563, 68.940 259.438, 68.662 258.750 C 68.385 258.063, 68.158 258.625, 68.158 260 M 264.158 261 C 264.158 262.375, 264.385 262.938, 264.662 262.250 C 264.940 261.563, 264.940 260.438, 264.662 259.750 C 264.385 259.063, 264.158 259.625, 264.158 261 M 300.158 262 C 300.158 263.375, 300.385 263.938, 300.662 263.250 C 300.940 262.563, 300.940 261.438, 300.662 260.750 C 300.385 260.063, 300.158 260.625, 300.158 262 M 263.310 270.500 C 263.315 273.800, 263.502 275.029, 263.725 273.232 C 263.947 271.435, 263.943 268.735, 263.715 267.232 C 263.486 265.729, 263.304 267.200, 263.310 270.500 M 301.320 272 C 301.320 275.575, 301.502 277.038, 301.723 275.250 C 301.945 273.462, 301.945 270.538, 301.723 268.750 C 301.502 266.962, 301.320 268.425, 301.320 272 M 322.252 279.500 C 322.263 281.700, 322.468 282.482, 322.707 281.238 C 322.946 279.994, 322.937 278.194, 322.687 277.238 C 322.437 276.282, 322.241 277.300, 322.252 279.500 M 265.022 283.816 C 265.010 284.539, 265.503 286.114, 266.118 287.316 C 267.486 289.987, 274.090 297, 275.238 297 C 275.695 297, 274.408 295.541, 272.378 293.759 C 270.347 291.976, 267.867 288.713, 266.865 286.509 C 265.863 284.304, 265.034 283.092, 265.022 283.816 M 144.272 290 C 144.272 292.475, 144.467 293.488, 144.706 292.250 C 144.944 291.012, 144.944 288.988, 144.706 287.750 C 144.467 286.512, 144.272 287.525, 144.272 290 M 317.144 296.750 C 316.053 299.300, 316.078 299.359, 317.484 297.559 C 318.318 296.491, 319 295.254, 319 294.809 C 319 293.289, 318.322 293.999, 317.144 296.750 M 282.269 298.693 C 283.242 298.947, 284.592 298.930, 285.269 298.656 C 285.946 298.382, 285.150 298.175, 283.500 298.195 C 281.850 298.215, 281.296 298.439, 282.269 298.693 M 195.437 305.100 C 193.822 306.806, 190.250 309.501, 187.500 311.091 C 184.750 312.681, 182.974 313.985, 183.554 313.991 C 185.137 314.005, 193.218 308.622, 195.500 306.034 L 197.500 303.766 198.087 309.133 L 198.674 314.500 198.837 308.250 C 198.927 304.813, 198.859 302, 198.687 302 C 198.515 302, 197.052 303.395, 195.437 305.100 M 35.002 333.350 C 35 335.748, 41.252 342, 43.650 341.998 C 44.822 341.997, 44.218 341.357, 42 340.248 C 39.998 339.248, 37.752 337.002, 36.752 335 C 35.643 332.782, 35.003 332.178, 35.002 333.350 M 327 335.272 C 326.150 337.101, 323.984 339.257, 322 340.248 C 319.782 341.357, 319.178 341.997, 320.350 341.998 C 322.618 342, 329 335.804, 329 333.600 C 329 331.352, 328.708 331.597, 327 335.272" stroke="none" fill="#ffffff" fill-rule="evenodd"/><path d="M 12 85.926 L 12 143 24 143 L 36 143 36 122 L 36 101 45.750 100.974 C 60.177 100.936, 74.542 99.301, 79.311 97.154 C 87.958 93.261, 94.563 86.254, 97.622 77.725 C 99.960 71.206, 99.666 56.819, 97.052 49.853 C 94.251 42.389, 88.285 35.778, 81.214 32.306 L 75.500 29.500 43.750 29.176 L 12 28.851 12 85.926 M 36 64.476 L 36 80.261 49.297 79.810 C 59.743 79.456, 63.438 78.945, 66.533 77.429 C 74.575 73.492, 77.450 63.975, 72.737 56.898 C 69.028 51.330, 64.978 50.001, 49.589 49.306 L 36 48.692 36 64.476 M 143.698 59.096 C 132.398 61.755, 122.287 69.736, 117.121 80.074 C 113.066 88.188, 111.627 95.805, 112.310 105.543 C 113.953 128.993, 128.478 143.317, 152.055 144.739 C 165.758 145.566, 176.545 141.471, 185.288 132.123 C 193.370 123.483, 196.972 114.035, 196.989 101.432 C 197.012 84.572, 189.564 71.092, 175.955 63.362 C 167.715 58.682, 153.465 56.797, 143.698 59.096 M 243.198 60.250 C 240.933 61.487, 237.712 64.249, 236.040 66.388 L 233 70.275 233 65.138 L 233 60 222.500 60 L 212 60 212 101.533 L 212 143.066 223.250 142.783 L 234.500 142.500 235.003 117 C 235.464 93.589, 235.682 91.117, 237.665 86.821 C 241.027 79.538, 247.037 77.317, 254.709 80.523 C 256.714 81.361, 258.722 81.678, 259.171 81.229 C 260.473 79.927, 266.014 62.832, 265.437 61.898 C 264.623 60.581, 255.047 58, 250.976 58 C 248.962 58, 245.462 59.013, 243.198 60.250 M 312 59.604 C 307.108 61.376, 303.041 63.907, 298.750 67.848 L 296 70.374 296 65.187 L 296 60 285.500 60 L 275 60 275 101.500 L 275 143 285.883 143 L 296.766 143 297.187 116.750 C 297.570 92.888, 297.797 90.082, 299.677 85.910 C 302.434 79.793, 307.524 76.616, 314.672 76.549 C 319.305 76.506, 320.348 76.891, 323.124 79.665 C 327.418 83.955, 327.869 87.525, 327.940 117.750 L 328 143 339 143 L 350 143 350 111.659 C 350 77.545, 349.561 74.047, 344.441 67.334 C 338.657 59.750, 322.335 55.861, 312 59.604 M 148.655 78.459 C 140.722 81.287, 135.983 88.564, 135.228 99.075 C 134.519 108.955, 136.831 115.801, 142.590 120.870 C 151.978 129.134, 164.349 127.067, 170.759 116.163 C 173.253 111.919, 173.500 110.601, 173.500 101.500 C 173.500 88.224, 170.857 83.248, 161.500 78.902 C 156.767 76.704, 153.859 76.603, 148.655 78.459 M 35 166.079 C 28.959 168.810, 24.252 173.451, 21.387 179.500 L 19.020 184.500 19.032 261 C 19.044 335.779, 19.090 337.601, 21.079 342 C 23.810 348.041, 28.451 352.748, 34.500 355.613 L 39.500 357.980 182 357.980 L 324.500 357.980 329.500 355.613 C 335.549 352.748, 340.190 348.041, 342.921 342 C 344.911 337.600, 344.956 335.793, 344.956 261 C 344.956 186.207, 344.911 184.400, 342.921 180 C 340.190 173.959, 335.549 169.252, 329.500 166.387 L 324.500 164.020 182 164.032 C 40.846 164.044, 39.457 164.063, 35 166.079 M 38.400 183.400 C 36.530 185.270, 35.001 187.633, 35.002 188.650 C 35.003 189.822, 35.643 189.218, 36.752 187 C 37.752 184.998, 39.998 182.752, 42 181.752 C 44.218 180.643, 44.822 180.003, 43.650 180.002 C 42.633 180.001, 40.270 181.530, 38.400 183.400 M 322 181.752 C 324.002 182.752, 326.248 184.998, 327.248 187 C 328.357 189.218, 328.997 189.822, 328.998 188.650 C 329 186.252, 322.748 180, 320.350 180.002 C 319.178 180.003, 319.782 180.643, 322 181.752 M 46.250 197.662 C 45.270 198.058, 45 210.636, 45 255.833 L 45 313.500 57 313.500 L 69 313.500 69.024 288.500 C 69.046 265.685, 69.420 260.443, 71.454 254.500 C 71.912 253.160, 71.632 253.325, 70.605 255 C 69.761 256.375, 69.055 257.024, 69.035 256.441 C 69.016 255.859, 69.661 254.509, 70.468 253.441 C 71.276 252.374, 71.951 251.884, 71.968 252.354 C 71.986 252.823, 73.591 251.811, 75.535 250.104 C 77.479 248.397, 79.841 246.993, 80.785 246.985 C 82.103 246.973, 82.192 246.774, 81.169 246.126 C 80.233 245.532, 80.789 245.092, 83.044 244.641 C 87.425 243.765, 89.040 244.008, 86 245.086 C 83.951 245.812, 84.189 245.893, 87.320 245.537 C 92.208 244.982, 95.454 246.237, 97.602 249.515 C 99.129 251.846, 99.285 255.332, 99.088 282.809 L 98.868 313.500 111.015 313.500 L 123.162 313.500 122.816 281 C 122.479 249.305, 122.411 248.369, 120.093 243.206 C 115.915 233.902, 104.747 226.976, 96.148 228.357 C 93.611 228.765, 92.957 228.649, 94 227.978 C 95.015 227.326, 93.882 227.209, 90.500 227.618 C 84.713 228.318, 74.586 232.522, 75.424 233.877 C 76.029 234.857, 69.596 241, 67.965 241 C 67.368 241, 67.084 232.891, 67.219 219.750 L 67.439 198.500 67.969 219.142 L 68.500 239.785 71.962 236.892 C 73.866 235.302, 75.020 234, 74.527 234 C 74.033 234, 72.587 234.978, 71.314 236.174 L 69 238.349 69 218.281 C 69 200.905, 68.788 198.133, 67.418 197.607 C 65.545 196.888, 48.055 196.934, 46.250 197.662 M 242.250 197.646 C 241.270 198.054, 241 210.645, 240.999 255.833 L 240.998 313.500 251.749 313.500 L 262.500 313.500 262.160 307.137 C 261.901 302.304, 262.127 300.876, 263.097 301.199 C 263.800 301.433, 264.574 302.222, 264.817 302.952 C 265.115 303.844, 264.807 304.016, 263.880 303.478 C 263.121 303.038, 263.625 303.938, 265 305.480 C 267.708 308.515, 275.738 314.006, 277.446 313.991 C 278.026 313.985, 276.250 312.688, 273.500 311.107 C 270.750 309.526, 267.600 307.183, 266.500 305.901 C 264.958 304.104, 265.301 304.227, 268 306.440 C 272.531 310.156, 280.686 313.946, 284.500 314.109 L 287.500 314.237 284.500 314.964 C 282.417 315.469, 283.792 315.691, 289 315.691 C 294.596 315.690, 295.611 315.508, 293 314.976 L 289.500 314.263 293 314.122 C 298.331 313.907, 306.441 309.646, 311.692 304.302 C 314.576 301.368, 315.596 300.667, 314.314 302.500 C 311.523 306.490, 309.383 308.339, 304 311.409 C 301.525 312.821, 299.974 313.981, 300.554 313.988 C 301.134 313.995, 303.642 312.710, 306.127 311.134 C 314.858 305.598, 322.500 293.513, 321.478 286.862 C 321.113 284.482, 321.211 284.071, 321.815 285.453 C 322.556 287.147, 322.757 286.965, 323.334 284.078 C 323.700 282.248, 323.941 275.969, 323.868 270.125 C 323.779 262.912, 323.505 260.624, 323.015 263 C 322.465 265.669, 322.306 264.838, 322.345 259.500 C 322.387 253.766, 321.902 251.544, 319.663 247.214 C 316.791 241.660, 310.473 234, 308.763 234 C 308.211 234, 309.580 235.767, 311.805 237.927 C 314.030 240.086, 316.359 242.899, 316.981 244.177 C 317.775 245.810, 317.427 245.609, 315.812 243.500 C 314.547 241.850, 312.160 239.251, 310.506 237.725 C 308.853 236.199, 307.500 234.402, 307.500 233.731 C 307.500 232.113, 297.779 228.408, 291.500 227.632 C 288.283 227.234, 287.016 227.343, 287.948 227.938 C 288.900 228.546, 287.966 228.671, 285.221 228.303 C 281.960 227.865, 279.859 228.324, 275.626 230.394 C 272.646 231.853, 269.598 233.823, 268.853 234.773 C 267.606 236.364, 267.657 236.385, 269.500 235.038 C 270.600 234.234, 270.178 235.022, 268.563 236.788 C 263.158 242.698, 262.977 242.102, 263.228 219.250 L 263.456 198.500 263.749 218.750 C 263.910 229.887, 264.427 239, 264.898 239 C 265.370 239, 266.373 238.241, 267.128 237.313 C 268.328 235.837, 268.283 235.707, 266.771 236.273 C 265.174 236.871, 265.021 235.412, 264.771 217.211 L 264.500 197.500 254 197.312 C 248.225 197.209, 242.938 197.359, 242.250 197.646 M 46.468 256 C 46.468 287.625, 46.595 300.562, 46.749 284.750 C 46.904 268.937, 46.904 243.062, 46.749 227.250 C 46.595 211.437, 46.468 224.375, 46.468 256 M 242.468 256 C 242.468 287.625, 242.595 300.562, 242.749 284.750 C 242.904 268.937, 242.904 243.062, 242.749 227.250 C 242.595 211.437, 242.468 224.375, 242.468 256 M 143.201 262.750 C 143.487 295.033, 143.595 296.706, 145.690 301.243 C 146.895 303.851, 149.145 307.160, 150.690 308.595 C 153.778 311.464, 160.183 315.013, 162.210 314.978 C 162.920 314.966, 161.475 314.039, 159 312.919 C 152.561 310.004, 145.857 302.959, 146.040 299.300 C 146.062 298.860, 146.792 299.850, 147.662 301.500 C 148.531 303.150, 150.201 305.572, 151.372 306.882 C 154.051 309.881, 162.548 313.940, 166.500 314.109 L 169.500 314.237 166.500 314.976 C 164.397 315.495, 165.743 315.712, 171 315.704 C 176.630 315.695, 177.752 315.491, 175.500 314.885 C 173.129 314.248, 173.549 314.148, 177.500 314.410 C 180.250 314.593, 181.907 314.527, 181.182 314.265 C 180.457 314.003, 182.120 312.743, 184.877 311.466 C 187.634 310.188, 191.877 307.311, 194.306 305.072 C 196.736 302.832, 199.011 301, 199.362 301 C 199.713 301, 199.915 303.813, 199.811 307.250 L 199.622 313.500 199.260 307.722 C 199.061 304.545, 198.584 302.139, 198.199 302.375 C 197.815 302.612, 197.647 305.212, 197.827 308.153 L 198.154 313.500 209.076 313.500 L 219.997 313.500 219.999 271.250 L 220 229 208.750 228.999 L 197.500 228.998 197.606 256.249 C 197.668 272.351, 197.406 281.045, 196.967 277.500 L 196.222 271.500 196.245 279.500 C 196.258 283.900, 196.208 288.047, 196.134 288.715 C 195.952 290.365, 190.048 297, 188.762 297 C 188.194 297, 188.925 296.060, 190.385 294.912 C 192.891 292.941, 196.053 288.053, 195.956 286.300 C 195.931 285.860, 195.023 287.182, 193.938 289.239 C 191.456 293.939, 188.643 295.789, 181.309 297.541 C 174.775 299.102, 172.521 299.280, 175.500 298 C 177.105 297.310, 177.170 297.127, 175.827 297.070 C 174.906 297.032, 172.769 295.835, 171.077 294.411 C 167.257 291.197, 167.010 292.163, 170.750 295.687 C 173.027 297.833, 173.117 298.079, 171.273 297.116 C 170.048 296.477, 168.633 295.177, 168.129 294.227 C 167.624 293.277, 167.141 278.864, 167.054 262.197 C 166.967 245.530, 166.647 231.243, 166.341 230.447 C 165.902 229.301, 163.405 229, 154.344 229 L 142.901 229 143.201 262.750 M 154.234 230.728 L 164.969 231.067 165.259 259.284 L 165.548 287.500 165.524 259 L 165.500 230.500 154.500 230.444 L 143.500 230.388 154.234 230.728 M 203.287 230.740 C 206.469 230.939, 211.419 230.937, 214.287 230.736 C 217.154 230.535, 214.550 230.372, 208.500 230.374 C 202.450 230.376, 200.104 230.541, 203.287 230.740 M 106.083 231.365 C 106.313 231.565, 107.625 232.265, 109 232.920 C 111.357 234.042, 111.389 234.022, 109.559 232.555 C 107.966 231.279, 104.711 230.164, 106.083 231.365 M 273.441 232.555 C 271.611 234.022, 271.643 234.042, 274 232.920 C 277.061 231.462, 277.628 231, 276.358 231 C 275.821 231, 274.509 231.700, 273.441 232.555 M 301.083 231.365 C 301.313 231.565, 302.625 232.265, 304 232.920 C 306.357 234.042, 306.389 234.022, 304.559 232.555 C 302.966 231.279, 299.711 230.164, 301.083 231.365 M 114.035 236.616 C 115.391 238.330, 117.069 240.580, 117.764 241.616 C 118.510 242.728, 118.450 242.270, 117.617 240.498 C 116.840 238.846, 115.162 236.596, 113.888 235.498 C 111.650 233.568, 111.655 233.606, 114.035 236.616 M 119.170 245 C 119.186 245.825, 119.560 247.625, 120 249 C 120.644 251.010, 120.806 251.108, 120.830 249.500 C 120.846 248.400, 120.473 246.600, 120 245.500 C 119.473 244.275, 119.152 244.081, 119.170 245 M 281.269 244.693 C 282.242 244.947, 283.592 244.930, 284.269 244.656 C 284.946 244.382, 284.150 244.175, 282.500 244.195 C 280.850 244.215, 280.296 244.439, 281.269 244.693 M 273.171 247.047 C 271.702 247.943, 269.825 249.510, 269 250.530 C 268.136 251.598, 268.030 252.066, 268.750 251.633 C 270.486 250.590, 270.323 251.338, 267.932 255.390 C 266.371 258.036, 265.659 261.663, 265.024 270.197 C 264.562 276.414, 264.367 281.687, 264.592 281.917 C 264.816 282.146, 265.015 281.471, 265.033 280.417 C 265.051 279.362, 265.890 280.887, 266.897 283.804 C 268.924 289.672, 273.173 294.754, 276.817 295.669 C 278.602 296.117, 278.857 296.479, 277.845 297.131 C 276.984 297.685, 277.580 297.833, 279.500 297.540 C 281.150 297.289, 284.142 296.828, 286.149 296.516 C 290.708 295.806, 294.474 292.900, 296.978 288.160 C 298.042 286.147, 298.931 284.996, 298.956 285.602 C 299.036 287.599, 294.514 293.411, 291.078 295.726 C 289.223 296.977, 288.205 298, 288.817 298 C 292.643 298, 301.071 286.469, 300.878 281.500 C 300.811 279.772, 300.712 279.814, 300.150 281.814 C 299.793 283.086, 299.500 279.036, 299.500 272.814 C 299.500 259.657, 298.312 255.379, 293.253 250.320 C 291.103 248.169, 290.543 247.220, 291.834 247.911 C 293.004 248.537, 295.095 250.718, 296.481 252.757 C 297.866 254.796, 299 256.065, 299 255.577 C 299 254.048, 294.022 248.082, 291.718 246.849 C 288.256 244.996, 276.325 245.123, 273.171 247.047 M 74.306 248.592 L 71.500 251.183 75 248.916 C 79.557 245.963, 79.516 246, 78.222 246 C 77.611 246, 75.849 247.166, 74.306 248.592 M 95.284 249.926 C 96.778 251.701, 98.036 254.131, 98.079 255.327 C 98.122 256.522, 98.392 256.915, 98.679 256.199 C 99.471 254.224, 96.991 249.066, 94.647 247.811 C 92.910 246.882, 93.015 247.229, 95.284 249.926 M 271.861 249.059 L 269.500 251.119 272.250 249.444 C 273.762 248.523, 275 247.597, 275 247.385 C 275 246.604, 274.165 247.050, 271.861 249.059 M 318.031 247.500 C 318.031 248.050, 318.467 249.175, 319 250 C 319.533 250.825, 319.969 251.050, 319.969 250.500 C 319.969 249.950, 319.533 248.825, 319 248 C 318.467 247.175, 318.031 246.950, 318.031 247.500 M 265.954 255.086 C 265.340 256.233, 265.026 257.360, 265.257 257.590 C 265.487 257.820, 266.189 256.882, 266.816 255.504 C 268.194 252.480, 267.523 252.154, 265.954 255.086 M 121.443 283.500 C 121.443 300, 121.580 306.890, 121.748 298.812 C 121.915 290.733, 121.916 277.233, 121.748 268.812 C 121.581 260.390, 121.444 267, 121.443 283.500 M 68.158 260 C 68.158 261.375, 68.385 261.938, 68.662 261.250 C 68.940 260.563, 68.940 259.438, 68.662 258.750 C 68.385 258.063, 68.158 258.625, 68.158 260 M 264.158 261 C 264.158 262.375, 264.385 262.938, 264.662 262.250 C 264.940 261.563, 264.940 260.438, 264.662 259.750 C 264.385 259.063, 264.158 259.625, 264.158 261 M 100.438 286.500 C 100.437 301.350, 100.576 307.564, 100.747 300.310 C 100.918 293.055, 100.918 280.905, 100.748 273.310 C 100.578 265.714, 100.438 271.650, 100.438 286.500 M 300.158 262 C 300.158 263.375, 300.385 263.938, 300.662 263.250 C 300.940 262.563, 300.940 261.438, 300.662 260.750 C 300.385 260.063, 300.158 260.625, 300.158 262 M 67.432 289 C 67.432 302.475, 67.574 307.988, 67.747 301.250 C 67.920 294.512, 67.920 283.488, 67.747 276.750 C 67.574 270.012, 67.432 275.525, 67.432 289 M 263.310 270.500 C 263.315 273.800, 263.502 275.029, 263.725 273.232 C 263.947 271.435, 263.943 268.735, 263.715 267.232 C 263.486 265.729, 263.304 267.200, 263.310 270.500 M 301.320 272 C 301.320 275.575, 301.502 277.038, 301.723 275.250 C 301.945 273.462, 301.945 270.538, 301.723 268.750 C 301.502 266.962, 301.320 268.425, 301.320 272 M 322.252 279.500 C 322.263 281.700, 322.468 282.482, 322.707 281.238 C 322.946 279.994, 322.937 278.194, 322.687 277.238 C 322.437 276.282, 322.241 277.300, 322.252 279.500 M 265.022 283.816 C 265.010 284.539, 265.503 286.114, 266.118 287.316 C 267.486 289.987, 274.090 297, 275.238 297 C 275.695 297, 274.408 295.541, 272.378 293.759 C 270.347 291.976, 267.867 288.713, 266.865 286.509 C 265.863 284.304, 265.034 283.092, 265.022 283.816 M 144.272 290 C 144.272 292.475, 144.467 293.488, 144.706 292.250 C 144.944 291.012, 144.944 288.988, 144.706 287.750 C 144.467 286.512, 144.272 287.525, 144.272 290 M 317.144 296.750 C 316.053 299.300, 316.078 299.359, 317.484 297.559 C 318.318 296.491, 319 295.254, 319 294.809 C 319 293.289, 318.322 293.999, 317.144 296.750 M 282.269 298.693 C 283.242 298.947, 284.592 298.930, 285.269 298.656 C 285.946 298.382, 285.150 298.175, 283.500 298.195 C 281.850 298.215, 281.296 298.439, 282.269 298.693 M 194.405 306.116 C 193.357 307.280, 190.250 309.526, 187.500 311.107 C 184.750 312.688, 182.974 313.985, 183.554 313.991 C 185.099 314.004, 193.192 308.651, 195.405 306.151 C 196.453 304.968, 197.085 304, 196.810 304 C 196.535 304, 195.453 304.952, 194.405 306.116 M 35.002 333.350 C 35 335.748, 41.252 342, 43.650 341.998 C 44.822 341.997, 44.218 341.357, 42 340.248 C 39.998 339.248, 37.752 337.002, 36.752 335 C 35.643 332.782, 35.003 332.178, 35.002 333.350 M 327 335.272 C 326.150 337.101, 323.984 339.257, 322 340.248 C 319.782 341.357, 319.178 341.997, 320.350 341.998 C 322.618 342, 329 335.804, 329 333.600 C 329 331.352, 328.708 331.597, 327 335.272" stroke="none" fill="#000000" fill-rule="evenodd"/></svg>