<svg xmlns="http://www.w3.org/2000/svg" width="362" height="362" viewBox="0 0 362 362" version="1.1">
    <path d="M 12 85.926 L 12 143 24 143 L 36 143 36 122 L 36 101 45.750 100.974 L 55.500 100.948 65.311 99.994 L 75.121 99.040 79.311 97.154 L 83.500 95.268 87.431 92.099 L 91.363 88.930 93.735 85.440 L 96.107 81.949 97.622 77.725 L 99.138 73.500 99.154 64.500 L 99.171 55.500 97.052 49.853 L 94.933 44.206 90.931 39.659 L 86.929 35.112 81.214 32.306 L 75.500 29.500 43.750 29.176 L 12 28.851 12 85.926 M 36 64.476 L 36 80.261 49.297 79.810 L 62.593 79.359 66.533 77.429 L 70.474 75.500 72.737 72.102 L 75 68.704 75 64.500 L 75 60.296 72.737 56.898 L 70.474 53.500 66.825 51.710 L 63.177 49.920 49.589 49.306 L 36 48.692 36 64.476 M 143.698 59.096 L 139.897 59.990 134.624 62.485 L 129.350 64.980 124.732 69.533 L 120.113 74.086 117.121 80.074 L 114.129 86.061 112.938 91.781 L 111.746 97.500 112.310 105.543 L 112.873 113.587 115.021 119.326 L 117.168 125.065 120.363 129.253 L 123.558 133.442 127.747 136.637 L 131.935 139.832 137.718 142.028 L 143.500 144.223 152.055 144.739 L 160.610 145.255 166.147 143.646 L 171.683 142.036 176.223 139.499 L 180.762 136.962 185.288 132.123 L 189.814 127.284 191.995 123.011 L 194.175 118.737 195.577 114.119 L 196.978 109.500 196.989 101.432 L 197 93.363 195.391 87.932 L 193.782 82.500 191.342 78.328 L 188.902 74.156 184.613 70.001 L 180.325 65.845 175.955 63.362 L 171.584 60.880 165.542 59.455 L 159.500 58.030 153.500 58.115 L 147.500 58.201 143.698 59.096 M 243.198 60.250 L 239.081 62.500 236.040 66.388 L 233 70.275 233 65.138 L 233 60 222.500 60 L 212 60 212 101.533 L 212 143.066 223.250 142.783 L 234.500 142.500 235.003 117 L 235.505 91.500 237.665 86.821 L 239.825 82.142 242.863 80.571 L 245.901 79 248.482 79 L 251.064 79 254.709 80.523 L 258.354 82.046 259.171 81.229 L 259.987 80.413 262.974 71.578 L 265.960 62.744 265.437 61.898 L 264.914 61.052 259.776 59.526 L 254.637 58 250.976 58 L 247.315 58 243.198 60.250 M 312 59.604 L 307.500 61.234 304.500 63.278 L 301.500 65.322 298.750 67.848 L 296 70.374 296 65.187 L 296 60 285.500 60 L 275 60 275 101.500 L 275 143 285.883 143 L 296.766 143 297.187 116.750 L 297.608 90.500 299.677 85.910 L 301.746 81.320 305.566 78.959 L 309.386 76.598 314.672 76.549 L 319.958 76.500 323.124 79.665 L 326.291 82.830 327.086 87.665 L 327.881 92.500 327.940 117.750 L 328 143 339 143 L 350 143 350 111.659 L 350 80.318 348.584 75.614 L 347.169 70.910 344.441 67.334 L 341.714 63.758 336.162 61.216 L 330.609 58.675 323.555 58.324 L 316.500 57.974 312 59.604 M 148.655 78.459 L 144.810 79.830 142.308 82.165 L 139.805 84.500 137.753 88.500 L 135.700 92.500 135.228 99.075 L 134.756 105.650 136.382 111.244 L 138.009 116.838 142.590 120.870 L 147.172 124.903 151.573 125.563 L 155.974 126.223 158.737 125.534 L 161.500 124.844 164.759 122.835 L 168.018 120.826 170.759 116.163 L 173.500 111.500 173.500 101.500 L 173.500 91.500 171.739 88.279 L 169.979 85.058 167.739 82.909 L 165.500 80.759 161.500 78.902 L 157.500 77.044 155 77.066 L 152.500 77.088 148.655 78.459 M 36 166.077 L 31.500 168.109 27.630 171.805 L 23.761 175.500 21.390 180.500 L 19.020 185.500 19.032 261 L 19.044 336.500 21.077 341 L 23.109 345.500 26.805 349.370 L 30.500 353.239 35.500 355.610 L 40.500 357.980 182 357.980 L 323.500 357.980 328.500 355.610 L 333.500 353.239 337.195 349.370 L 340.891 345.500 342.923 341 L 344.956 336.500 344.956 261 L 344.956 185.500 342.923 181 L 340.891 176.500 337.195 172.630 L 333.500 168.761 328.500 166.390 L 323.500 164.020 182 164.032 L 40.500 164.044 36 166.077 M 38.400 183.400 L 35 186.800 35 261 L 35 335.200 38.400 338.600 L 41.800 342 182 342 L 322.200 342 325.600 338.600 L 329 335.200 329 261 L 329 186.800 325.600 183.400 L 322.200 180 182 180 L 41.800 180 38.400 183.400 M 46.242 256.250 L 46.500 313.500 57 313.500 L 67.500 313.500 68 286 L 68.500 258.500 70.719 254.351 L 72.938 250.202 76.219 248.207 L 79.500 246.211 83.581 245.546 L 87.663 244.881 91.870 246.565 L 96.077 248.248 97.788 251.374 L 99.500 254.500 100 284 L 100.500 313.500 111 313.500 L 121.500 313.500 121.500 281 L 121.500 248.500 118.871 242.893 L 116.242 237.286 112.802 234.663 L 109.363 232.039 104.931 230.459 L 100.500 228.878 94.345 228.827 L 88.189 228.776 83.345 230.391 L 78.500 232.006 73.250 235.988 L 68 239.969 68 219.485 L 68 199 56.992 199 L 45.984 199 46.242 256.250 M 242.242 256.250 L 242.500 313.500 252.500 313.500 L 262.500 313.500 262.805 308.183 L 263.109 302.866 267.185 306.548 L 271.260 310.230 276.622 312.685 L 281.985 315.140 289.176 315.117 L 296.366 315.094 302.641 312.005 L 308.916 308.916 312.486 304.745 L 316.056 300.575 318.492 295.425 L 320.928 290.276 321.939 285.888 L 322.951 281.500 322.976 270.855 L 323 260.211 321.024 253.813 L 319.048 247.415 316.058 242.902 L 313.069 238.388 308.583 235.167 L 304.097 231.946 299.807 230.432 L 295.517 228.918 289.451 228.815 L 283.385 228.711 278.333 230.389 L 273.281 232.067 269.232 235.534 L 265.182 239 264.591 239 L 264 239 264 219 L 264 199 252.992 199 L 241.984 199 242.242 256.250 M 144 261.285 L 144 292.637 145.556 297.878 L 147.113 303.119 150.565 306.940 L 154.017 310.761 159.073 312.936 L 164.129 315.111 171.603 315.111 L 179.078 315.111 184.464 312.645 L 189.850 310.179 194.373 306.010 L 198.895 301.842 199.198 307.671 L 199.500 313.500 209.250 313.786 L 219 314.072 219 272.002 L 219 229.932 208.250 230.216 L 197.500 230.500 197 258.500 L 196.500 286.500 194.770 289.662 L 193.040 292.823 190.389 294.908 L 187.739 296.993 183.786 298.058 L 179.833 299.122 176.666 298.433 L 173.500 297.744 171.658 296.464 L 169.817 295.183 168.158 292.842 L 166.500 290.500 166 260.500 L 165.500 230.500 154.750 230.216 L 144 229.932 144 261.285 M 276.030 246.583 L 272.560 248.089 270.673 249.794 L 268.787 251.500 266.669 255.500 L 264.551 259.500 264.525 270 L 264.500 280.500 265.856 284.336 L 267.212 288.172 270.340 291.735 L 273.469 295.298 276.702 296.649 L 279.936 298 283.518 298 L 287.099 298 289.931 296.536 L 292.762 295.072 295.356 291.988 L 297.951 288.905 299.475 283.771 L 301 278.637 300.976 272.068 L 300.951 265.500 299.926 261 L 298.902 256.500 296.385 252.671 L 293.868 248.843 289.684 246.943 L 285.500 245.044 282.500 245.061 L 279.500 245.078 276.030 246.583" stroke="none" fill="#000000" fill-rule="evenodd"/>
</svg>
