<svg id="svg" xmlns="http://www.w3.org/2000/svg" xmlns:xlink="http://www.w3.org/1999/xlink" width="400" height="246.09375" viewBox="0, 0, 400,246.09375"><g id="svgg"><path id="path0" d="M362.891 4.961 C 359.230 5.360,342.446 7.940,340.039 8.474 C 337.089 9.129,334.936 10.084,332.877 11.652 C 331.634 12.598,331.488 12.620,329.752 12.134 C 324.068 10.544,325.798 10.411,297.852 14.596 L 276.367 17.813 276.256 21.825 C 276.194 24.032,276.018 25.771,275.865 25.691 C 266.334 20.705,260.337 20.206,242.969 22.954 C 232.430 24.622,208.924 28.219,199.023 29.679 C 196.016 30.123,193.162 30.572,192.682 30.678 L 191.809 30.871 191.705 41.501 L 191.602 52.132 190.301 50.104 C 183.652 39.739,170.860 34.708,155.645 36.473 C 118.597 40.771,106.492 45.259,98.116 57.802 L 96.484 60.245 96.484 52.584 C 96.484 45.258,96.451 44.922,95.726 44.922 C 94.937 44.922,87.551 46.003,61.133 49.985 C 30.544 54.596,26.064 55.930,19.727 62.312 C 12.793 69.294,10.767 76.503,10.782 94.141 C 10.799 113.532,13.216 121.190,21.615 128.459 L 23.329 129.943 16.938 130.855 L 10.547 131.767 10.549 145.669 C 10.552 164.071,11.206 168.346,14.823 173.603 L 16.055 175.393 14.900 177.833 C 10.011 188.167,8.683 219.335,12.664 230.303 C 16.551 241.012,25.635 246.669,37.401 245.710 C 56.279 244.171,68.421 241.129,72.222 236.985 C 72.891 236.256,73.333 236.062,73.784 236.299 C 78.912 239.000,84.450 239.049,100.735 236.539 C 117.771 233.913,121.838 232.541,126.906 227.707 L 128.805 225.895 131.894 227.393 C 138.507 230.600,149.043 230.627,157.617 227.459 C 159.903 226.614,160.928 226.461,163.867 226.525 C 166.409 226.580,171.038 226.055,180.583 224.629 C 187.843 223.544,194.036 222.656,194.347 222.656 C 194.657 222.656,195.421 223.667,196.045 224.902 C 198.374 229.516,202.948 232.680,208.616 233.598 C 211.434 234.054,212.046 233.986,228.516 231.378 L 245.508 228.687 245.359 217.957 L 245.211 207.227 247.670 198.926 L 250.129 190.625 252.630 190.625 C 259.469 190.625,294.304 184.970,297.228 183.385 C 298.901 182.479,299.216 182.437,301.856 182.771 C 307.792 183.523,323.275 180.973,328.348 178.407 C 330.241 177.450,330.319 177.443,333.008 178.006 C 336.421 178.720,334.870 178.898,366.195 174.191 C 380.383 172.059,392.212 170.314,392.480 170.313 C 393.102 170.312,393.180 133.619,392.567 129.688 C 392.013 126.138,389.914 122.022,387.509 119.773 C 386.430 118.764,385.547 117.885,385.547 117.821 C 385.547 117.757,388.447 117.291,391.992 116.785 L 398.438 115.865 398.438 102.701 C 398.438 87.782,398.769 89.063,394.907 89.063 L 392.612 89.062 392.484 56.738 C 392.343 20.780,392.485 22.761,389.612 16.876 C 385.181 7.801,375.687 3.567,362.891 4.961 M373.855 17.425 C 376.530 18.217,378.615 20.308,379.559 23.145 C 380.181 25.016,380.259 28.319,380.452 60.938 C 380.695 101.859,380.464 99.282,383.984 100.325 C 384.951 100.612,385.962 100.914,386.230 100.997 C 386.818 101.178,386.918 105.469,386.334 105.469 C 386.123 105.469,378.291 106.611,368.930 108.008 C 346.312 111.382,345.217 111.333,342.969 106.836 L 341.992 104.883 341.797 76.367 C 341.586 45.531,341.672 46.655,339.431 45.496 C 336.489 43.975,334.125 45.785,333.540 50.008 C 332.963 54.173,333.309 102.475,333.930 104.377 C 334.518 106.179,335.833 107.243,337.877 107.570 L 339.453 107.822 339.453 110.161 C 339.453 111.447,339.280 112.500,339.069 112.500 C 338.857 112.500,331.025 113.643,321.665 115.039 C 300.311 118.225,299.265 118.235,296.788 115.292 C 295.016 113.186,294.954 111.968,294.637 72.852 C 294.313 32.933,294.410 34.589,292.341 33.646 C 291.865 33.429,290.845 33.133,290.074 32.989 L 288.672 32.726 288.672 30.470 L 288.672 28.214 290.332 27.979 C 291.245 27.849,299.085 26.687,307.755 25.395 C 316.424 24.104,324.334 23.048,325.333 23.049 C 330.849 23.056,333.170 25.813,333.222 32.422 L 333.244 35.352 336.524 28.852 C 341.035 19.915,339.865 20.584,354.883 18.369 C 366.205 16.699,370.656 16.478,373.855 17.425 M264.105 33.602 C 269.192 34.567,273.828 37.956,275.926 42.244 C 278.343 47.184,278.245 45.741,278.488 80.273 C 278.747 117.092,278.515 115.201,282.868 115.940 L 284.570 116.229 284.687 118.454 C 284.795 120.501,284.732 120.695,283.906 120.882 C 280.488 121.654,250.441 125.900,248.242 125.922 C 242.801 125.976,240.743 123.689,240.304 117.101 L 240.039 113.118 237.534 118.477 C 233.175 127.801,231.650 128.763,218.168 130.680 C 199.059 133.397,192.252 125.239,193.548 101.172 C 194.810 77.727,199.351 73.125,225.157 69.131 C 239.345 66.935,240.234 66.581,240.234 63.126 C 240.234 58.711,238.611 58.437,224.780 60.518 C 207.406 63.133,205.562 62.626,204.294 54.877 C 203.720 51.373,203.786 41.016,204.382 41.016 C 204.765 41.016,251.974 34.042,255.469 33.470 C 257.453 33.144,262.065 33.215,264.105 33.602 M169.047 48.635 C 180.669 51.375,185.925 62.086,184.427 79.976 C 183.583 90.066,181.722 92.908,174.805 94.673 C 172.930 95.152,141.669 100.000,140.459 100.000 C 139.850 100.000,140.437 108.695,141.136 110.028 C 143.110 113.794,148.020 114.508,159.627 112.716 C 173.601 110.558,177.350 108.974,178.723 104.649 C 178.952 103.929,179.275 103.798,181.934 103.356 L 183.203 103.145 183.196 113.193 C 183.182 134.904,181.905 136.077,153.567 140.413 C 121.316 145.347,118.290 145.501,112.355 142.505 C 103.593 138.082,101.576 131.556,101.567 107.611 C 101.553 71.008,106.129 60.227,124.265 54.139 C 135.144 50.487,162.593 47.113,169.047 48.635 M84.307 68.652 C 84.171 78.944,84.131 79.177,82.092 81.362 C 80.780 82.768,78.710 83.329,70.313 84.554 C 58.725 86.246,56.250 87.288,56.250 90.479 C 56.250 93.856,56.833 94.239,71.680 100.618 C 90.341 108.636,92.683 112.307,92.052 132.562 C 91.256 158.126,88.158 161.572,62.500 165.435 C 20.461 171.763,22.698 172.579,22.668 150.916 L 22.656 142.261 24.695 141.980 C 26.415 141.744,26.798 141.808,27.137 142.387 C 29.178 145.872,29.811 145.976,39.980 144.498 C 56.206 142.141,58.984 141.008,58.984 136.747 C 58.984 132.712,58.378 132.276,46.484 127.748 C 24.976 119.559,23.293 117.438,22.765 97.852 C 22.177 75.997,25.880 69.117,40.013 65.812 C 43.991 64.882,80.804 59.113,83.331 59.023 L 84.435 58.984 84.307 68.652 M142.131 72.077 C 140.231 73.109,139.071 84.363,140.918 83.846 C 141.294 83.741,143.140 83.447,145.020 83.193 L 148.438 82.732 148.438 78.651 C 148.438 72.214,146.190 69.872,142.131 72.077 M235.938 84.348 C 232.176 85.100,231.638 86.216,231.650 93.242 C 231.666 102.637,232.802 104.123,239.014 102.881 L 240.234 102.637 240.234 93.311 L 240.234 83.984 238.770 84.029 C 237.964 84.054,236.689 84.197,235.938 84.348 M379.291 128.042 C 380.623 129.120,380.824 131.241,380.842 144.406 C 380.860 156.936,380.965 157.813,382.450 157.813 C 382.649 157.813,382.813 158.150,382.813 158.563 C 382.813 159.429,382.792 159.434,375.431 160.541 C 366.116 161.942,366.797 162.822,366.797 149.388 C 366.797 138.696,366.640 137.500,365.234 137.500 C 363.843 137.500,363.672 138.715,363.672 148.582 C 363.672 158.537,363.852 159.908,365.204 160.262 C 366.089 160.493,366.312 161.635,365.527 161.921 C 363.793 162.554,352.168 163.976,351.330 163.658 C 349.785 163.070,349.609 161.820,349.609 151.374 C 349.609 140.574,349.567 140.234,348.214 140.234 C 346.642 140.234,346.484 141.226,346.484 151.121 C 346.484 160.825,346.700 162.425,348.052 162.779 C 349.125 163.059,349.051 164.390,347.949 164.627 C 345.983 165.048,336.277 166.406,335.230 166.406 C 332.644 166.406,332.630 166.327,332.497 150.527 L 332.377 136.291 331.423 135.856 C 330.660 135.508,330.008 133.984,330.623 133.984 C 330.707 133.984,333.652 133.541,337.166 132.999 C 345.450 131.721,346.456 131.961,346.503 135.228 C 346.521 136.491,346.551 136.467,347.678 134.285 C 349.186 131.363,349.746 131.062,355.090 130.308 C 361.293 129.433,362.651 129.799,363.545 132.584 L 363.910 133.724 364.743 131.789 C 365.938 129.011,366.571 128.594,370.536 127.976 C 375.645 127.180,378.251 127.199,379.291 128.042 M324.517 136.574 C 326.837 138.270,327.136 139.596,327.275 148.828 C 327.539 166.367,326.360 167.889,310.751 170.152 C 298.242 171.966,296.842 170.875,296.558 159.089 C 296.129 141.271,297.603 138.939,310.547 136.965 C 314.092 136.424,317.432 135.899,317.969 135.798 C 320.109 135.394,323.443 135.789,324.517 136.574 M291.797 142.981 C 291.797 146.410,291.124 148.624,289.977 148.969 C 289.581 149.088,288.070 149.387,286.617 149.633 C 282.681 150.301,282.422 150.763,282.422 157.102 C 282.422 161.993,282.452 162.175,283.423 163.146 C 285.029 164.752,290.433 163.895,291.347 161.888 C 292.566 159.213,293.359 160.675,293.359 165.595 C 293.359 172.618,293.078 172.851,282.701 174.407 C 269.788 176.344,268.424 175.350,268.066 163.748 C 267.498 145.313,268.803 143.335,283.022 141.055 C 292.827 139.483,291.797 139.257,291.797 142.981 M181.229 141.901 C 183.736 143.170,183.629 141.808,183.849 175.083 C 184.065 207.556,184.068 207.611,186.064 208.124 C 187.997 208.622,188.137 211.124,186.251 211.470 C 181.924 212.264,166.140 214.453,164.751 214.452 C 161.559 214.449,159.816 212.476,159.749 208.789 C 159.730 207.765,159.552 207.961,158.338 210.352 C 155.764 215.418,154.750 216.078,147.778 217.223 C 132.466 219.736,129.954 214.986,130.877 185.265 C 131.412 168.033,133.259 164.023,141.835 161.476 C 143.488 160.985,157.944 158.606,159.325 158.597 C 159.760 158.594,159.830 157.693,159.693 153.853 C 159.509 148.684,159.028 147.656,156.793 147.656 C 155.752 147.656,155.359 145.074,156.348 144.725 C 159.853 143.490,179.877 141.217,181.229 141.901 M311.230 145.344 C 310.288 145.893,310.182 159.758,311.114 160.531 C 313.124 162.199,313.840 159.545,313.614 151.270 C 313.454 145.395,313.015 144.304,311.230 145.344 M248.310 146.712 C 250.155 148.557,249.799 150.032,239.684 182.422 C 229.197 216.003,229.441 214.836,232.813 215.296 C 233.628 215.408,233.809 215.669,233.910 216.881 C 234.055 218.633,235.413 218.262,221.176 220.361 C 204.102 222.877,204.212 223.001,209.331 207.141 L 211.999 198.873 200.628 178.469 C 189.860 159.147,189.180 158.033,187.797 157.451 C 186.579 156.938,185.435 154.305,186.426 154.296 C 186.479 154.295,191.165 153.592,196.838 152.733 C 212.418 150.375,210.736 149.611,216.667 161.745 C 218.970 166.457,220.967 170.313,221.105 170.313 C 221.473 170.313,225.096 157.135,225.301 155.051 C 225.502 153.010,224.789 151.953,223.214 151.953 C 222.372 151.953,222.266 151.782,222.266 150.431 L 222.266 148.909 225.488 148.450 C 227.261 148.197,231.875 147.495,235.742 146.888 C 245.100 145.420,246.992 145.394,248.310 146.712 M117.842 166.605 C 122.435 168.524,123.682 171.700,124.203 182.813 C 125.303 206.286,122.650 217.281,115.015 220.893 C 111.529 222.542,96.463 225.328,85.288 226.391 C 73.596 227.502,69.986 219.336,71.421 195.016 C 72.724 172.932,74.427 171.217,98.633 167.618 C 104.434 166.755,109.707 165.970,110.352 165.872 C 112.359 165.569,116.280 165.952,117.842 166.605 M262.500 168.594 C 263.315 169.391,263.603 176.860,262.830 177.138 C 262.541 177.241,259.976 177.677,257.131 178.107 C 249.668 179.234,249.219 178.926,249.219 172.688 L 249.219 169.256 254.590 168.457 C 260.210 167.621,261.530 167.644,262.500 168.594 M157.959 173.145 C 154.847 173.762,154.898 173.544,154.769 186.938 C 154.644 199.979,154.717 200.391,157.152 200.391 C 159.594 200.391,160.262 194.059,159.685 176.354 L 159.570 172.825 157.959 173.145 M62.891 179.140 C 62.891 188.011,62.560 188.467,55.268 189.639 C 47.623 190.867,47.141 191.532,46.932 201.146 C 46.670 213.170,47.950 215.134,55.359 214.076 C 59.961 213.420,61.600 212.702,62.493 210.951 C 63.176 209.613,64.116 209.005,65.527 208.990 C 65.901 208.986,66.016 210.768,66.016 216.617 C 66.016 229.428,65.838 229.570,46.195 232.433 C 31.255 234.611,28.510 234.297,25.583 230.074 C 21.510 224.196,21.506 192.875,25.577 184.553 C 28.334 178.919,31.316 177.664,47.852 175.181 C 53.008 174.407,58.018 173.630,58.984 173.454 C 59.951 173.278,61.226 173.115,61.816 173.091 L 62.891 173.047 62.891 179.140 M96.266 182.585 C 95.299 183.292,94.885 206.014,95.807 207.813 C 96.518 209.201,98.886 209.396,99.768 208.138 C 100.557 207.011,100.713 184.935,99.942 183.470 C 99.127 181.922,97.658 181.568,96.266 182.585 " stroke="none" fill="#000000" fill-rule="evenodd"></path></g></svg>