<svg xmlns="http://www.w3.org/2000/svg" width="173" height="131" viewBox="0 0 173 131" version="1.1">
    <path d="M 74.970 12.305 L 69.440 13.550 66.096 15.932 L 62.751 18.313 60.376 23.685 L 58 29.057 58 37.979 L 58 46.901 59.703 47.854 L 61.406 48.806 60.145 50.325 L 58.885 51.843 60.171 53.902 L 61.457 55.961 62.737 56.453 L 64.017 56.944 66.503 55.999 L 68.989 55.054 70.585 57.489 L 72.180 59.924 72.722 63.962 L 73.263 68 74.058 68 L 74.853 68 75.311 66.250 L 75.768 64.500 75.884 66.750 L 76 69 77.032 69 L 78.064 69 78.969 66.750 L 79.873 64.500 79.937 66.750 L 80 69 81.032 69 L 82.064 69 82.969 66.750 L 83.873 64.500 83.937 66.191 L 84 67.882 85.067 68.542 L 86.135 69.201 86.684 67.101 L 87.233 65 88.117 65 L 89 65 89 66.500 L 89 68 90.500 68 L 92 68 92 66.057 L 92 64.114 94.205 60.307 L 96.411 56.500 97.270 55.901 L 98.129 55.302 100.570 55.769 L 103.011 56.235 104.506 54.995 L 106 53.755 106 51.427 L 106 49.099 104.391 48.199 L 102.781 47.298 104.338 46.700 L 105.895 46.103 107.009 41.968 L 108.122 37.833 107.491 34.666 L 106.859 31.500 105.426 27 L 103.993 22.500 100.638 18.849 L 97.283 15.198 94.228 13.618 L 91.172 12.038 85.836 11.548 L 80.500 11.059 74.970 12.305 M 9.032 31.696 L 9 35.892 12.861 43.354 L 16.722 50.816 21.611 57.046 L 26.500 63.277 35 70.738 L 43.500 78.199 52.102 83.850 L 60.704 89.500 64.535 91.608 L 68.366 93.715 61.433 95.992 L 54.500 98.268 53.599 98.787 L 52.697 99.305 54.446 100.584 L 56.194 101.863 57.347 101.538 L 58.500 101.213 65.308 99.479 L 72.117 97.746 71.606 96.416 L 71.096 95.086 73.514 96.005 L 75.932 96.925 79.821 98.909 L 83.709 100.892 95.466 104.946 L 107.222 109 109.179 109 L 111.135 109 110.433 106.750 L 109.730 104.500 108.615 103.765 L 107.500 103.030 102.500 101.398 L 97.500 99.767 87.185 95.782 L 76.869 91.797 77.236 91.431 L 77.603 91.064 87.691 94.976 L 97.779 98.888 103.899 100.474 L 110.020 102.060 112.010 100.995 L 114 99.930 114 99.527 L 114 99.124 105.435 96.335 L 96.869 93.545 99.255 92.907 L 101.640 92.269 111.793 85.932 L 121.946 79.595 131.654 71.048 L 141.362 62.500 146.718 55.500 L 152.074 48.500 154.972 42.500 L 157.870 36.500 158.523 32.250 L 159.176 28 158.338 28.022 L 157.500 28.043 153.500 33.748 L 149.500 39.454 138 51.039 L 126.500 62.624 117.560 69.017 L 108.621 75.410 96.797 81.525 L 84.973 87.640 85.716 88.382 L 86.458 89.125 83.850 88.133 L 81.241 87.141 71.871 82.471 L 62.500 77.801 52.971 71.439 L 43.442 65.076 33.922 56.141 L 24.402 47.207 18.231 39.353 L 12.059 31.500 10.561 29.500 L 9.064 27.500 9.032 31.696 M 67.479 38.664 L 65.815 40.327 66.420 43.348 L 67.024 46.369 68.667 48.184 L 70.310 50 71.049 50 L 71.788 50 74.894 47.099 L 78 44.198 78 41.697 L 78 39.196 74.851 38.098 L 71.702 37 70.422 37 L 69.143 37 67.479 38.664 M 89.228 38.039 L 86.956 38.952 86.402 40.395 L 85.848 41.838 87.473 44.318 L 89.097 46.798 92.050 48.021 L 95.002 49.243 96.501 47.999 L 98 46.755 98 43.038 L 98 39.321 95.453 38.161 L 92.906 37 92.203 37.063 L 91.500 37.127 89.228 38.039 M 79.986 49.541 L 78.818 53.082 79.402 54.605 L 79.986 56.127 81.243 55.338 L 82.500 54.550 84.250 54.838 L 86 55.126 86 53.513 L 86 51.901 84.474 48.950 L 82.949 46 82.052 46 L 81.155 46 79.986 49.541 M 97.711 58.767 L 96.069 60.582 94.953 65.782 L 93.838 70.982 92.807 71.619 L 91.776 72.256 91 71 L 90.224 69.744 89.112 70.431 L 88 71.118 88 72.559 L 88 74 87 74 L 86 74 86 72.500 L 86 71 84.573 71 L 83.147 71 82.689 72.750 L 82.232 74.500 82.116 72.177 L 82 69.853 80.250 70.213 L 78.500 70.573 78.794 72.286 L 79.088 74 78.044 74 L 77 74 77 72 L 77 70 76.050 70 L 75.099 70 74.188 71.628 L 73.277 73.257 72.388 71.882 L 71.500 70.506 69.500 64.503 L 67.500 58.500 66 58.500 L 64.500 58.500 64.660 60.500 L 64.820 62.500 65.540 67.676 L 66.261 72.851 70.536 76.926 L 74.811 81 82.523 81 L 90.235 81 93.964 77.250 L 97.693 73.500 99.361 66.064 L 101.028 58.628 100.191 57.791 L 99.353 56.953 97.711 58.767 M 46.947 72.420 L 48.395 74.181 54.447 78.448 L 60.500 82.715 65.250 85.453 L 70 88.190 70 87.643 L 70 87.096 63.770 83.444 L 57.540 79.793 51.520 75.226 L 45.500 70.659 46.947 72.420 M 111 78.158 L 102.500 84.179 96.686 87.136 L 90.871 90.094 88.686 89.549 L 86.500 89.004 90.500 90.928 L 94.500 92.852 95.441 92.926 L 96.382 93 94.556 91.665 L 92.730 90.329 100.115 86.272 L 107.500 82.215 113.750 77.610 L 120 73.004 120 72.502 L 120 72 119.750 72.069 L 119.500 72.137 111 78.158 M 35.873 91.902 L 33.540 93.791 34.539 96.645 L 35.537 99.500 38.268 99.816 L 41 100.133 41 99.066 L 41 98 41.980 98 L 42.959 98 44.980 101.960 L 47 105.920 47 106.595 L 47 107.270 44.871 104.564 L 42.743 101.857 41.718 102.882 L 40.694 103.906 38.739 102.861 L 36.785 101.815 35.893 102.707 L 35.001 103.599 28.043 103.319 L 21.086 103.039 19.543 105.242 L 18 107.445 18 109.088 L 18 110.730 20.073 113.365 L 22.145 116 24.918 116 L 27.690 116 29.500 114 L 31.310 112 39.155 112 L 47 112 47.079 109.750 L 47.159 107.500 49.550 114.500 L 51.940 121.500 51.970 121.629 L 52 121.757 55.045 123.019 L 58.090 124.280 60.545 123.161 L 63 122.043 63 118.990 L 63 115.937 61.487 115.357 L 59.975 114.776 58.620 115.900 L 57.265 117.025 56.213 115.757 L 55.161 114.489 54.476 111.762 L 53.792 109.035 54.828 106.063 L 55.864 103.092 54.182 102.553 L 52.500 102.014 49.645 97.486 L 46.790 92.958 45.145 92.117 L 43.500 91.277 40.853 90.645 L 38.205 90.013 35.873 91.902 M 124.293 90.780 L 122.085 91.128 119.293 94.611 L 116.500 98.095 114.009 100.797 L 111.519 103.500 111.844 108.157 L 112.170 112.814 111.055 114.897 L 109.940 116.980 107.986 115.759 L 106.032 114.539 104.387 116.185 L 102.741 117.831 103.386 120.400 L 104.030 122.970 106.696 123.639 L 109.361 124.308 111.931 122.871 L 114.500 121.434 117.500 112.423 L 120.500 103.411 122.270 100.710 L 124.041 98.008 126.024 99.247 L 128.007 100.485 129.753 99.384 L 131.500 98.282 131.500 94.963 L 131.500 91.644 129 91.038 L 126.500 90.431 124.293 90.780 M 65.666 100.940 L 57.832 103.768 56.831 104.769 L 55.831 105.769 56.165 107.759 L 56.500 109.749 68.750 105.649 L 81 101.550 81 100.936 L 81 100.321 78.453 99.161 L 75.906 98 74.703 98.056 L 73.500 98.112 65.666 100.940 M 127.139 102.893 L 125.779 103.755 123.887 103.260 L 121.996 102.766 120.498 106.351 L 119 109.936 119 110.968 L 119 112 127.259 112 L 135.519 112 136.768 114 L 138.017 116 141.008 116 L 144 116 146 114 L 148 112 148 109.071 L 148 106.143 146.429 104.571 L 144.857 103 142.863 103 L 140.869 103 138.934 104.035 L 137 105.070 137 103.910 L 137 102.750 134 103.350 L 131 103.950 131 102.975 L 131 102 129.750 102.015 L 128.500 102.031 127.139 102.893" stroke="none" fill="#010101" fill-rule="evenodd"/>
</svg>
