<svg xmlns="http://www.w3.org/2000/svg" width="400" height="400" viewBox="0 0 400 400" version="1.1"><path d="M 0 110 C 0 170.500, 0.337 219.969, 0.750 219.931 C 1.163 219.893, 3.975 217.030, 7 213.568 C 13.046 206.649, 33.089 184.494, 50.996 164.936 C 57.323 158.025, 66.132 148.350, 70.572 143.436 C 75.011 138.521, 92.738 118.975, 109.964 100 C 127.191 81.025, 151.892 53.800, 164.857 39.500 C 177.821 25.200, 190.380 11.431, 192.764 8.901 C 195.149 6.372, 197.778 3.334, 198.607 2.151 L 200.113 0 100.057 0 L 0 0 0 110 M 268 128 L 268 256 334 256 L 400 256 400 128 L 400 0 334 0 L 268 0 268 128 M 188.419 107.266 C 179.236 116.909, 171.068 125.717, 139.512 160 C 129.640 170.725, 118.809 182.425, 115.443 186 C 112.077 189.575, 97.478 205.325, 82.999 221 C 68.521 236.675, 55.310 250.963, 53.641 252.750 L 50.608 256 123.804 256 L 197 256 197 178 C 197 135.100, 196.626 100, 196.169 100 C 195.712 100, 192.224 103.270, 188.419 107.266 M 0 353.500 L 0 400 98.500 400 L 197 400 197 353.500 L 197 307 98.500 307 L 0 307 0 353.500 M 268 353.500 L 268 400 334 400 L 400 400 400 353.500 L 400 307 334 307 L 268 307 268 353.500" stroke="none" fill="#000000" fill-rule="evenodd"/></svg>