<svg xmlns="http://www.w3.org/2000/svg" width="164" height="99" viewBox="0 0 164 99" version="1.1"><path d="M 142 0.649 C 140.625 0.857, 137.025 1.663, 134 2.442 C 130.975 3.221, 125.800 4.377, 122.500 5.010 C 119.200 5.644, 114.700 6.546, 112.500 7.014 C 110.300 7.483, 105.575 8.372, 102 8.989 C 98.425 9.607, 93.700 10.609, 91.500 11.217 C 85.334 12.920, 74.846 13.012, 59.500 11.498 C 51.800 10.738, 39.164 9.827, 31.420 9.474 C 19.621 8.935, 16.705 9.096, 13.420 10.468 C 8.062 12.705, 3.313 18.429, 2.540 23.581 C 1.881 27.976, 3.434 40.073, 5.042 43.079 C 5.569 44.063, 6 45.879, 6 47.113 C 6 48.348, 6.411 50.740, 6.913 52.429 C 8.060 56.288, 10.086 64.859, 10.475 67.500 C 10.752 69.387, 11.758 73.638, 14.370 83.970 C 15.137 87.002, 17.037 90.056, 20.282 93.470 L 25.065 98.500 33.782 98.436 C 38.577 98.401, 45.425 97.645, 49 96.756 C 52.575 95.868, 58.200 94.622, 61.500 93.988 C 64.800 93.354, 69.387 92.422, 71.693 91.918 C 77.131 90.727, 103.070 90.779, 118.923 92.011 C 127.750 92.697, 132.422 92.654, 135.066 91.862 C 138.897 90.714, 144 86.986, 144 85.334 C 144 84.820, 144.563 83.838, 145.250 83.150 C 145.938 82.462, 146.524 81.585, 146.554 81.200 C 146.678 79.591, 151.154 60.183, 152.250 56.500 C 152.905 54.300, 153.380 51.866, 153.305 51.092 C 153.231 50.318, 153.643 48.518, 154.222 47.092 C 154.800 45.666, 155.662 42.587, 156.137 40.250 C 156.612 37.912, 157.388 34.087, 157.863 31.750 C 158.338 29.412, 159.277 26.150, 159.950 24.500 C 160.623 22.850, 161.247 18.350, 161.337 14.500 C 161.498 7.587, 161.451 7.453, 157.597 3.750 C 154.166 0.454, 153.136 0.017, 149.097 0.136 C 146.568 0.211, 143.375 0.442, 142 0.649 M 147.917 8.401 C 147.688 8.622, 139.400 10.458, 129.500 12.480 C 119.600 14.502, 105.005 17.485, 97.066 19.107 C 83.306 21.920, 82.070 22.012, 70.566 21.065 C 63.930 20.519, 51.525 19.588, 43 18.997 C 34.475 18.406, 25.700 17.702, 23.500 17.433 C 19.209 16.908, 15.810 18.267, 17.508 19.829 C 18.054 20.330, 32.900 21.736, 50.500 22.953 L 82.500 25.165 112.152 19.126 C 148.411 11.742, 146.482 12.230, 148.581 9.910 C 149.983 8.361, 149.380 6.991, 147.917 8.401 M 120 29.666 C 114.323 30.560, 113.104 31.097, 112.511 32.965 C 111.501 36.147, 113.661 38.853, 117.762 39.544 C 124.038 40.603, 125 41.063, 125 43.008 C 125 45.464, 123.461 46.336, 118 46.974 C 114.900 47.336, 113.500 47.967, 113.500 49 C 113.500 50.159, 114.787 50.495, 119.169 50.479 C 126.015 50.453, 129 48.334, 129 43.500 C 129 39.488, 126.697 37.414, 121.250 36.521 C 116.690 35.773, 115.413 34, 119.435 34 C 123.515 34, 127.030 32.243, 126.374 30.532 C 125.793 29.019, 124.890 28.896, 120 29.666 M 100.500 30.918 C 96.092 31.346, 94.500 31.898, 94.500 33 C 94.500 33.870, 95.588 34.626, 97.089 34.801 C 99.553 35.087, 99.723 35.499, 100.589 43.301 C 101.280 49.518, 101.863 51.500, 103 51.500 C 104.226 51.500, 104.469 49.991, 104.333 43.250 C 104.185 35.920, 104.366 35, 105.961 35 C 108.552 35, 110.268 32.668, 108.776 31.176 C 108.129 30.529, 107.352 30.076, 107.050 30.168 C 106.748 30.261, 103.800 30.598, 100.500 30.918 M 76.667 32.667 C 75.822 33.512, 75.804 42.294, 76.636 48.360 C 77.134 51.993, 77.676 53, 79.136 53 C 80.731 53, 81 52.198, 81 47.433 C 81 42.123, 81.104 41.897, 83.250 42.551 C 85.745 43.311, 89 45.880, 89 47.090 C 89 49.713, 91.093 52.902, 92.468 52.374 C 94.514 51.589, 94.399 49.205, 92.096 44.688 C 90.541 41.639, 90.392 40.421, 91.285 38.057 C 92.997 33.521, 91.053 32, 83.544 32 C 80.128 32, 77.033 32.300, 76.667 32.667 M 58.750 33.689 C 57.274 34.075, 57.019 35.269, 57.118 41.323 C 57.183 45.270, 57.530 49.850, 57.889 51.500 C 58.530 54.444, 58.644 54.494, 64.021 54.163 C 70.948 53.737, 74 51.882, 74 48.099 C 74 46.529, 73.315 44.676, 72.477 43.981 C 71.072 42.815, 71.112 41.601, 72.695 37.379 C 73.567 35.053, 69.944 32.998, 65.179 33.116 C 62.605 33.180, 59.712 33.438, 58.750 33.689 M 41.500 34.875 C 38.615 35.488, 38.489 35.742, 38.211 41.506 C 38.052 44.803, 38.308 49.300, 38.778 51.500 L 39.634 55.500 45.518 55.223 C 52.145 54.911, 55 53.090, 55 49.174 C 55 47.790, 54.308 45.893, 53.462 44.958 C 52.200 43.564, 52.139 42.789, 53.121 40.634 C 54.132 38.416, 54.036 37.697, 52.504 36.004 C 50.652 33.958, 47.388 33.623, 41.500 34.875 M 80 37 C 80 37.550, 80.900 38.068, 82 38.150 C 83.100 38.232, 84.525 38.345, 85.167 38.400 C 85.808 38.455, 86.521 37.938, 86.750 37.250 C 87.032 36.405, 86.006 36, 83.583 36 C 81.612 36, 80 36.450, 80 37 M 61.500 38 C 61.160 38.550, 61.471 39.006, 62.191 39.014 C 62.911 39.021, 64.513 39.299, 65.750 39.630 C 67.404 40.074, 68 39.805, 68 38.617 C 68 36.793, 62.565 36.277, 61.500 38 M 44.250 38.713 C 40.692 39.387, 41.632 41, 45.583 41 C 47.905 41, 49.027 40.582, 48.771 39.813 C 48.298 38.395, 47.262 38.143, 44.250 38.713 M 61.370 46.250 C 61.701 47.487, 61.979 48.837, 61.986 49.250 C 61.994 49.663, 63.589 50, 65.531 50 C 67.886 50, 69.273 49.452, 69.694 48.355 C 70.520 46.203, 67.483 44, 63.692 44 C 61.146 44, 60.845 44.292, 61.370 46.250 M 42.537 48.250 C 42.920 50.038, 43.294 51.559, 43.367 51.631 C 43.440 51.704, 44.998 51.535, 46.829 51.256 C 53.113 50.300, 51.334 45, 44.729 45 C 41.995 45, 41.878 45.173, 42.537 48.250 M 110.681 57.653 C 110.322 58.011, 108.609 58.265, 106.874 58.215 L 103.720 58.126 104.315 65.218 C 104.928 72.527, 105.938 74.774, 108.031 73.481 C 108.827 72.989, 109.037 71.286, 108.650 68.464 C 108.227 65.379, 108.469 63.856, 109.520 62.984 C 111.704 61.171, 113.998 62.567, 114.014 65.719 C 114.037 70.424, 115.131 73.122, 116.879 72.784 C 118.139 72.541, 118.500 71.248, 118.500 66.985 C 118.500 62.084, 118.736 61.466, 120.715 61.185 C 123.031 60.856, 123.642 62.127, 124.226 68.491 C 124.401 70.407, 125.129 71.602, 126.250 71.815 C 127.722 72.094, 127.998 71.381, 127.985 67.323 C 127.965 60.578, 126.241 57.576, 122.162 57.182 C 120.351 57.007, 118.321 57.319, 117.651 57.875 C 116.887 58.508, 115.886 58.540, 114.966 57.958 C 113.235 56.863, 111.588 56.745, 110.681 57.653 M 88.589 62.077 C 85.718 65.489, 85.442 67.084, 87.163 70.316 C 91.358 78.192, 102 75.640, 102 66.758 C 102 59.414, 93.366 56.400, 88.589 62.077 M 74.854 60.706 C 69.321 61.556, 67.089 67.435, 70.388 72.469 C 72.237 75.291, 75.154 76.297, 80.112 75.824 C 85.300 75.328, 84.585 72.623, 79.102 72 C 71.673 71.156, 70.650 65.851, 77.663 64.535 C 82.499 63.628, 83.042 63.273, 82.349 61.468 C 81.800 60.036, 80.246 59.878, 74.854 60.706 M 92.250 63.662 C 90.482 64.376, 90.697 68.504, 92.584 70.070 C 95.701 72.657, 99.608 67.642, 96.960 64.452 C 95.732 62.972, 94.480 62.762, 92.250 63.662 M 62.446 75.087 C 62.077 75.685, 62.256 76.656, 62.845 77.245 C 64.093 78.493, 67.339 76.357, 66.430 74.887 C 65.669 73.655, 63.256 73.777, 62.446 75.087" stroke="none" fill="#000000" fill-rule="evenodd"/></svg>