<?xml version="1.0" encoding="utf-8"?>
<svg version="1.0" width="491.000000pt" height="247.000000pt" viewBox="0 0 491.000000 247.000000" preserveAspectRatio="xMidYMid meet" xmlns="http://www.w3.org/2000/svg">
  <defs/>
  <path d="M 468.285 1.709 C 467.908 2.094 452.872 4.569 434.926 7.264 C 416.926 9.904 394.453 13.314 384.968 14.854 C 375.483 16.34 351.231 20.08 331.076 23.16 C 310.92 26.24 283.759 30.365 270.663 32.345 L 246.896 35.976 L 214.076 32.895 C 196.022 31.245 178.346 29.54 174.789 29.21 C 158.136 27.615 119.711 24.04 109.041 23.05 C 97.508 22.005 73.149 19.695 54.61 17.935 C 26.748 15.239 13.814 20.19 6.915 36.141 C 2.065 47.306 2.281 49.011 15.969 111.11 C 20.766 132.561 25.185 153.517 25.831 157.532 L 27.071 164.958 L 36.772 164.408 C 42.161 164.078 48.574 163.638 51.053 163.363 C 55.58 162.868 55.58 162.923 56.334 166.938 C 56.712 169.193 58.113 176.673 59.46 183.549 C 61.454 193.834 61.67 196.089 60.43 196.584 C 59.568 196.914 59.137 198.124 59.406 199.5 C 59.676 200.82 60.7 207.42 61.724 214.24 L 63.502 226.616 L 70.939 222.546 C 95.083 209.235 105.753 193.174 105.592 170.348 L 105.538 160.832 L 108.879 160.997 L 112.274 161.162 L 112.598 169.688 C 112.975 179.698 112.813 179.643 122.029 173.098 C 128.819 168.258 129.142 167.818 128.496 164.463 C 127.741 160.282 133.562 157.972 136.148 161.327 C 137.28 162.758 137.819 162.758 140.46 161.382 C 142.777 160.172 150.645 159.622 172.633 159.017 C 188.639 158.632 204.645 158.082 208.202 157.862 C 211.759 157.642 224.37 157.202 236.226 156.817 C 248.082 156.432 261.663 155.937 266.405 155.662 C 271.148 155.387 285.214 154.892 297.663 154.562 C 310.112 154.177 323.962 153.682 328.381 153.462 C 332.854 153.242 346.651 152.747 359.1 152.362 C 371.549 151.977 384.159 151.482 387.123 151.262 C 398.98 150.382 445.866 149.392 445.866 149.997 C 445.866 150.327 443.225 152.637 440.045 155.112 C 435.411 158.687 434.333 160.117 434.764 162.042 C 435.195 163.968 435.033 164.133 434.117 162.813 C 432.608 160.667 432.447 165.288 433.902 168.148 C 434.602 169.413 434.279 171.888 432.932 175.738 C 431.854 178.928 431.207 181.514 431.53 181.514 C 431.854 181.514 431.638 182.119 431.045 182.889 C 430.453 183.659 429.59 186.794 429.213 189.929 C 428.782 193.009 427.057 198.454 425.279 202.03 C 423.554 205.55 422.153 209.18 422.153 210.115 C 422.099 211.6 421.992 211.6 421.075 210.115 C 419.674 207.86 419.728 209.73 421.129 212.48 C 422.099 214.295 421.938 214.79 420.159 215.23 C 418.92 215.615 418.219 216.44 418.542 217.32 C 418.866 218.146 417.626 220.291 415.848 222.051 C 414.069 223.811 412.83 225.516 413.099 225.791 C 413.369 226.121 411.267 226.451 408.465 226.561 C 405.608 226.671 401.243 226.836 398.818 227.001 C 396.339 227.111 394.507 226.836 394.83 226.396 C 395.099 225.956 392.243 225.516 388.525 225.461 C 372.842 225.241 367.183 224.911 367.183 224.306 C 367.183 223.921 364.65 223.646 361.525 223.646 C 356.728 223.646 346.92 223.096 332.154 221.886 C 330.375 221.776 328.327 221.281 327.627 220.786 C 326.926 220.346 326.064 220.511 325.687 221.116 C 324.932 222.381 315.555 221.996 313.345 220.621 C 312.537 220.126 311.621 220.291 311.136 221.116 C 310.489 222.161 310.22 222.161 309.896 221.116 C 309.465 219.796 300.357 219.136 277.723 218.916 C 271.525 218.861 264.573 218.311 262.31 217.706 C 257.89 216.495 228.519 216.165 223.292 217.265 C 221.513 217.596 216.178 218.366 211.435 218.861 C 200.927 220.071 195.968 220.896 194.621 221.721 C 194.082 222.051 193.651 221.831 193.651 221.226 C 193.651 220.456 192.735 220.401 190.903 221.116 C 187.561 222.436 184.274 223.041 171.016 224.911 C 165.412 225.681 159.915 226.726 158.891 227.166 C 157.651 227.661 157.005 227.441 157.005 226.451 C 156.951 225.406 156.735 225.351 156.196 226.231 C 155.765 226.946 153.178 227.661 150.538 227.826 C 147.843 227.991 144.987 228.651 144.124 229.311 C 142.885 230.246 142.777 230.136 143.532 228.816 C 144.286 227.496 144.178 227.386 142.939 228.376 C 142.076 228.981 137.657 229.476 133.13 229.476 C 128.603 229.421 125.101 229.751 125.37 230.191 C 125.639 230.631 125.262 231.071 124.454 231.126 C 123.699 231.181 121.436 231.401 119.442 231.566 C 117.394 231.731 115.454 232.336 115.13 232.886 C 114.753 233.436 111.574 233.876 108.125 233.821 C 104.675 233.821 101.604 234.151 101.334 234.591 C 101.011 235.086 100.364 235.196 99.879 234.866 C 99.394 234.536 98.64 234.811 98.262 235.416 C 97.885 236.022 97.238 236.352 96.807 236.077 C 96.43 235.802 94.059 236.022 91.58 236.462 C 88.508 237.012 86.837 236.902 86.514 236.077 C 86.244 235.361 86.029 235.471 85.975 236.352 C 85.867 237.672 85.598 237.672 84.035 236.352 C 82.957 235.471 82.526 235.416 83.011 236.187 C 83.981 237.837 63.394 237.397 62.316 235.747 C 61.939 235.196 60.053 233.766 58.167 232.666 C 56.28 231.511 54.933 230.246 55.256 229.806 C 55.526 229.311 55.041 228.541 54.233 228.046 C 52.724 227.166 49.813 222.216 50.73 222.216 C 51.053 222.216 50.568 220.236 49.759 217.761 C 48.897 215.34 48.574 213.58 49.059 213.855 C 49.544 214.185 49.813 213.305 49.652 211.985 C 49.544 210.665 49.328 209.565 49.221 209.565 C 48.951 209.565 48.197 206.54 47.496 202.69 C 47.119 200.765 46.526 199.335 46.149 199.555 C 45.771 199.83 45.34 197.739 45.179 195.044 C 45.071 192.294 44.424 189.379 43.777 188.609 C 43.131 187.839 42.754 186.519 42.861 185.694 C 42.969 184.924 42.7 183.384 42.269 182.339 C 41.783 181.239 41.676 179.148 41.945 177.663 C 42.215 176.123 42.053 174.913 41.514 174.913 C 39.682 174.913 40.652 172.713 42.484 172.658 C 45.987 172.493 40.436 170.678 36.233 170.568 C 34.131 170.568 31.813 169.908 31.113 169.193 C 28.203 166.223 28.688 170.733 34.077 195.539 C 40.813 226.451 42.322 230.521 49.436 237.067 C 62.694 249.222 69.161 249.167 152.693 236.627 C 185.621 231.676 217.633 226.946 223.831 226.011 C 236.226 224.196 238.112 224.306 317.064 230.466 C 336.034 231.951 359.585 233.711 369.339 234.316 C 379.147 234.921 391.758 235.967 397.471 236.627 C 421.83 239.432 423.986 236.792 438.375 185.914 C 443.764 166.828 456.213 123.54 466.075 89.659 C 484.884 24.81 486.5 18.54 485.369 13.974 C 484.452 10.289 479.602 4.459 476.369 3.194 C 472.003 1.544 468.985 0.939 468.285 1.709 Z M 471.626 17.88 C 471.68 17.11 472.273 16.505 472.866 16.505 C 473.512 16.505 473.728 17 473.351 17.605 C 472.973 18.21 473.189 18.705 473.836 18.705 C 474.428 18.705 474.86 19.915 474.698 21.455 C 474.59 22.94 474.051 24.205 473.512 24.205 C 473.027 24.205 472.866 24.92 473.189 25.745 C 473.512 26.625 472.812 29.87 471.626 33.005 C 470.494 36.086 469.794 39.111 470.171 39.661 C 470.494 40.266 470.225 40.706 469.524 40.706 C 468.824 40.706 468.554 41.476 468.931 42.411 C 469.255 43.401 469.093 43.841 468.5 43.456 C 467.854 43.071 467.369 44.336 467.261 46.426 C 466.884 54.897 461.764 72.608 459.662 72.608 C 459.231 72.608 459.123 73.323 459.446 74.148 C 459.77 74.973 459.554 76.018 458.908 76.403 C 458.315 76.788 458.045 77.723 458.369 78.548 C 458.692 79.373 458.153 80.803 457.237 81.738 C 456.213 82.783 456.051 83.608 456.752 83.828 C 457.56 84.103 457.56 85.038 456.806 86.963 C 454.812 92.079 454.165 94.059 454.273 94.774 C 454.381 95.214 453.572 98.184 452.494 101.374 C 451.417 104.619 450.716 107.865 450.985 108.635 C 451.201 109.405 450.878 110.01 450.177 110.01 C 449.423 110.01 449.153 110.725 449.476 111.66 C 449.854 112.65 449.53 113.31 448.668 113.31 C 447.86 113.31 446.944 114.3 446.62 115.51 C 446.297 116.72 446.512 117.71 447.051 117.71 C 447.59 117.71 448.021 118.205 448.021 118.81 C 448.021 119.415 447.321 119.91 446.459 119.91 C 445.488 119.91 445.111 120.57 445.488 121.56 C 445.812 122.44 445.542 123.21 444.896 123.21 C 444.195 123.21 443.872 124.365 444.141 125.96 C 444.411 127.446 444.141 128.711 443.548 128.711 C 442.902 128.711 442.632 129.371 442.956 130.251 C 443.279 131.076 443.009 132.286 442.309 133.001 C 441.447 133.881 441.5 134.211 442.632 134.211 C 443.656 134.211 443.494 134.651 442.147 135.696 C 441.015 136.521 440.477 137.731 440.908 138.391 C 441.77 139.821 439.183 140.041 416.602 140.151 C 407.602 140.206 401.081 140.701 401.405 141.251 C 401.728 141.801 400.758 141.911 399.141 141.526 C 397.578 141.086 396.285 141.141 396.285 141.636 C 396.285 142.296 385.938 142.516 378.231 142.021 C 374.728 141.746 380.71 136.686 390.519 131.626 C 396.177 128.711 403.345 119.47 403.668 114.74 C 404.099 108.415 398.549 99.009 394.399 99.009 C 393.213 99.009 393.483 98.074 395.477 95.434 C 396.932 93.454 399.087 89.879 400.327 87.513 L 402.483 83.113 L 396.447 81.188 C 388.363 78.603 386.962 78.713 384.806 82.013 C 379.794 89.824 374.243 88.998 374.405 80.473 C 374.62 66.337 387.555 55.942 390.465 67.712 C 391.327 71.178 392.243 70.902 401.297 64.082 C 408.68 58.582 408.788 58.307 404.584 52.036 C 399.411 44.281 386.531 41.091 378.016 45.491 C 376.022 46.481 373.489 47.306 372.411 47.306 C 371.333 47.306 370.417 48.021 370.417 48.956 C 370.417 49.836 369.501 50.606 368.423 50.606 C 364.219 50.606 356.459 71.343 356.405 82.563 C 356.405 87.843 355.974 89.053 353.549 91.254 C 350.585 93.894 350.261 107.755 353.171 108.745 C 353.764 108.91 353.926 109.625 353.549 110.285 C 353.118 110.945 353.333 111.11 354.034 110.67 C 354.68 110.285 356.189 110.89 357.375 112.1 C 358.507 113.255 361.74 114.575 364.543 115.015 C 368.477 115.62 369.231 116.06 367.83 116.83 C 366.86 117.38 366.321 118.315 366.698 118.865 C 367.022 119.47 365.728 119.965 363.734 120.02 C 358.13 120.13 356.621 120.625 352.902 123.65 C 347.351 128.161 345.627 130.086 345.627 131.626 C 345.627 132.451 345.142 133.111 344.549 133.111 C 343.956 133.111 343.471 133.991 343.471 135.091 C 343.471 136.136 342.77 138.061 341.908 139.326 C 341.046 140.591 340.669 142.021 341.1 142.461 C 341.531 142.956 340.776 143.066 339.429 142.736 C 337.758 142.296 337.004 142.626 337.004 143.671 C 337.004 144.827 335.441 145.212 330.537 145.047 C 326.603 144.992 324.07 144.442 324.07 143.671 C 324.07 143.011 323.585 143.176 323.046 144.056 C 322.237 145.377 321.806 145.377 320.297 144.111 C 318.95 142.956 318.357 142.901 317.711 143.946 C 317.279 144.662 315.447 145.157 313.723 145.047 C 311.944 144.882 309.95 145.157 309.196 145.597 C 308.495 146.092 307.902 145.927 307.902 145.322 C 307.902 144.111 301.435 144.387 299.387 145.707 C 298.687 146.147 297.501 146.037 296.8 145.487 C 295.13 144.221 286.238 144.717 281.387 146.367 C 278.046 147.467 277.399 147.357 276.052 145.597 C 274.866 144.001 274.543 143.891 274.543 145.212 C 274.489 147.192 261.555 147.742 260.208 145.817 C 259.723 145.102 259.399 145.102 259.399 145.762 C 259.399 146.422 254.118 146.917 245.98 147.027 C 238.651 147.137 232.076 147.522 231.429 147.907 C 230.837 148.292 230.298 148.237 230.298 147.742 C 230.298 146.697 222.861 146.092 220.597 147.027 C 219.304 147.522 219.412 147.852 221.136 148.567 C 223.184 149.392 223.184 149.447 220.867 149.557 C 219.519 149.557 218.388 149.007 218.334 148.237 C 218.28 147.137 218.172 147.137 217.741 148.237 C 217.418 149.007 216.447 149.612 215.585 149.612 C 214.723 149.612 214.292 149.117 214.669 148.512 C 215.639 146.917 210.519 147.137 208.903 148.787 C 207.825 149.887 207.394 149.832 206.693 148.677 C 206.046 147.577 205.561 147.522 205.022 148.457 C 204.591 149.117 202.22 149.612 199.741 149.447 C 192.412 149.117 174.843 151.867 166.813 154.617 C 163.472 155.772 167.891 152.087 172.202 150.107 L 176.675 148.072 L 175.975 139.271 L 175.22 130.416 L 177.807 132.891 C 179.208 134.266 181.472 137.676 182.873 140.536 C 184.22 143.396 185.513 145.982 185.729 146.202 C 185.891 146.422 188.154 144.717 190.687 142.351 C 193.22 139.986 196.615 136.961 198.232 135.696 C 199.849 134.376 201.196 132.891 201.196 132.396 C 201.196 131.076 193.921 119.965 190.741 116.5 L 188.154 113.64 L 191.334 107.149 C 202.759 83.718 198.124 64.907 180.879 64.907 C 172.31 64.907 153.771 71.178 150.807 75.083 C 149.298 77.118 153.825 97.029 155.657 96.314 C 156.681 95.929 157.005 98.294 157.058 106.489 C 157.058 116.225 157.921 129.151 159.807 147.137 L 160.508 154.012 L 156.681 154.012 L 152.855 154.012 L 148.544 139.986 C 143.154 122.33 141.969 117.93 136.58 96.369 C 134.154 86.688 132.053 78.658 131.783 78.438 C 131.568 78.218 127.095 79.648 121.867 81.683 L 112.274 85.313 L 111.628 93.509 C 111.25 98.074 111.035 113.145 111.142 127.061 C 111.304 153.187 111.25 153.517 106.723 155.992 C 104.675 157.092 104.298 156.872 103.113 154.067 C 102.412 152.307 100.202 149.172 98.155 147.137 L 94.436 143.341 L 96.214 136.301 C 101.172 116.665 94.113 97.909 81.825 97.909 C 73.526 97.909 56.065 107.094 45.233 117.105 L 40.059 121.89 L 43.67 132.726 C 49.167 149.172 49.167 149.282 50.298 147.412 C 51.646 145.212 52.077 146.037 52.939 152.142 C 53.64 157.312 53.64 157.422 51.43 156.212 C 50.137 155.552 46.58 154.947 43.508 154.892 C 39.574 154.837 38.55 154.562 40.059 153.957 C 41.891 153.187 41.945 153.077 40.328 152.967 C 39.304 152.967 38.442 152.142 38.442 151.262 C 38.442 150.327 37.903 149.612 37.257 149.612 C 36.394 149.612 36.448 149.117 37.364 147.962 C 38.119 147.027 38.227 146.312 37.634 146.312 C 37.041 146.312 36.556 144.992 36.556 143.451 C 36.556 141.856 35.963 140.206 35.209 139.711 C 34.185 139.051 34.185 138.721 35.209 138.061 C 36.017 137.566 36.125 136.961 35.478 136.576 C 33.861 135.476 32.73 130.911 34.077 130.911 C 34.778 130.911 34.616 129.921 33.592 128.326 C 32.73 126.951 32.298 125.41 32.73 124.97 C 33.161 124.53 32.945 123.815 32.191 123.375 C 31.49 122.88 30.79 120.075 30.682 117.105 C 30.574 114.08 29.981 111.275 29.334 110.835 C 28.58 110.285 28.903 109.405 30.197 108.415 C 32.029 106.984 31.975 106.874 29.119 106.434 L 26.047 106.049 L 28.742 104.784 C 30.79 103.849 30.951 103.519 29.496 103.464 C 28.418 103.464 27.825 102.969 28.149 102.364 C 28.472 101.814 28.257 101.044 27.556 100.604 C 26.694 100.054 26.748 99.614 27.718 99.009 C 28.634 98.404 28.472 97.964 27.017 97.469 C 25.346 96.974 25.023 95.874 25.131 91.859 C 25.239 88.778 24.807 86.908 24.053 86.908 C 23.352 86.908 23.514 86.413 24.43 85.863 C 25.724 84.983 25.508 84.598 23.352 83.718 C 21.251 82.893 21.089 82.618 22.652 82.563 C 24.215 82.508 24.43 82.178 23.514 81.023 C 22.813 80.198 22.598 79.263 22.975 78.878 C 23.352 78.493 23.029 77.338 22.221 76.348 C 21.412 75.413 20.658 73.268 20.55 71.673 C 20.227 66.282 20.119 65.897 19.041 66.557 C 18.448 66.942 17.963 66.722 17.963 66.062 C 17.963 65.457 18.556 64.907 19.311 64.907 C 20.281 64.852 20.227 64.632 19.149 63.917 C 18.34 63.367 18.017 62.432 18.394 61.772 C 18.825 61.112 18.664 59.572 18.017 58.417 C 17.209 56.877 17.263 56.162 18.233 55.722 C 19.257 55.282 19.257 54.952 18.125 54.127 C 17.155 53.467 17.047 52.861 17.802 52.366 C 18.394 51.981 18.718 50.661 18.502 49.451 C 17.909 46.426 18.987 43.841 20.388 44.721 C 21.089 45.161 21.305 44.831 20.927 43.786 C 20.173 41.806 21.682 39.056 23.568 39.001 C 24.322 39.001 24.861 38.341 24.7 37.571 C 23.999 34.27 33.322 30.255 40.598 30.75 C 41.514 30.805 45.017 30.86 48.412 30.86 C 52.562 30.915 54.825 31.41 55.418 32.455 C 56.334 34.105 61.077 33.555 61.077 31.795 C 61.077 30.145 62.694 30.695 65.173 33.06 C 66.52 34.325 68.137 34.986 68.837 34.49 C 70.616 33.39 85.059 33.17 86.46 34.27 C 87.107 34.766 91.58 35.261 96.43 35.426 C 101.28 35.591 105.268 36.141 105.268 36.636 C 105.268 37.131 105.753 37.241 106.346 36.856 C 106.939 36.471 107.478 36.801 107.532 37.626 C 107.586 38.726 107.693 38.726 108.125 37.681 C 108.448 36.911 109.202 36.581 109.795 36.966 C 110.388 37.351 111.304 37.021 111.843 36.196 C 112.651 34.876 112.975 34.931 113.837 36.306 C 114.538 37.351 116.963 38.066 120.574 38.231 C 141.053 39.166 144.717 39.826 143.316 42.191 C 142.885 42.906 143.424 42.741 144.502 41.861 C 146.011 40.596 146.55 40.596 147.25 41.696 C 147.897 42.741 148.22 42.686 148.759 41.366 C 149.082 40.376 149.891 39.606 150.484 39.606 C 151.076 39.606 151.292 40.321 150.915 41.256 C 150.43 42.631 151.831 42.851 160.4 42.521 C 171.124 42.136 173.549 42.466 172.472 44.226 C 172.094 44.941 172.633 44.886 173.927 44.171 C 175.328 43.401 177.537 43.401 180.663 44.116 C 183.196 44.721 186.214 44.886 187.292 44.501 C 188.531 44.116 189.34 44.391 189.34 45.161 C 189.34 46.151 189.717 46.151 190.795 45.216 C 192.412 43.841 202.274 43.841 202.274 45.216 C 202.274 45.711 203.136 46.096 204.16 46.096 C 209.927 46.206 212.675 46.536 214.292 47.416 C 215.477 48.021 216.501 47.801 217.418 46.701 C 218.334 45.546 219.142 45.381 219.897 46.151 C 220.651 46.921 221.459 46.866 222.429 46.041 C 223.507 45.106 223.831 45.271 223.831 46.756 C 223.831 48.131 224.316 48.406 225.717 47.801 C 226.741 47.306 235.849 46.811 245.926 46.701 C 257.405 46.591 266.082 45.986 269.1 45.106 C 278.747 42.191 289.956 41.091 313.615 40.761 C 315.285 40.706 316.363 40.266 316.04 39.716 C 315.339 38.561 322.237 37.406 331.076 37.241 C 334.633 37.186 338.136 36.636 338.89 36.086 C 340.237 34.931 351.447 34.656 353.118 35.756 C 353.656 36.086 354.573 35.481 355.165 34.435 C 356.243 32.51 357.429 32.29 369.339 32.015 C 373.597 31.96 375.806 31.52 374.89 30.97 C 372.896 29.65 378.501 28.605 384.159 29.265 C 386.585 29.54 388.848 29.32 389.225 28.715 C 389.549 28.165 391.489 27.89 393.483 28.11 C 395.854 28.44 397.578 28 398.441 26.955 C 399.95 25.14 402.213 24.645 401.135 26.405 C 400.758 27.01 401.513 27.505 402.752 27.505 C 403.992 27.505 404.746 27.01 404.369 26.405 C 403.992 25.8 404.584 25.25 405.662 25.14 C 406.74 25.085 409.435 24.865 411.644 24.645 C 413.854 24.48 415.686 24.755 415.686 25.36 C 415.686 25.91 416.225 26.405 416.818 26.405 C 417.465 26.405 417.68 25.91 417.303 25.305 C 416.926 24.7 417.519 24.15 418.596 24.04 C 421.56 23.875 424.201 23.38 432.662 21.675 C 436.92 20.795 440.207 20.52 439.884 21.015 C 439.56 21.565 440.045 22.005 440.962 22.005 C 441.878 22.005 442.632 21.455 442.632 20.795 C 442.632 20.135 443.387 19.86 444.249 20.19 C 445.165 20.575 445.866 20.355 445.866 19.805 C 445.866 19.255 447.213 18.815 448.83 18.87 C 455.027 19.09 462.518 17.825 462.949 16.505 C 463.273 15.459 463.542 15.459 464.243 16.56 C 464.943 17.715 465.59 17.66 467.584 16.284 C 469.955 14.689 470.171 14.689 470.818 16.89 C 471.195 18.21 471.572 18.65 471.626 17.88 Z M 393.213 48.461 C 397.363 49.616 404.692 56.877 403.129 58.252 C 402.59 58.637 400.435 60.287 398.225 61.937 L 394.291 64.907 L 391.058 61.607 C 388.255 58.747 387.123 58.307 382.974 58.582 C 380.333 58.747 378.339 59.077 378.608 59.352 C 378.878 59.572 377.854 61.057 376.399 62.652 C 363.573 76.348 371.603 101.319 384.59 88.063 C 388.794 83.773 394.992 82.728 396.932 85.973 C 400.758 92.299 373.489 105.939 367.076 100.879 C 347.621 85.533 369.447 41.696 393.213 48.461 Z M 189.124 72.223 C 197.693 77.778 190.849 113.31 181.202 113.31 C 178.507 113.31 179.478 114.905 184.004 117.71 C 186.376 119.25 190.256 122.935 192.573 125.96 L 196.777 131.461 L 192.25 135.531 C 186.645 140.591 187.076 140.646 184.436 135.091 C 182.442 130.856 171.448 120.185 170.316 121.34 C 170.046 121.615 170.316 123.98 170.909 126.676 C 171.502 129.316 172.202 134.486 172.525 138.116 L 173.118 144.827 L 168.268 147.192 L 163.472 149.557 L 163.364 146.862 C 163.256 145.322 163.094 143.726 162.987 143.286 C 162.879 142.846 162.394 134.541 161.963 124.86 C 161.478 115.18 160.939 105.994 160.777 104.509 C 160.615 102.969 160.454 98.624 160.346 94.774 C 160.238 88.833 160.023 87.953 158.729 89.053 C 156.789 90.704 156.196 89.659 155.334 82.893 L 154.633 77.393 L 160.076 74.973 C 172.472 69.527 183.358 68.482 189.124 72.223 Z M 131.568 92.684 C 133.831 103.684 142.023 133.661 145.633 144.111 L 148.22 151.702 L 143.424 154.452 L 138.574 157.202 L 137.55 154.452 C 137.011 152.912 136.526 150.987 136.526 150.162 C 136.526 147.302 134.154 147.137 129.089 149.557 L 124.023 151.977 L 124.4 158.742 C 124.831 165.563 124.777 165.563 120.843 168.093 C 115.292 171.723 115.562 173.318 115.13 129.316 L 114.753 89.439 L 121.598 86.578 C 125.37 84.983 128.711 83.718 129.089 83.663 C 129.412 83.608 130.544 87.678 131.568 92.684 Z M 358.615 96.919 C 361.04 106.269 370.74 109.68 381.573 105.059 C 387.77 102.419 391.758 102.914 395.315 106.819 C 401.351 113.42 396.878 120.735 381.95 128.711 C 375.375 132.231 371.818 134.871 370.363 137.346 C 366.483 143.891 356.082 147.082 352.094 143.011 C 347.998 138.831 354.627 131.186 363.249 130.141 C 373.812 128.876 390.357 120.35 392.513 115.125 C 395.477 107.975 390.842 105.609 380.279 108.965 C 368.153 112.815 357.644 108.855 355.866 99.779 C 355.489 97.854 354.95 95.379 354.627 94.334 C 354.303 93.124 354.68 92.409 355.758 92.409 C 356.782 92.409 357.86 94.114 358.615 96.919 Z M 86.46 104.729 C 94.598 108.525 96.753 128.876 90.34 142.131 C 88.346 146.202 88.885 148.512 91.903 148.512 C 94.059 148.512 99.717 155.882 100.903 160.282 C 104.622 173.923 98.37 194.274 87.43 204.45 C 82.364 209.125 66.682 219.521 65.927 218.696 C 64.472 217.265 63.34 200.765 64.634 200.05 C 65.819 199.39 65.712 197.519 64.149 189.544 C 63.071 184.209 60.43 170.458 58.274 158.962 C 53.963 135.751 54.125 136.301 51.969 139.216 C 50.73 140.976 50.352 141.086 49.921 139.711 C 44.047 121.175 43.292 123.925 56.388 114.905 C 71.316 104.729 80.047 101.759 86.46 104.729 Z" style="" fill="#000000" stroke="none"/>
  <path d="M 321.321 47.031 C 314.746 62.762 302.244 115.565 305.1 115.51 C 305.746 115.455 309.681 114.575 313.776 113.475 L 321.321 111.55 L 322.453 106.654 C 323.854 100.769 329.459 98.459 329.459 103.794 C 329.459 109.57 329.89 109.79 338.567 107.865 C 348.752 105.664 348.106 107.369 346.219 88.008 C 345.303 78.768 344.549 64.852 344.549 57.042 L 344.549 42.906 L 333.77 42.906 L 323.046 42.906 L 321.321 47.031 Z M 340.399 55.007 C 340.183 62.872 341.477 83.773 342.986 96.809 L 343.686 102.859 L 338.728 104.014 C 332.908 105.389 332.692 105.279 332.692 100.494 C 332.692 92.904 320.782 95.379 319.112 103.299 C 318.196 107.92 317.926 108.195 313.022 109.46 C 310.22 110.175 307.902 110.56 307.902 110.23 C 307.902 108.36 317.172 72.883 320.621 61.607 L 324.824 47.856 L 331.184 47.196 C 341.154 46.206 340.615 45.711 340.399 55.007 Z" fill="#000000" stroke="none"/>
  <path d="M 328.004 61.222 C 327.627 61.662 327.303 63.972 327.249 66.447 C 327.249 68.922 326.118 74.423 324.663 78.658 C 321.645 87.788 321.645 87.788 327.519 86.963 L 332.154 86.358 L 331.722 78.658 C 331.507 74.423 331.237 69.692 331.076 68.207 C 330.968 66.667 330.806 64.357 330.698 62.982 C 330.537 60.562 329.405 59.792 328.004 61.222 Z" fill="#000000" stroke="none"/>
  <path d="M 273.357 46.261 C 260.585 48.901 255.088 51.321 255.088 54.292 C 255.142 62.982 256.597 71.508 258.052 71.508 C 259.345 71.508 259.507 72.773 259.022 78.383 C 258.645 82.178 258.268 88.723 258.16 92.959 C 258.106 97.744 257.459 101.319 256.489 102.419 C 255.627 103.519 254.711 108.085 254.334 113.86 L 253.687 123.54 L 259.13 122.825 C 289.794 118.645 308.064 98.404 297.555 80.253 L 295.291 76.403 L 297.77 72.443 C 305.208 60.397 301.705 45.656 291.142 44.886 C 289.687 44.831 287.154 44.611 285.483 44.501 C 283.866 44.446 278.423 45.216 273.357 46.261 Z M 293.944 51.156 C 301.166 55.007 297.986 72.003 289.417 75.028 C 286.13 76.183 285.268 78.108 288.07 78.108 C 298.256 78.108 298.309 98.624 288.124 107.424 C 282.357 112.43 259.615 120.515 257.513 118.315 C 256.543 117.325 258.753 106.709 259.938 106.709 C 260.854 106.709 261.447 102.639 261.932 92.684 C 262.363 84.983 262.956 75.193 263.333 70.957 C 263.98 63.807 263.926 63.367 262.256 64.797 C 259.884 66.777 259.669 66.447 259.238 59.957 L 258.914 54.512 L 268.615 52.091 C 280.148 49.176 289.525 48.846 293.944 51.156 Z" fill="#000000" stroke="none"/>
  <path d="M 271.525 61.332 C 266.136 61.827 265.651 63.147 270.286 64.797 C 272.657 65.622 273.411 66.502 273.034 67.877 C 270.232 78.328 270.986 79.428 278.369 76.018 C 283.489 73.653 286.345 70.022 286.345 66.007 C 286.345 60.672 284.567 60.122 271.525 61.332 Z M 281.711 66.722 C 282.142 68.042 279.232 71.508 277.669 71.508 C 276.483 71.508 276.268 66.722 277.399 65.622 C 278.477 64.522 281.226 65.237 281.711 66.722 Z" fill="#000000" stroke="none"/>
  <path d="M 272.818 86.853 C 270.932 87.623 270.501 88.888 270.339 94.224 C 270.178 97.744 269.854 101.539 269.531 102.584 C 268.399 106.489 277.723 103.794 282.789 98.789 C 290.818 90.869 283.705 82.398 272.818 86.853 Z M 281.441 91.199 C 282.519 92.959 280.795 95.764 277.615 97.414 L 274.489 99.064 L 274.489 95.379 C 274.489 90.539 279.286 87.678 281.441 91.199 Z" fill="#000000" stroke="none"/>
  <path d="M 224.1 54.127 L 204.43 59.737 L 204.43 66.447 C 204.483 75.963 205.507 81.628 207.178 81.023 C 208.202 80.583 208.687 84.268 209.226 96.039 C 209.927 112.045 211.867 135.531 212.567 136.301 C 212.783 136.521 217.471 134.706 222.968 132.231 C 228.465 129.811 235.579 126.896 238.759 125.795 C 245.226 123.54 246.142 122.055 245.819 114.575 C 245.711 111.77 245.549 107.644 245.495 105.444 L 245.387 101.374 L 237.034 104.014 C 232.453 105.499 228.573 106.709 228.411 106.709 C 228.25 106.709 228.142 105.719 228.142 104.454 C 228.142 101.979 232.238 99.779 239.19 98.459 C 243.663 97.579 243.717 97.359 243.232 81.408 C 243.016 73.983 243.286 74.093 229.489 78.548 C 227.711 79.153 227.064 78.933 227.064 77.668 C 227.064 75.468 231.429 73.213 239.19 71.453 C 242.585 70.682 245.441 69.527 245.495 68.867 C 247.004 49.286 247.004 48.406 245.387 48.461 C 244.525 48.516 234.932 51.046 224.1 54.127 Z M 242.477 59.682 C 241.723 66.502 242.154 66.117 232.076 68.702 L 224.046 70.737 L 223.561 77.448 C 222.861 86.083 223.184 86.303 230.891 83.058 C 239.944 79.263 239.998 79.263 239.998 86.963 C 239.998 91.309 239.513 93.729 238.651 93.949 C 237.896 94.169 234.286 95.214 230.567 96.314 L 223.831 98.239 L 223.831 105.774 C 223.831 109.9 223.992 113.31 224.208 113.31 C 224.37 113.31 227.388 112.155 230.944 110.67 C 243.07 105.719 242.316 105.554 241.938 113.365 L 241.615 120.185 L 235.687 122.055 C 232.453 123.1 226.525 125.465 222.591 127.336 L 215.477 130.636 L 214.831 125.795 C 214.453 123.155 213.861 110.56 213.429 97.854 C 212.729 76.128 212.621 74.808 210.735 75.413 C 209.01 75.963 208.741 75.358 208.579 71.012 C 208.471 68.262 208.364 65.457 208.31 64.742 C 208.256 64.027 213.915 61.882 221.136 59.902 C 228.25 57.867 235.31 55.777 236.765 55.172 C 242.477 52.806 243.178 53.357 242.477 59.682 Z" fill="#000000" stroke="none"/>
  <path d="M 417.572 51.816 C 413.477 61.937 407.872 85.863 405.501 103.134 L 404.908 107.81 L 408.411 107.81 C 410.351 107.81 414.393 107.479 417.411 107.094 L 422.962 106.434 L 424.309 100.274 L 425.71 94.059 L 427.111 97.359 C 427.866 99.174 428.566 101.759 428.566 103.079 C 428.62 106.764 430.237 107.094 438.644 105.004 C 450.285 102.144 450.554 100.714 443.171 83.938 L 440.638 78.218 L 451.902 66.942 C 458.045 60.782 462.734 55.337 462.303 54.952 C 460.955 53.797 449.045 49.506 447.159 49.506 C 446.189 49.506 443.117 51.816 440.315 54.622 L 435.249 59.737 L 436.381 55.117 C 437.782 49.396 438.267 49.726 427.866 48.846 L 419.081 48.076 L 417.572 51.816 Z M 432.662 53.302 C 433.201 53.742 428.297 65.622 426.896 67.217 C 425.279 69.032 424.794 73.708 426.195 73.708 C 426.68 73.708 431.369 69.252 436.704 63.807 C 442.039 58.362 447.159 53.907 448.129 53.907 C 450.716 53.907 456.806 56.272 456.429 57.152 C 455.512 59.352 437.728 74.808 436.057 74.808 C 433.201 74.808 432.716 76.458 434.98 78.548 C 437.027 80.418 442.093 91.089 443.71 96.809 C 444.572 99.834 444.411 99.999 439.56 101.154 C 432.554 102.859 432.5 102.859 431.584 98.789 C 429.483 89.659 422.045 78.108 422.962 85.368 C 423.069 86.523 422.477 90.979 421.56 95.269 L 419.89 103.134 L 414.932 103.794 C 412.183 104.179 409.758 104.289 409.489 104.069 C 408.68 103.244 414.393 76.073 417.95 63.697 L 421.237 52.036 L 426.842 52.586 C 429.914 52.861 432.5 53.192 432.662 53.302 Z" fill="#000000" stroke="none"/>
  <path d="M 173.711 83.608 C 172.525 84.158 169.723 84.598 167.514 84.653 C 162.609 84.708 162.286 86.248 166.813 87.898 L 170.154 89.053 L 169.777 100.109 C 169.346 112.815 169.346 112.815 176.298 105.884 C 187.022 95.324 185.082 78.713 173.711 83.608 Z M 178.346 89.328 C 180.34 91.364 179.909 95.104 177.214 98.569 L 174.789 101.704 L 174.142 95.709 C 173.334 87.898 174.789 85.698 178.346 89.328 Z" fill="#000000" stroke="none"/>
  <path d="M 122.783 104.729 C 121.867 105.884 121.759 107.369 122.514 109.955 C 123.053 111.935 123.43 119.195 123.268 126.126 C 123.16 133.001 123.376 138.611 123.807 138.611 C 125.424 138.611 132.214 134.871 132.214 133.991 C 132.214 133.496 130.813 128.051 129.089 121.835 C 127.364 115.62 125.532 108.855 125.047 106.819 C 124.238 103.684 123.915 103.354 122.783 104.729 Z" fill="#000000" stroke="none"/>
  <path d="M 55.095 120.79 C 53.316 122.385 52.4 123.375 53.101 122.88 C 53.855 122.385 54.771 122.55 55.149 123.21 C 55.634 124.035 56.388 123.76 57.304 122.44 C 58.113 121.34 59.298 120.405 59.891 120.295 C 62.478 120.02 62.64 119.855 61.077 118.81 C 58.867 117.38 58.813 117.38 55.095 120.79 Z" fill="#000000" stroke="none"/>
  <path d="M 68.244 127.171 C 65.388 128.711 61.993 130.196 60.807 130.416 C 56.173 131.351 56.388 133.001 61.346 134.266 L 66.25 135.531 L 66.951 143.616 C 67.382 148.072 67.436 152.252 67.005 152.857 C 64.957 156.322 70.131 153.187 74.765 148.182 C 88.238 133.661 83.604 118.755 68.244 127.171 Z M 78.107 133.111 C 78.376 135.696 73.364 145.212 71.747 145.212 C 69.753 145.212 69.538 132.671 71.478 131.186 C 74.496 128.986 77.729 129.921 78.107 133.111 Z" fill="#000000" stroke="none"/>
  <path d="M 78.699 149.997 C 78.053 150.822 76.113 152.472 74.388 153.792 C 71.478 156.047 71.424 156.157 73.741 156.157 C 75.089 156.212 76.167 155.662 76.167 155.057 C 76.167 154.397 76.652 154.177 77.244 154.562 C 77.837 154.947 79.077 154.507 79.939 153.627 C 80.801 152.747 82.095 151.812 82.795 151.592 C 84.358 151.042 83.011 148.512 81.232 148.567 C 80.532 148.567 79.4 149.227 78.699 149.997 Z" fill="#000000" stroke="none"/>
  <path d="M 76.598 164.573 C 73.688 166.113 71.155 167.598 70.939 167.763 C 70.777 167.983 71.424 172.493 72.394 177.828 C 73.418 183.164 74.334 188.774 74.55 190.314 C 75.358 197.024 89.208 185.199 90.825 176.398 C 92.873 165.123 86.083 159.457 76.598 164.573 Z M 87.592 172.163 C 88.616 176.398 80.101 188.059 77.729 185.694 C 76.274 184.154 75.951 170.953 77.406 169.798 C 81.286 166.553 86.514 167.763 87.592 172.163 Z" fill="#000000" stroke="none"/>
  <path d="M 85.921 190.919 C 83.28 193.559 81.394 195.979 81.664 196.309 C 82.364 196.969 91.256 188.169 91.256 186.849 C 91.256 185.529 91.202 185.529 85.921 190.919 Z" fill="#000000" stroke="none"/>
  <g style="">
    <path style="stroke: rgb(0, 0, 0);" d="M 27.931 164.081 C 30.36 169.822 30.286 177.073 33.055 182.612 C 36.67 189.841 42.242 198.021 44.397 206.204 C 45.158 209.094 44.201 211.799 44.664 214.588 C 45.6 220.234 47.751 223.753 50.159 228.567 C 51.619 231.487 52.914 236.693 55.588 238.693 C 62.927 244.181 70.717 241.949 79.152 241.949 C 82.318 241.949 85.463 242.606 88.617 242.977 C 89.928 243.131 92.963 243.815 92.555 242.56 C 91.523 239.386 98.028 239.864 100.657 239.337 C 109.566 237.552 120.3 237.483 129.469 237.483 C 138.43 237.483 148.259 235.46 156.946 233.28 C 158.284 232.944 161.32 232.311 162.345 231.275 C 162.905 230.709 160.444 228.735 161.007 229.297 C 161.73 230.02 166.277 229.296 167.129 229.296 C 173.461 229.296 179.286 228.91 185.473 228.173 C 198.227 226.655 210.129 225.118 222.402 222.4 C 223.533 222.149 232 221.498 232.831 219.717 C 235.913 213.108 234.394 204.07 234.394 197.016 C 234.394 177.138 234.394 157.26 234.394 137.381 C 234.394 136.306 233.64 139.406 233.429 140.461 C 233.062 142.293 233.701 146.335 232.826 148.055 C 231.596 150.474 220.063 151.368 218.373 151.562 C 211.33 152.368 204.254 151.479 197.243 152.115 C 186.149 153.123 174.657 155.528 163.925 157.873 C 155.454 159.724 145.339 155.928 136.497 158.102 C 135.344 158.385 133.417 157.58 132.356 158.102 C 126.645 160.909 126.342 176.714 117.955 173.918 C 112.54 172.113 113.807 155.178 104.356 159.586 C 101.434 160.949 102.433 166.468 101.835 168.835 C 100.919 172.467 101.618 177.437 102.565 181.033 C 104.043 186.647 101.247 193.41 99.837 198.694 C 97.394 207.845 82.166 209.606 75.269 214.126 C 72.759 215.771 71.85 224.516 67.607 223.102 C 63.733 221.81 62.39 212.731 60.711 209.755 C 57.267 203.652 61.797 201.532 63.407 194.985 C 65.225 187.585 62.424 179.92 59.915 173.258 C 59.253 171.5 56.328 161.634 53.713 160.98 C 45.01 158.805 35.379 162.427 27.26 162.427"/>
    <path style="stroke: rgb(0, 0, 0);" d="M 231.011 154.785 C 239.14 151.102 248.206 150.463 256.985 149.535 C 269.308 148.232 279.369 147.031 292.154 148.629 C 296.271 149.144 300.846 147.096 304.904 146.414 C 310.283 145.511 316.781 146.928 322.217 146.928 C 334.93 146.928 347.684 147.049 360.188 149.084 C 370.809 150.812 384.474 149.89 394.495 146.512 C 398.977 145 407.273 147.116 412.063 147.116 C 421.79 147.116 428.386 143.233 438.187 145.384 C 439.921 145.765 443.178 145.505 444.733 146.536 C 446.804 147.909 443.762 156.574 443.369 158.046 C 440.223 169.831 439.001 181.549 434.451 192.95 C 430.275 203.414 426.295 214.1 421.927 224.56 C 421.433 225.741 420.902 233.268 419.427 233.751 C 416.868 234.59 412.003 232.473 409.313 231.874 C 401.132 230.053 395.199 229.559 386.878 229.559 C 373.476 229.559 359.651 230.564 346.294 229.559 C 321.295 227.68 296.7 223.066 271.758 221.085 C 261.934 220.304 249.037 219.487 239.186 221.085 C 238.02 221.274 229.439 222.591 228.663 221.04 C 223.414 210.541 221.96 196.869 221.96 185.298 C 221.96 181.779 221.15 177.028 222.282 173.638 C 224.412 167.256 229.721 159.519 229.721 152.775"/>
  </g>
  <g>
    <path d="M 419.081 170.843 C 416.171 174.033 416.01 175.958 418.92 173.263 C 420.105 172.163 421.399 171.613 421.83 171.998 C 422.854 173.043 416.71 179.313 414.662 179.258 C 413.261 179.258 413.315 179.038 414.878 178.103 C 416.764 177.003 416.602 172.383 414.608 170.128 C 413.962 169.468 408.195 171.613 406.255 173.263 C 406.093 173.373 406.525 175.958 407.171 178.983 C 408.411 184.319 408.357 184.704 405.069 189.544 C 401.028 195.484 400.92 196.419 403.992 198.124 C 406.471 199.445 406.632 199.335 409.92 193.999 C 411.051 192.129 411.213 192.184 412.291 194.934 C 413.423 197.849 413.531 197.904 417.519 196.474 C 422.261 194.824 422.261 194.769 419.566 187.784 L 417.519 182.504 L 421.992 177.828 C 427.004 172.603 427.219 171.888 424.578 169.853 C 422.045 167.873 421.83 167.928 419.081 170.843 Z M 412.075 175.023 C 410.674 177.003 410.674 177.773 412.022 181.129 C 413.584 184.869 413.531 184.979 409.542 189.709 C 404.584 195.484 403.56 195.264 407.441 189.269 C 410.513 184.539 411.051 180.578 409.111 176.893 C 407.872 174.528 409.165 172.768 412.237 172.713 C 413.369 172.713 413.315 173.208 412.075 175.023 Z" stroke="none" style="fill: transparemt;"/>
    <path d="M 392.243 170.513 C 384.213 171.448 384.483 171.173 384.321 176.618 C 384.267 179.038 383.459 185.034 382.543 190.039 C 380.495 200.985 379.956 200.325 389.602 198.784 C 396.986 197.574 397.578 197.299 398.117 194.494 C 398.926 190.369 398.441 189.819 394.399 190.149 C 392.405 190.369 390.896 189.984 390.896 189.324 C 390.896 188.664 392.62 188.114 394.722 188.114 C 398.063 188.114 398.549 187.729 399.141 184.814 C 400.058 180.193 399.842 179.863 396.285 180.248 C 394.507 180.413 393.052 180.028 393.052 179.423 C 393.052 178.763 394.668 178.213 396.716 178.213 C 400.758 178.213 402.213 176.893 403.345 172.438 C 404.153 169.028 404.477 169.083 392.243 170.513 Z M 398.279 173.923 C 397.471 174.473 395.369 174.913 393.537 174.913 C 391.704 174.913 389.656 175.518 388.956 176.233 C 388.04 177.168 387.339 177.223 386.531 176.398 C 384.752 174.583 387.608 172.933 393.052 172.493 C 398.602 172.108 400.381 172.603 398.279 173.923 Z M 387.662 186.849 C 386.962 189.654 386.153 192.844 385.83 193.889 C 385.561 194.989 384.968 195.594 384.483 195.319 C 383.567 194.714 385.992 181.184 387.393 178.928 C 388.794 176.563 389.01 181.624 387.662 186.849 Z M 396.285 182.559 C 396.285 184.154 394.183 185.089 392.243 184.319 C 390.68 183.714 390.626 183.439 392.028 182.559 C 394.075 181.239 396.285 181.239 396.285 182.559 Z M 395.207 192.459 C 395.207 193.889 391.165 195.044 389.656 194.054 C 388.74 193.504 389.01 192.954 390.411 192.404 C 393.375 191.249 395.207 191.249 395.207 192.459 Z" stroke="none" style="fill: rgb(255, 255, 255);"/>
    <path d="M 370.956 172.053 C 363.68 175.353 362.118 180.248 364.543 192.074 C 365.189 195.154 364.92 195.539 361.633 196.474 C 357.267 197.739 355.273 207.915 359.369 207.915 C 370.902 207.915 377.908 196.639 374.189 184.154 C 373.597 182.229 374.028 181.734 376.614 181.184 C 379.417 180.633 382.273 175.573 382.273 171.228 C 382.273 169.963 374.297 170.568 370.956 172.053 Z M 377.962 173.648 C 377.962 174.143 376.022 175.353 373.65 176.288 C 368.854 178.213 366.537 182.394 367.722 187.014 C 370.147 196.584 367.345 202.415 360.231 202.415 C 358.13 202.415 360.231 199.115 362.872 198.179 C 367.183 196.639 367.776 194.659 366.052 187.454 C 364.758 181.899 364.812 181.239 366.86 178.433 C 370.04 174.033 377.962 170.623 377.962 173.648 Z" stroke="none" style="fill: rgb(255, 255, 255);"/>
    <path d="M 319.435 173.648 C 318.627 174.638 316.794 177.553 315.447 180.083 C 312.537 185.474 311.621 185.364 310.597 179.313 C 310.22 176.893 309.411 174.638 308.818 174.253 C 307.471 173.428 300.142 179.148 300.95 180.468 C 301.273 181.019 300.519 186.299 299.279 192.129 C 296.747 204.175 296.693 203.9 301.866 202.91 C 305.261 202.25 305.746 201.755 305.746 199.004 C 305.746 197.244 306.232 195.814 306.824 195.814 C 307.417 195.814 307.902 196.749 307.902 197.959 C 307.902 201.04 309.735 201.755 311.136 199.17 C 312.645 196.254 314.315 196.254 313.615 199.115 C 313.13 200.875 313.561 201.315 315.609 201.315 C 319.92 201.26 320.836 199.83 323.154 189.654 C 324.393 184.264 326.118 178.488 326.926 176.838 C 327.734 175.188 328.273 173.813 328.112 173.813 C 327.95 173.813 326.279 173.373 324.393 172.823 C 321.699 171.998 320.675 172.218 319.435 173.648 Z M 322.83 175.738 C 319.92 182.284 316.202 187.949 313.938 189.159 C 312.429 189.984 310.866 191.634 310.489 192.789 C 310.112 194.109 309.465 194.549 308.818 193.889 C 307.579 192.624 309.627 186.629 310.974 187.454 C 311.513 187.784 313.992 185.089 316.471 181.514 C 320.136 176.123 324.285 172.383 322.83 175.738 Z M 306.77 180.138 C 306.285 181.789 305.046 186.134 304.076 189.764 C 301.543 199.445 301.273 199.995 300.627 198.124 C 299.872 196.089 303.699 178.983 305.154 177.938 C 307.255 176.453 307.741 177.113 306.77 180.138 Z M 318.681 192.294 C 318.681 193.394 317.98 195.264 317.118 196.419 C 315.339 198.839 314.639 195.869 316.094 192.074 C 317.01 189.709 318.681 189.874 318.681 192.294 Z" stroke="none" style="fill: rgb(255, 255, 255);"/>
    <path d="M 339.16 172.603 C 331.237 173.538 330.429 174.198 330.698 179.698 C 330.806 182.174 330.052 188.114 328.974 192.844 C 327.95 197.574 327.249 201.645 327.465 201.865 C 327.788 202.195 343.201 200.215 344.171 199.775 C 344.279 199.72 344.71 197.849 345.088 195.649 L 345.842 191.579 L 341.261 192.239 C 337.974 192.679 336.896 192.514 337.435 191.579 C 337.866 190.864 339.645 190.314 341.423 190.314 C 343.902 190.314 344.872 189.654 345.68 187.399 C 347.297 183.109 346.381 181.789 342.339 182.394 C 339.914 182.724 339.106 182.504 339.591 181.679 C 340.022 180.964 342.07 180.413 344.118 180.413 C 347.567 180.413 351.016 176.288 351.016 172.218 C 351.016 171.503 347.621 171.668 339.16 172.603 Z M 345.303 175.628 C 344.926 175.958 342.77 176.673 340.561 177.113 C 338.297 177.553 335.603 178.323 334.579 178.763 C 333.231 179.313 332.692 179.038 332.692 177.828 C 332.692 175.958 334.902 175.188 341.315 174.638 C 345.411 174.308 346.327 174.528 345.303 175.628 Z M 334.471 188.224 C 333.501 191.304 332.692 194.549 332.692 195.319 C 332.692 196.144 332.154 197.134 331.453 197.574 C 330.537 198.124 330.429 197.024 330.968 193.504 C 332.369 184.374 333.824 180.028 335.118 181.349 C 335.926 182.174 335.764 184.099 334.471 188.224 Z M 343.471 184.759 C 343.471 186.134 339.483 187.344 337.974 186.409 C 337.112 185.859 337.219 185.364 338.243 184.704 C 340.183 183.439 343.471 183.439 343.471 184.759 Z M 341.046 194.989 C 340.507 196.639 335.926 197.519 335.926 195.979 C 335.926 194.824 337.704 193.834 340.076 193.724 C 340.83 193.669 341.315 194.219 341.046 194.989 Z" stroke="none" style="fill: rgb(255, 255, 255);"/>
    <path d="M 271.04 175.738 C 264.95 176.123 264.842 176.178 263.765 180.193 C 262.094 186.244 262.256 186.684 265.866 186.134 C 269.046 185.694 269.1 185.749 267.968 188.774 C 266.567 192.569 263.711 206.155 263.711 209.07 C 263.711 210.665 264.304 211.105 266.136 210.72 C 267.483 210.5 269.531 210.225 270.771 210.17 C 272.657 210.115 273.25 208.685 274.92 199.94 C 277.669 186.024 278.208 184.814 281.495 184.814 C 284.19 184.814 284.783 183.989 286.83 177.388 C 287.639 174.693 287.531 174.638 271.04 175.738 Z M 283.112 178.103 C 283.112 179.423 279.124 180.358 273.357 180.413 C 270.663 180.413 267.807 181.019 267.052 181.789 C 265.92 182.889 265.705 182.724 266.028 180.964 C 266.513 178.323 283.112 175.518 283.112 178.103 Z M 272.98 187.289 C 272.603 188.664 271.363 193.394 270.232 197.849 C 267.914 206.87 266.944 208.74 266.944 203.955 C 266.998 200.655 269.747 187.509 270.824 185.804 C 272.01 183.769 273.627 184.869 272.98 187.289 Z" stroke="none" style="fill: rgb(255, 255, 255);"/>
    <path d="M 290.118 176.288 C 289.148 179.258 285.429 195.539 284.729 199.995 L 283.974 204.725 L 287.046 204.01 C 288.717 203.625 290.657 203.185 291.357 202.965 C 292.004 202.745 293.082 199.39 293.782 195.484 C 294.429 191.634 295.723 186.024 296.585 183.054 C 298.848 175.408 298.741 174.913 294.375 174.913 C 292.327 174.913 290.387 175.518 290.118 176.288 Z M 292.651 183.439 C 291.573 186.904 290.172 191.964 289.471 194.714 C 287.8 201.37 286.938 198.399 288.447 191.139 C 290.711 180.413 291.788 177.113 293.19 177.113 C 294.268 177.113 294.16 178.543 292.651 183.439 Z" stroke="none" style="fill: rgb(255, 255, 255);"/>
    <path d="M 200.388 178.488 C 192.088 179.588 190.256 181.349 191.98 186.794 C 192.304 187.949 191.657 193.009 190.472 198.069 C 187.885 209.07 187.238 208.245 197.154 206.705 C 204.052 205.66 205.4 205.11 205.939 203.13 C 207.178 198.399 206.747 197.849 202.543 198.179 C 200.226 198.399 198.609 198.069 198.771 197.464 C 198.879 196.859 200.657 196.199 202.705 196.034 C 205.4 195.759 206.531 195.044 207.016 193.284 C 208.148 188.939 207.771 188.114 204.43 188.114 C 202.651 188.114 201.196 187.619 201.196 187.014 C 201.196 186.409 203.082 185.914 205.4 185.914 C 209.172 185.914 209.711 185.529 210.789 182.449 C 212.837 176.398 213.591 176.673 200.388 178.488 Z M 207.34 181.074 C 206.962 181.459 204.591 182.174 202.058 182.669 C 199.525 183.164 196.507 183.934 195.376 184.374 C 193.921 184.924 193.489 184.759 193.867 183.659 C 194.136 182.834 195.537 181.789 196.939 181.404 C 200.334 180.413 208.202 180.193 207.34 181.074 Z M 195.861 193.504 C 195.268 194.714 194.729 196.804 194.729 198.234 C 194.675 201.095 193.004 204.34 192.034 203.35 C 191.334 202.635 194.244 188.609 195.537 186.629 C 196.831 184.594 197.154 191.084 195.861 193.504 Z M 204.16 190.589 C 203.621 192.239 199.04 193.119 199.04 191.579 C 199.04 190.589 200.819 189.764 203.729 189.324 C 204.214 189.269 204.43 189.819 204.16 190.589 Z M 203.082 200.49 C 202.543 202.14 196.885 203.02 196.885 201.48 C 196.885 200.435 198.986 199.5 202.112 199.225 C 202.867 199.17 203.352 199.72 203.082 200.49 Z" stroke="none" style="fill: rgb(255, 255, 255);"/>
    <path d="M 219.843 178.488 C 217.633 181.954 207.986 206.32 208.579 206.98 C 210.196 208.63 216.07 206.54 217.256 203.9 C 218.495 201.095 220.597 201.315 220.597 204.285 C 220.597 205.605 221.352 205.825 224.046 205.275 C 228.304 204.395 227.765 206.265 228.465 190.589 L 229.112 177.113 L 224.908 177.113 C 222.591 177.113 220.328 177.718 219.843 178.488 Z M 225.232 180.028 C 225.609 180.413 224.801 181.569 223.453 182.669 C 222.106 183.769 220.112 186.794 219.034 189.434 C 218.01 192.019 216.34 196.034 215.424 198.344 C 213.376 203.405 211.328 205.11 212.406 200.875 C 215.046 189.984 222.753 177.498 225.232 180.028 Z M 224.908 193.009 C 224.908 197.464 222.645 199.775 219.843 198.179 C 218.01 197.134 218.01 197.024 219.735 196.309 C 220.759 195.924 221.944 193.944 222.322 191.854 C 223.13 187.289 224.908 188.004 224.908 193.009 Z" stroke="none" style="fill: rgb(255, 255, 255);"/>
    <path d="M 237.519 177.938 C 234.663 182.889 231.376 206.32 233.531 206.1 C 244.094 204.89 245.495 204.395 246.519 201.7 C 248.298 196.969 247.813 195.649 244.579 196.034 C 241.022 196.419 241.022 194.054 244.417 183.989 C 245.549 180.633 246.465 177.718 246.465 177.498 C 246.465 176.728 237.95 177.168 237.519 177.938 Z M 238.759 189.819 C 235.849 202.525 235.471 203.57 234.879 200.875 C 234.34 198.619 237.411 184.484 239.136 181.129 C 241.13 177.278 241.022 180.083 238.759 189.819 Z" stroke="none" style="fill: rgb(255, 255, 255);"/>
    <path d="M 166.705 180.303 C 162.879 180.964 160.346 188.334 163.31 190.204 C 163.957 190.589 163.04 195.484 160.993 202.635 C 159.16 209.125 157.867 214.68 158.136 214.9 C 159.591 216.33 167.244 213.745 167.567 211.765 C 168.322 207.09 168.753 206.485 170.478 207.915 C 171.394 208.685 172.094 210.225 172.094 211.325 C 172.094 213.58 173.819 213.91 179.531 212.7 C 183.466 211.93 183.627 210.94 180.717 205.165 L 178.561 200.875 L 181.687 197.519 C 193.597 184.649 186.699 176.673 166.705 180.303 Z M 182.549 183.219 C 182.765 183.989 180.663 184.374 176.675 184.319 C 173.28 184.319 169.13 184.649 167.514 185.089 C 163.903 186.134 163.418 184.099 166.975 182.614 C 170.154 181.294 182.064 181.734 182.549 183.219 Z M 167.244 196.584 C 165.034 205.55 162.34 212.26 161.639 210.445 C 161.154 209.015 165.142 193.339 166.921 189.929 C 168.915 186.079 169.076 189.104 167.244 196.584 Z M 177.16 189.929 C 177.591 191.139 176.945 192.514 175.22 193.889 C 172.202 196.419 171.016 194.439 173.118 190.369 C 174.573 187.619 176.244 187.454 177.16 189.929 Z M 181.795 189.324 C 181.795 193.284 172.364 202.305 169.885 200.765 C 168.052 199.555 168.807 198.454 172.687 196.584 C 174.789 195.539 177.322 193.229 178.346 191.414 C 180.178 188.059 181.795 187.124 181.795 189.324 Z" stroke="none" style="fill: rgb(255, 255, 255);"/>
  </g>
</svg>
