<svg xmlns="http://www.w3.org/2000/svg" width="164" height="99" viewBox="0 0 164 99" version="1.1"><path d="M 143.881 3.453 L 143.428 3.905 113.080 10.033 L 82.731 16.162 67.115 15.102 L 51.500 14.043 41 13.271 L 30.500 12.500 22.500 12.734 L 14.500 12.967 12.159 14.201 L 9.819 15.435 7.909 19.178 L 6 22.920 6 27.344 L 6 31.768 12.008 58.134 L 18.016 84.500 19.143 87.284 L 20.271 90.068 22.766 92.031 L 25.261 93.993 29.049 95.013 L 32.838 96.033 56.169 91.399 L 79.500 86.764 106.674 87.947 L 133.847 89.130 136.907 87.548 L 139.966 85.966 141.507 82.987 L 143.047 80.008 150.524 48.097 L 158 16.186 158 12.182 L 158 8.178 154.923 5.589 L 151.847 3 148.090 3 L 144.333 3 143.881 3.453 M 147.917 8.401 L 147.500 8.803 129.500 12.480 L 111.500 16.157 97.066 19.107 L 82.633 22.058 70.566 21.065 L 58.500 20.072 43 18.997 L 27.500 17.922 23.500 17.433 L 19.500 16.944 18.008 17.930 L 16.517 18.917 17.508 19.829 L 18.500 20.741 50.500 22.953 L 82.500 25.165 112.152 19.126 L 141.804 13.087 144.328 12.454 L 146.853 11.820 148.581 9.910 L 150.310 8 149.322 8 L 148.333 8 147.917 8.401 M 113.223 28.557 L 111 30.113 111 32.022 L 111 33.930 112.934 34.965 L 114.869 36 119.466 36 L 124.063 36 124.664 37.567 L 125.266 39.134 124.108 40.292 L 122.951 41.449 117.736 41.975 L 112.521 42.500 112.187 44.250 L 111.853 46 115.677 45.994 L 119.500 45.989 123.216 44.957 L 126.933 43.925 128.466 42.391 L 130 40.857 130 38.429 L 130 36 128 34 L 126 32 120.750 31.881 L 115.500 31.762 120.750 30.805 L 126 29.847 126 28.424 L 126 27 120.723 27 L 115.445 27 113.223 28.557 M 98.078 28.902 L 91.656 29.500 91.245 30.750 L 90.833 32 94.310 32 L 97.786 32 98.393 33.582 L 99 35.164 99 40.523 L 99 45.882 100.087 46.554 L 101.174 47.226 102.255 46.145 L 103.336 45.064 103.101 38.578 L 102.866 32.092 106.183 31.232 L 109.500 30.373 109.281 29.436 L 109.062 28.500 106.781 28.402 L 104.500 28.305 98.078 28.902 M 75.750 30.689 L 74 31.147 74.009 34.323 L 74.017 37.500 74.648 42.750 L 75.279 48 77.084 48 L 78.890 48 79.195 43.259 L 79.500 38.518 81.329 38.170 L 83.158 37.823 85.466 38.402 L 87.774 38.981 88.478 42.733 L 89.182 46.485 89.623 47.199 L 90.064 47.913 91.532 47.349 L 93 46.786 93 43.048 L 93 39.310 91 37.500 L 89 35.690 89 34.045 L 89 32.400 87.800 31.200 L 86.600 30 82.050 30.116 L 77.500 30.232 75.750 30.689 M 59.500 31.735 L 55.500 32.134 54.638 32.979 L 53.776 33.824 54.504 42.042 L 55.231 50.261 61.366 49.627 L 67.500 48.994 70 47.148 L 72.500 45.302 72.797 42.849 L 73.095 40.396 71.047 38.543 L 69 36.690 69 35.402 L 69 34.113 66.777 32.557 L 64.555 31 64.027 31.168 L 63.500 31.336 59.500 31.735 M 35.750 33.689 L 34 34.147 34 41.632 L 34 49.118 33 48.500 L 32 47.882 32 49.918 L 32 51.954 34.483 53.581 L 36.966 55.208 39.961 54.164 L 42.956 53.119 43.638 54.224 L 44.320 55.328 41.637 57.636 L 38.953 59.945 38.930 60.722 L 38.908 61.500 36.454 61.178 L 34 60.857 33.850 62.928 L 33.700 65 33.600 66.250 L 33.500 67.500 35.250 67.375 L 37 67.250 38.059 67.125 L 39.118 67 38.395 65.830 L 37.672 64.660 39.336 65.299 L 41 65.937 41 63.910 L 41 61.882 41.908 62.443 L 42.815 63.004 45.158 62.065 L 47.500 61.127 44.250 61.063 L 41 61 41 59.941 L 41 58.882 41.956 59.473 L 42.912 60.064 44.637 57.431 L 46.362 54.798 45.359 53.207 L 44.355 51.616 48.428 49.558 L 52.500 47.500 52.810 44.296 L 53.120 41.092 51.060 39.805 L 49 38.519 49 36.959 L 49 35.400 47.800 34.200 L 46.600 33 42.050 33.116 L 37.500 33.232 35.750 33.689 M 78.500 34 L 77.882 35 80.941 35 L 84 35 84 34 L 84 33 81.559 33 L 79.118 33 78.500 34 M 59 36 L 59 37 60.750 36.985 L 62.500 36.969 64 36 L 65.500 35.031 62.250 35.015 L 59 35 59 36 M 39 37 L 39 38 42 38 L 45 38 45 37 L 45 36 42 36 L 39 36 39 37 M 59 42.776 L 59 45.667 59.508 46.175 L 60.016 46.683 63.758 46.074 L 67.500 45.466 67.500 42.983 L 67.500 40.500 63.250 40.193 L 59 39.885 59 42.776 M 39.667 41.667 L 39 42.333 39 45.167 L 39 48 42.345 48 L 45.690 48 47.392 46.119 L 49.095 44.238 47.476 42.619 L 45.857 41 43.095 41 L 40.333 41 39.667 41.667 M 34.251 51 L 34.654 52.500 37.577 52.659 L 40.500 52.817 38 52.308 L 35.500 51.798 34.674 50.649 L 33.848 49.500 34.251 51 M 42.405 58.155 L 41.691 59.309 42.845 58.595 L 44 57.882 44 57.441 L 44 57 43.559 57 L 43.118 57 42.405 58.155 M 123.750 57.728 L 120 58.121 120 60.751 L 120 63.382 118.591 61.456 L 117.182 59.529 113.098 59.636 L 109.014 59.743 107.507 60.994 L 106 62.245 106 64.422 L 106 66.600 107.200 67.800 L 108.400 69 112.060 69 L 115.720 69 117.610 66.478 L 119.500 63.956 120.045 66.228 L 120.590 68.500 122.045 68.500 L 123.500 68.500 123.810 64.750 L 124.121 61 125.560 61 L 127 61 127 62.059 L 127 63.118 128 62.500 L 129 61.882 129 63.441 L 129 65 128.031 65 L 127.063 65 127.638 66.500 L 128.214 68 130.208 68 L 132.201 68 131.843 63.500 L 131.486 59 132.802 59 L 134.118 59 133.500 60 L 132.882 61 134.441 61 L 136 61 136 64 L 136 67 137 67 L 138 67 138 64.571 L 138 62.143 136.500 60.643 L 135 59.143 135 58.456 L 135 57.770 137.465 59.385 L 139.930 61 141 59 L 142.070 57 141.035 57 L 140 57 140 57.975 L 140 58.950 137.435 57.975 L 134.870 57 131.185 57.168 L 127.500 57.336 123.750 57.728 M 96.500 59.716 L 93.500 60.167 91.703 61.781 L 89.905 63.396 90.203 65.940 L 90.500 68.485 93.086 69.718 L 95.672 70.952 99.924 70.226 L 104.176 69.500 104.112 68.500 L 104.049 67.500 99.275 67 L 94.500 66.500 94.500 65 L 94.500 63.500 99 63 L 103.500 62.500 103.500 61 L 103.500 59.500 101.500 59.383 L 99.500 59.266 96.500 59.716" stroke="none" fill="#011820" fill-rule="evenodd"/></svg>