<svg xmlns="http://www.w3.org/2000/svg" width="251" height="250" viewBox="0 0 251 250" version="1.1"><path d="M 0.102 67.750 C 0.159 105.013, 0.533 134.150, 0.935 132.500 C 8.251 102.448, 53.082 108.001, 52.978 138.946 C 52.879 168.555, 11.546 175.742, 1.905 147.827 C 0.075 142.527, 0.065 142.776, 0.033 196.250 L 0 250 26 250 L 52 250 52 230.500 L 52 211 57.250 210.999 C 158.744 210.975, 245.292 117.725, 217.813 38 C 213.801 26.362, 213.614 27.131, 221.500 22.853 C 230.406 18.023, 229.782 17.910, 234.724 25.250 C 290.919 108.714, 196.448 236.452, 69 249.331 C 67.075 249.526, 107.350 249.644, 158.500 249.593 L 251.500 249.500 251.742 124.750 L 251.983 0 193.742 0.122 C 159.173 0.194, 137.736 0.577, 141 1.063 C 243.241 16.289, 196.498 168.628, 86.527 178.594 L 79 179.276 79 162.210 L 79 145.144 84.750 144.501 C 133.234 139.079, 169.952 94.755, 160.620 52.915 C 148.360 -2.056, 62.403 8.057, 36.913 67.469 L 34.325 73.500 28.663 73.800 C 21.839 74.161, 21.727 73.764, 26 64.339 C 41.100 31.037, 75.433 6.741, 116 0.648 C 117.375 0.441, 91.838 0.211, 59.250 0.136 L 0 0 0.102 67.750 M 0.472 68 C 0.472 105.125, 0.597 120.313, 0.750 101.750 C 0.902 83.188, 0.902 52.813, 0.750 34.250 C 0.597 15.688, 0.472 30.875, 0.472 68 M 93.152 39.018 C 67.093 44.479, 48.358 76.160, 59.158 96.500 C 74.407 125.216, 121.668 110.963, 130.007 75.133 C 135.276 52.491, 116.528 34.119, 93.152 39.018 M 0.466 196.500 C 0.466 226.200, 0.594 238.206, 0.749 223.179 C 0.905 208.153, 0.905 183.853, 0.749 169.179 C 0.593 154.506, 0.466 166.800, 0.466 196.500" stroke="none" fill="#000000" fill-rule="evenodd"/></svg>