<svg height="2441" viewBox="-30.31882822 -28.68736083 92.20420359 90.93121477" width="2500"
    xmlns="http://www.w3.org/2000/svg">
    <path d="M 54.8 -21.9 C 53.3 -23.5 51.6 -25 49.9 -26.4 C 49.3 -26.9 48.6 -27.1 47.8 -27 C 37.7 -25.2 27.4 -24.2 17.1 -24.1 C 6.8 -24.3 -3.4 -25.3 -13.6 -27.1 C -14.3 -27.2 -15.1 -27 -15.7 -26.6 C -17.4 -25.1 -19.1 -23.6 -20.7 -21.9 C -21.2 -21.5 -21.5 -20.8 -21.6 -20.2 v 6.3 s 0 4.5 0.1 7.1 C -20.7 10.9 -17.5 28.4 -11.7 45.1 C -11.6 45.5 -11.3 45.9 -11 46.2 c 7.8 7.2 19.9 13.1 28.1 13.1 s 20.2 -5.9 28.1 -13.1 C 45.6 45.9 45.8 45.5 46 45.1 C 51.7 28.4 54.9 10.9 55.6 -6.8 c 0 -2.6 0.1 -4.9 0.1 -7 v -6.4 C 55.7 -20.8 55.3 -21.4 54.8 -21.9 z m -43.5 48.8 l -0.1 0.3 c -3.1 5.8 -8 6.5 -13.6 4.1 s -10.3 -7.2 -8.3 -13.9 c 1.9 -6.1 10.8 -3.6 15 -2.6 c 5.8 1.6 10.3 5.2 7.2 11.8 c 0.1 -0.2 0.2 -0.2 -0.1 0.3 z m 33.7 -4.2 c -1.4 6.1 -7.2 9.3 -13 10 c -5.3 0.6 -9.9 -4.8 -10.1 -10.4 v -0.3 v -0.2 c 0.2 -6.6 9.3 -7.8 13.9 -8.2 c 6.1 -0.6 10.9 1.6 9.2 9 z" fill="currentColor"/>
</svg>
