<?xml version="1.0" encoding="utf-8"?>
<svg width="266" height="263" viewBox="0 0 266 263" version="1.1" xmlns="http://www.w3.org/2000/svg">
  <defs/>
  <path d="M 117.500 6.608 L 114.500 7.048 107 8.644 L 99.500 10.240 91 13.235 L 82.500 16.229 76.500 19.224 L 70.500 22.219 62.248 27.675 L 53.996 33.130 45.580 41.096 L 37.164 49.063 31.656 56.281 L 26.147 63.500 21.989 70.868 L 17.831 78.237 14.415 87.082 L 10.999 95.928 8.831 104.714 L 6.663 113.500 6.581 129.500 L 6.500 145.500 7.887 152.500 L 9.273 159.500 12.071 168.139 L 14.869 176.778 19.342 185.639 L 23.815 194.500 29.079 202 L 34.343 209.500 43.616 218.650 L 52.890 227.800 61.195 233.292 L 69.500 238.785 77.500 242.774 L 85.500 246.762 93.625 249.326 L 101.751 251.889 110.125 253.666 L 118.500 255.444 134 255.432 L 149.500 255.421 157.947 253.604 L 166.395 251.788 173.568 249.446 L 180.741 247.105 189.120 243.105 L 197.500 239.105 205 234.155 L 212.500 229.204 221.253 221.009 L 230.006 212.814 236.350 204.361 L 242.694 195.909 247.251 187.204 L 251.808 178.500 254.910 169 L 258.013 159.500 259.505 151 L 260.997 142.500 260.999 130.881 L 261 119.262 259.452 110.385 L 257.904 101.509 254.919 92.600 L 251.935 83.691 247.281 74.681 L 242.627 65.671 236.886 58.085 L 231.145 50.500 226.322 45.394 L 221.500 40.289 215.500 35.271 L 209.500 30.253 202.916 26.142 L 196.332 22.030 186.880 17.553 L 177.428 13.076 165.464 9.935 L 153.500 6.795 137 6.481 L 120.500 6.168 117.500 6.608 M 70 42.985 L 70 43.969 80.059 57.985 L 90.118 72 90.884 72 L 91.650 72 98.952 69.516 L 106.254 67.033 110.377 70.247 L 114.500 73.461 129 84.907 L 143.500 96.353 147.253 99.677 L 151.006 103 152.503 103 L 154 103 154 101.899 L 154 100.798 147.803 86.793 L 141.606 72.788 139.553 71.504 L 137.500 70.220 104.905 56.110 L 72.309 42 71.155 42 L 70 42 70 42.985 M 83.003 75.910 L 62.505 82.614 62.231 84.057 L 61.956 85.500 101.228 93.908 L 140.500 102.316 143.847 102.779 L 147.193 103.241 146.847 101.689 L 146.500 100.137 126.653 84.568 L 106.807 69 105.153 69.103 L 103.500 69.206 83.003 75.910 M 129.974 104.282 L 128.448 105.500 121.724 112.710 L 115 119.921 115.027 123.210 L 115.054 126.500 118.348 138 L 121.641 149.500 130.571 154.214 L 139.500 158.927 142 158.922 L 144.500 158.916 161.867 137.368 L 179.234 115.820 179.709 114.007 L 180.183 112.193 178.341 111.641 L 176.500 111.090 156.134 107.045 L 135.768 103 133.634 103.032 L 131.500 103.064 129.974 104.282 M 199.557 110.250 L 199.176 111.500 198.088 114.899 L 197 118.298 197 119.649 L 197 121 198.443 121 L 199.887 121 201.443 118.777 L 203 116.555 203 112.777 L 203 109 201.469 109 L 199.937 109 199.557 110.250 M 175.033 122.739 L 168 131.478 168 133.270 L 168 135.061 170.577 145.347 L 173.155 155.632 173.991 156.985 L 174.827 158.338 179.395 156.593 L 183.963 154.849 187.831 150.454 L 191.700 146.060 193.850 140.441 L 196 134.822 196 131.358 L 196 127.893 190.387 120.947 L 184.775 114 183.420 114 L 182.066 114 175.033 122.739 M 105.441 150.955 L 101.382 153.020 92.691 162.434 L 84 171.848 84 172.857 L 84 173.865 85.750 174.370 L 87.500 174.875 113.213 177.642 L 138.925 180.408 139.381 179.953 L 139.837 179.497 140.968 171.233 L 142.099 162.970 141.415 161.862 L 140.730 160.754 129.115 155.239 L 117.500 149.724 113.500 149.307 L 109.500 148.889 105.441 150.955 M 85.180 178.957 L 85.500 180.915 98 197.421 L 110.500 213.928 112.137 213.964 L 113.774 214 126.387 199.532 L 139 185.064 139 183.649 L 139 182.233 132.250 181.551 L 125.500 180.868 108.029 178.934 L 90.558 177 87.709 177 L 84.861 177 85.180 178.957 M 123.058 205.178 L 114.922 214.355 115.218 215.892 L 115.514 217.430 123.007 219.174 L 130.500 220.918 137.363 220.959 L 144.226 221 156.613 219.348 L 169 217.696 169 216.493 L 169 215.290 151.066 205.645 L 133.132 196 132.163 196 L 131.195 196 123.058 205.178" stroke="none" fill-rule="evenodd" style=""/>
</svg>