<svg xmlns="http://www.w3.org/2000/svg" width="300" height="300" viewBox="0 0 300 300" version="1.1"><path d="M 61.268 76.890 L 56.036 78.838 53.172 80.878 L 50.308 82.917 46.541 87.086 L 42.775 91.255 40.637 95.878 L 38.500 100.500 38.215 165.250 L 37.931 230 72.938 230 L 107.945 230 108.223 215.776 L 108.500 201.552 115.393 210.252 L 122.286 218.953 127.393 222.449 L 132.500 225.945 136.728 227.420 L 140.956 228.896 146.796 229.556 L 152.637 230.217 158.568 228.992 L 164.500 227.766 169.179 225.402 L 173.859 223.038 178.262 218.769 L 182.665 214.500 187.332 208.658 L 192 202.817 192 216.408 L 192 230 202.250 230.079 L 212.500 230.159 237 230.329 L 261.500 230.500 261.770 168 L 262.040 105.500 260.438 100.500 L 258.836 95.500 255.824 90.766 L 252.812 86.033 247.987 82.490 L 243.161 78.948 237.330 76.892 L 231.500 74.837 223.344 75.302 L 215.189 75.767 209.799 78.235 L 204.409 80.702 200.582 84.062 L 196.756 87.422 174.712 114.461 L 152.669 141.500 151.565 142.734 L 150.460 143.968 141.480 133.237 L 132.500 122.506 116.667 103.740 L 100.833 84.975 97.612 82.517 L 94.390 80.060 89.458 77.878 L 84.525 75.696 75.513 75.319 L 66.500 74.942 61.268 76.890 M 65.648 87.967 L 62.797 88.881 59.558 91.100 L 56.320 93.320 53.910 96.836 L 51.500 100.352 51.227 159.176 L 50.954 218 72.960 218 L 94.966 218 95.233 192.470 L 95.500 166.940 112.846 188.185 L 130.191 209.430 133.846 212.081 L 137.500 214.732 141.333 215.971 L 145.167 217.210 152.333 216.813 L 159.500 216.417 163.179 214.628 L 166.859 212.839 170.179 209.612 L 173.500 206.384 189 187.100 L 204.500 167.816 204.767 192.908 L 205.034 218 227.556 218 L 250.077 218 249.789 160.750 L 249.500 103.500 247.633 100 L 245.766 96.500 243.633 94.153 L 241.500 91.805 237.500 89.670 L 233.500 87.535 225.500 87.517 L 217.500 87.500 212.681 89.873 L 207.861 92.246 179.343 127.123 L 150.824 162 150.563 162 L 150.302 162 133.735 142.250 L 117.169 122.500 107.974 111.500 L 98.779 100.500 94.752 96.200 L 90.725 91.900 86.612 89.792 L 82.500 87.684 75.500 87.368 L 68.500 87.053 65.648 87.967 M 67.500 96.412 L 64.500 97.745 62.226 100.212 L 59.952 102.680 58.976 106.083 L 58 109.487 58 159.770 L 58 210.053 72.750 209.777 L 87.500 209.500 87.764 178.250 L 88.028 147 89.264 147.050 L 90.500 147.099 114 175.769 L 137.500 204.439 141.500 206.703 L 145.500 208.967 150.349 208.984 L 155.198 209 158.616 207.378 L 162.034 205.756 166.267 201.048 L 170.500 196.340 189.905 172.170 L 209.311 148 210.655 148 L 212 148 212 179 L 212 210 227 210 L 242 210 242 159.212 L 242 108.424 239.750 103.966 L 237.500 99.508 233.500 97.271 L 229.500 95.033 225.407 95.016 L 221.315 95 217.122 97.250 L 212.929 99.500 195.439 121 L 177.950 142.500 165.225 158.238 L 152.500 173.975 150.654 173.738 L 148.808 173.500 117.643 136.500 L 86.478 99.500 82.027 97.250 L 77.576 95 74.038 95.039 L 70.500 95.078 67.500 96.412 M 66.500 100.208 L 64.500 101.355 63.282 102.927 L 62.064 104.500 62.032 155.250 L 62 206 72.987 206 L 83.974 206 84.237 170.803 L 84.500 135.607 110.854 167.802 L 137.207 199.997 140.108 202.438 L 143.010 204.879 147.326 205.526 L 151.642 206.173 155.757 205.065 L 159.872 203.957 163.355 200.229 L 166.838 196.500 182.559 177 L 198.279 157.500 206.890 146.683 L 215.500 135.866 215.763 170.933 L 216.026 206 227.013 206 L 238 206 238 155.423 L 238 104.846 235.077 101.923 L 232.154 99 226.124 99 L 220.094 99 217.624 100.126 L 215.153 101.251 182.961 140.548 L 150.768 179.845 145.069 173.173 L 139.370 166.500 112.226 134.336 L 85.082 102.171 82.819 100.586 L 80.555 99 74.527 99.030 L 68.500 99.061 66.500 100.208" stroke="none" fill="#040404" fill-rule="evenodd"/></svg>