<?xml version="1.0" encoding="utf-8"?>
<svg width="300" height="300" viewBox="0 0 300 300" version="1.1" xmlns="http://www.w3.org/2000/svg">
  <defs/>
  <path d="M 32.395 57.015 L 25.448 59.568 L 21.644 62.241 L 17.84 64.912 L 12.837 70.375 L 7.836 75.836 L 4.997 81.893 L 2.158 87.949 L 1.78 172.784 L 1.403 257.62 L 47.895 257.62 L 94.386 257.62 L 94.756 238.984 L 95.123 220.348 L 104.277 231.746 L 113.432 243.147 L 120.214 247.726 L 126.997 252.307 L 132.612 254.239 L 138.227 256.174 L 145.983 257.038 L 153.74 257.904 L 161.617 256.299 L 169.496 254.693 L 175.709 251.595 L 181.924 248.498 L 187.772 242.905 L 193.619 237.312 L 199.818 229.658 L 206.017 222.004 L 206.017 239.811 L 206.017 257.62 L 219.63 257.724 L 233.242 257.828 L 265.781 258.05 L 298.318 258.275 L 298.677 176.387 L 299.035 94.5 L 296.908 87.949 L 294.78 81.398 L 290.78 75.195 L 286.78 68.995 L 280.371 64.353 L 273.963 59.712 L 266.218 57.018 L 258.476 54.326 L 247.644 54.935 L 236.814 55.544 L 229.655 58.777 L 222.498 62.009 L 217.415 66.412 L 212.333 70.815 L 183.057 106.241 L 153.782 141.668 L 152.316 143.284 L 150.849 144.901 L 138.922 130.841 L 126.997 116.782 L 105.969 92.194 L 84.941 67.608 L 80.663 64.387 L 76.384 61.169 L 69.834 58.31 L 63.283 55.451 L 51.314 54.957 L 39.344 54.463 L 32.395 57.015 M 38.212 71.529 L 34.427 72.726 L 30.125 75.633 L 25.825 78.542 L 22.624 83.148 L 19.423 87.756 L 19.061 164.827 L 18.698 241.898 L 47.923 241.898 L 77.149 241.898 L 77.504 208.448 L 77.858 174.999 L 100.895 202.834 L 123.93 230.669 L 128.784 234.142 L 133.638 237.615 L 138.728 239.238 L 143.819 240.863 L 153.336 240.343 L 162.855 239.823 L 167.74 237.48 L 172.628 235.136 L 177.037 230.908 L 181.448 226.678 L 202.033 201.412 L 222.618 176.146 L 222.973 209.022 L 223.327 241.898 L 253.238 241.898 L 283.147 241.898 L 282.765 166.888 L 282.381 91.879 L 279.902 87.294 L 277.422 82.708 L 274.59 79.634 L 271.756 76.557 L 266.444 73.76 L 261.132 70.963 L 250.507 70.938 L 239.883 70.916 L 233.483 74.026 L 227.081 77.134 L 189.208 122.83 L 151.332 168.526 L 150.986 168.526 L 150.639 168.526 L 128.637 142.649 L 106.636 116.773 L 94.424 102.362 L 82.212 87.949 L 76.865 82.316 L 71.517 76.682 L 66.054 73.919 L 60.593 71.157 L 51.297 70.744 L 42 70.331 L 38.212 71.529 M 40.672 82.593 L 36.688 84.339 L 33.669 87.572 L 30.648 90.805 L 29.352 95.264 L 28.056 99.724 L 28.056 165.605 L 28.056 231.486 L 47.645 231.123 L 67.234 230.761 L 67.584 189.817 L 67.935 148.873 L 69.577 148.939 L 71.218 149.003 L 102.427 186.566 L 133.638 224.13 L 138.95 227.096 L 144.262 230.063 L 150.702 230.085 L 157.141 230.106 L 161.681 227.98 L 166.221 225.856 L 171.842 219.687 L 177.464 213.519 L 203.234 181.851 L 229.008 150.183 L 230.793 150.183 L 232.579 150.183 L 232.579 190.8 L 232.579 231.416 L 252.5 231.416 L 272.421 231.416 L 272.421 164.873 L 272.421 98.331 L 269.433 92.49 L 266.444 86.649 L 261.132 83.719 L 255.82 80.787 L 250.384 80.765 L 244.949 80.743 L 239.381 83.691 L 233.812 86.639 L 210.584 114.808 L 187.358 142.977 L 170.458 163.597 L 153.559 184.216 L 151.107 183.906 L 148.655 183.593 L 107.266 135.117 L 65.877 86.639 L 59.965 83.691 L 54.054 80.743 L 49.355 80.795 L 44.656 80.846 L 40.672 82.593 M 39.344 87.567 L 36.688 89.07 L 35.071 91.129 L 33.453 93.19 L 33.41 159.682 L 33.368 226.175 L 47.96 226.175 L 62.551 226.175 L 62.9 180.06 L 63.249 133.946 L 98.25 176.128 L 133.248 218.31 L 137.101 221.508 L 140.955 224.706 L 146.686 225.554 L 152.419 226.401 L 157.884 224.951 L 163.349 223.498 L 167.975 218.614 L 172.601 213.728 L 193.479 188.179 L 214.356 162.631 L 225.792 148.458 L 237.226 134.285 L 237.576 180.23 L 237.925 226.175 L 252.517 226.175 L 267.109 226.175 L 267.109 159.909 L 267.109 93.643 L 263.226 89.814 L 259.345 85.983 L 251.336 85.983 L 243.328 85.983 L 240.047 87.459 L 236.766 88.933 L 194.013 140.42 L 151.258 191.907 L 143.689 183.165 L 136.121 174.422 L 100.071 132.281 L 64.022 90.138 L 61.017 88.061 L 58.01 85.983 L 50.005 86.023 L 42 86.063 L 39.344 87.567" stroke="none" fill="#040404" fill-rule="evenodd" style=""/>
</svg>