<?xml version="1.0" encoding="utf-8"?>
<svg version="1.0" width="300.000000pt" height="237.000000pt" viewBox="0 0 300.000000 237.000000" preserveAspectRatio="xMidYMid meet" xmlns="http://www.w3.org/2000/svg">
  <defs/>
  <g transform="matrix(0.110077, 0, 0, -0.110077, -11.009833, 251.032516)" fill="#000000" stroke="none" style="">
    <path d="M2490 2098 c-327 -18 -342 -20 -477 -51 -74 -18 -178 -65 -221 -102&#10;-17 -14 -35 -24 -39 -22 -9 6 -176 34 -248 42 -45 6 -103 -2 -269 -34 -46 -8&#10;-51 -7 -93 25 -25 19 -50 34 -56 34 -7 0 -30 10 -52 21 -96 52 -270 75 -611&#10;83 -223 4 -246 0 -286 -57 -31 -43 -36 -123 -10 -173 19 -39 56 -149 108 -319&#10;51 -172 148 -329 264 -426 29 -24 49 -48 46 -56 -10 -26 15 -226 35 -282 12&#10;-31 27 -73 35 -94 8 -21 22 -50 32 -65 10 -15 36 -54 58 -87 76 -116 165 -193&#10;317 -275 224 -121 503 -143 777 -62 83 25 221 92 214 104 -3 4 -1 7 4 6 6 -2&#10;34 15 63 37 203 152 315 374 336 665 l6 85 51 53 c55 57 145 180 146 198 0 5&#10;9 28 19 50 17 36 72 212 101 329 7 28 16 55 20 60 17 23 50 138 50 171 0 50&#10;-26 100 -64 123 -38 24 -98 28 -256 19z m183 -135 c3 -5 -8 -39 -24 -78 -16&#10;-38 -29 -80 -29 -93 0 -12 -4 -30 -9 -40 -15 -26 -39 -112 -46 -162 -4 -25&#10;-12 -56 -20 -70 -28 -55 -55 -118 -55 -129 0 -13 -52 -83 -105 -140 -38 -41&#10;-85 -56 -85 -27 0 7 -7 19 -15 26 -8 7 -15 19 -15 27 0 8 -14 45 -31 81 -58&#10;124 -70 171 -63 237 4 33 13 66 21 73 7 7 13 22 13 33 0 10 4 19 10 19 5 0 14&#10;9 20 20 8 16 8 20 -3 20 -8 0 -31 -24 -50 -52 -30 -44 -37 -65 -43 -125 -6&#10;-65 -3 -82 27 -174 18 -55 39 -103 46 -106 7 -3 13 -13 13 -23 0 -10 6 -23 14&#10;-29 22 -19 40 -152 32 -254 -7 -102 -25 -184 -56 -253 -11 -24 -25 -54 -30&#10;-66 -27 -61 -95 -147 -148 -188 -24 -19 -57 -46 -74 -61 -16 -16 -55 -38 -86&#10;-49 -31 -12 -59 -25 -62 -29 -9 -12 -99 -32 -223 -49 -109 -15 -126 -15 -225&#10;0 -202 32 -264 54 -377 137 -70 52 -181 164 -190 192 -4 10 -11 19 -16 19 -5&#10;0 -9 6 -9 14 0 8 -6 21 -13 28 -8 7 -16 25 -20 38 -3 14 -18 59 -33 100 -25&#10;69 -28 87 -27 220 0 135 2 150 27 215 75 189 79 205 74 295 -5 74 -9 91 -36&#10;131 -58 85 -94 96 -43 12 45 -73 54 -127 36 -214 -9 -40 -20 -79 -27 -86 -6&#10;-7 -12 -21 -13 -31 -1 -9 -14 -43 -28 -75 -15 -32 -27 -64 -27 -72 0 -38 -58&#10;-8 -133 69 -66 67 -170 306 -196 451 -5 28 -19 73 -31 100 -30 69 -40 104 -30&#10;110 9 6 406 -12 535 -24 79 -8 181 -34 195 -50 3 -3 23 -15 45 -26 22 -11 59&#10;-35 82 -52 48 -37 60 -39 118 -17 75 27 239 38 355 24 58 -7 110 -16 115 -20&#10;6 -4 26 -10 45 -12 28 -4 42 0 71 23 19 15 47 33 62 40 15 7 27 16 27 21 0 4&#10;8 8 18 8 9 0 31 9 49 19 17 11 46 22 65 25 18 3 47 8 63 12 49 8 274 25 350&#10;25 39 0 88 4 110 8 53 11 103 13 108 4z"/>
    <path d="M655 1780 c3 -5 8 -10 11 -10 2 0 4 5 4 10 0 6 -5 10 -11 10 -5 0 -7&#10;-4 -4 -10z"/>
  </g>
</svg>