<svg id="svg" xmlns="http://www.w3.org/2000/svg" xmlns:xlink="http://www.w3.org/1999/xlink" width="400" height="400" viewBox="0, 0, 400,400"><g id="svgg"><path id="path0" d="M157.333 2.949 C 74.514 9.600,28.023 49.123,28.012 112.889 C 28.001 171.818,68.378 216.946,144.183 242.729 C 161.735 248.699,165.526 247.045,155.531 237.778 C 149.770 232.436,148.367 220.813,152.450 212.251 C 155.049 206.801,155.072 205.866,152.663 203.457 C 146.228 197.022,154.869 183.021,163.570 185.782 C 169.893 187.789,173.550 211.593,169.932 227.184 C 169.037 231.041,169.320 233.933,170.763 235.671 C 171.966 237.122,172.637 238.489,172.253 238.710 C 171.870 238.930,169.956 239.997,168.000 241.079 C 160.008 245.504,162.847 248.147,183.478 255.489 C 194.521 259.418,204.894 263.203,206.529 263.899 C 208.447 264.714,210.815 263.852,213.196 261.471 C 217.571 257.095,218.667 256.879,218.667 260.389 C 218.667 261.979,219.709 262.600,221.333 261.976 C 223.022 261.328,224.000 262.001,224.000 263.810 C 224.000 265.381,224.924 266.667,226.053 266.667 C 227.203 266.667,226.661 268.264,224.820 270.299 C 221.608 273.848,221.622 273.954,225.471 274.960 C 228.647 275.791,229.002 276.480,227.304 278.525 C 226.147 279.920,225.037 283.222,224.838 285.864 C 224.639 288.505,223.908 293.993,223.214 298.059 C 221.877 305.893,225.019 309.099,231.570 306.586 C 234.681 305.392,237.237 308.390,235.502 311.197 C 234.715 312.471,233.552 312.399,231.832 310.972 C 229.164 308.758,229.141 312.722,231.756 324.000 C 232.379 326.689,233.344 331.047,233.900 333.685 C 234.714 337.547,235.266 337.980,236.734 335.907 C 238.217 333.814,238.371 333.914,237.558 336.442 C 237.008 338.152,237.281 341.352,238.166 343.554 C 239.051 345.755,239.825 346.556,239.887 345.333 C 240.091 341.313,245.385 343.016,247.155 347.671 C 249.394 353.561,249.365 353.778,246.327 353.778 C 242.758 353.778,240.854 357.442,243.556 359.111 C 246.257 360.781,244.353 364.444,240.784 364.444 C 239.375 364.444,238.222 365.644,238.222 367.111 C 238.222 370.903,236.181 370.376,231.419 365.354 C 228.896 362.695,227.823 360.117,228.668 358.750 C 231.987 353.379,227.024 332.182,219.993 321.699 C 218.324 319.211,216.055 314.584,214.952 311.418 C 213.275 306.609,212.319 305.873,209.139 306.945 C 207.046 307.652,200.876 308.158,195.427 308.071 C 182.763 307.868,178.812 312.161,184.537 319.905 C 187.831 324.359,191.960 341.853,192.855 355.142 C 193.071 358.336,193.766 361.470,194.401 362.105 C 196.134 363.838,195.790 371.201,193.921 372.356 C 193.022 372.911,190.886 371.966,189.175 370.254 C 186.941 368.020,185.856 367.765,185.328 369.349 C 184.227 372.652,181.342 372.008,181.274 368.444 C 181.215 365.329,175.548 357.333,173.398 357.333 C 168.755 357.333,160.538 348.884,160.998 344.582 C 161.311 341.651,160.494 339.443,158.862 338.817 C 157.321 338.226,156.777 336.900,157.559 335.635 C 159.218 332.950,158.595 322.127,156.571 318.512 C 155.615 316.804,156.256 313.724,158.338 310.017 L 161.604 304.202 151.544 301.277 C 124.876 293.525,104.889 275.739,104.889 259.760 C 104.889 250.447,106.007 250.667,58.581 250.667 C 14.914 250.667,9.719 251.347,13.849 256.522 C 14.807 257.722,14.929 260.232,14.127 262.222 C 12.139 267.156,12.102 278.689,14.070 279.906 C 14.965 280.459,16.055 279.906,16.494 278.678 C 16.932 277.449,17.792 276.903,18.405 277.463 C 19.017 278.023,18.126 280.023,16.426 281.907 C 11.234 287.660,13.507 329.610,19.043 330.189 C 21.613 330.458,22.672 329.813,22.101 328.326 C 20.861 325.093,29.422 317.535,32.839 318.846 C 36.807 320.369,38.319 325.396,35.370 327.263 C 33.532 328.427,34.042 328.880,37.333 329.010 C 46.866 329.386,49.854 330.185,53.261 333.268 C 56.765 336.439,57.182 340.164,54.510 344.444 C 52.656 347.416,49.778 347.272,49.778 344.207 C 49.778 338.867,23.724 338.619,17.884 343.904 C 12.993 348.331,12.279 381.096,17.034 382.921 C 21.088 384.477,104.382 384.201,102.047 382.639 C 99.496 380.934,99.521 369.471,102.074 370.318 C 103.133 370.669,104.133 373.558,104.296 376.737 C 104.665 383.958,105.171 384.443,110.848 383.018 C 114.830 382.019,116.079 379.793,120.124 366.487 C 122.695 358.030,125.089 350.807,125.445 350.436 C 125.800 350.065,129.682 353.456,134.071 357.971 C 167.246 392.107,225.396 405.474,278.362 391.139 C 304.225 384.140,310.714 380.945,309.712 375.703 C 309.012 372.044,309.357 371.352,311.298 372.521 C 313.407 373.792,313.413 373.566,311.338 371.008 C 309.251 368.435,309.284 368.000,311.565 368.000 C 314.749 368.000,318.681 372.282,317.022 373.941 C 313.601 377.362,322.294 374.366,329.349 369.692 C 348.553 356.972,365.093 334.093,369.921 313.573 C 374.514 294.047,370.937 252.310,363.945 243.852 C 362.867 242.548,361.880 240.060,361.753 238.324 C 360.369 219.541,297.713 167.635,277.430 168.469 C 272.775 168.660,272.022 168.360,274.571 167.330 C 277.802 166.024,277.749 165.857,273.775 164.818 C 271.413 164.200,268.336 164.660,266.862 165.852 C 264.788 167.529,264.489 167.530,265.495 165.853 C 266.356 164.418,265.143 164.562,261.836 166.287 C 257.365 168.620,256.827 168.577,256.242 165.835 C 255.885 164.167,256.441 162.520,257.475 162.175 C 263.087 160.304,254.979 156.077,234.109 149.992 C 185.201 135.733,168.393 122.155,177.054 103.903 C 183.855 89.572,209.127 87.371,246.853 97.826 C 275.844 105.860,295.111 123.561,295.111 142.163 L 295.111 147.556 340.467 147.556 L 385.824 147.556 385.356 85.890 L 384.889 24.225 378.667 22.538 L 372.444 20.851 377.625 19.390 C 380.475 18.586,383.475 18.342,384.292 18.847 C 385.109 19.352,385.778 18.873,385.778 17.783 C 385.778 15.606,289.784 15.576,286.264 17.752 C 285.218 18.398,282.014 25.569,279.143 33.687 C 272.758 51.743,273.225 51.291,268.635 43.865 C 252.359 17.529,202.773 -0.699,157.333 2.949 M209.556 20.667 C 216.418 22.039,216.836 24.816,210.222 25.095 C 206.937 25.234,206.404 25.578,208.597 26.144 C 211.182 26.811,211.593 27.970,210.571 31.715 C 209.862 34.316,209.338 37.766,209.406 39.381 C 209.475 40.995,207.986 42.721,206.099 43.214 C 203.557 43.879,202.667 43.194,202.667 40.574 C 202.667 38.515,201.738 37.362,200.444 37.814 C 199.222 38.241,198.457 39.908,198.745 41.518 C 199.032 43.127,198.432 44.444,197.411 44.444 C 196.391 44.444,195.556 42.892,195.556 40.994 C 195.556 39.096,194.839 37.101,193.964 36.560 C 191.991 35.340,189.812 40.565,191.295 42.964 C 191.956 44.034,190.262 44.384,186.948 43.862 C 183.719 43.353,181.236 43.838,180.825 45.058 C 180.314 46.575,179.435 46.534,177.459 44.904 C 175.988 43.691,174.317 43.165,173.746 43.735 C 171.033 46.448,147.406 45.707,146.036 42.866 C 144.821 40.347,144.646 36.408,145.692 35.111 C 145.889 34.867,146.329 33.193,146.669 31.393 C 147.610 26.419,149.136 25.718,151.621 29.115 C 153.028 31.040,155.020 31.753,156.936 31.018 C 160.916 29.490,160.886 26.674,156.889 26.639 C 155.178 26.624,152.578 25.826,151.111 24.864 C 149.243 23.639,150.307 23.471,154.667 24.302 C 158.089 24.954,161.863 26.753,163.055 28.300 C 164.246 29.846,165.246 30.358,165.277 29.438 C 165.308 28.518,166.354 29.161,167.602 30.868 C 170.119 34.310,176.000 33.187,176.000 29.264 C 176.000 26.988,183.697 26.659,185.880 28.843 C 187.721 30.684,199.269 26.088,198.412 23.855 C 196.785 19.613,199.872 18.730,209.556 20.667 M225.948 28.566 C 233.657 34.055,232.378 42.667,223.855 42.667 C 222.957 42.667,222.222 41.344,222.222 39.728 C 222.222 37.312,221.631 37.470,218.903 40.617 C 214.563 45.620,213.983 45.471,212.693 39.021 C 211.864 34.876,212.545 32.597,215.582 29.352 C 220.487 24.111,219.769 24.166,225.948 28.566 M238.834 27.240 C 239.428 26.646,241.133 27.172,242.624 28.409 C 244.819 30.231,245.333 30.211,245.333 28.307 C 245.333 26.478,245.807 26.430,247.467 28.089 C 248.640 29.262,251.040 30.222,252.800 30.222 C 254.560 30.222,256.000 31.108,256.000 32.190 C 256.000 33.273,254.776 33.688,253.279 33.114 C 251.515 32.437,249.872 33.576,248.607 36.354 C 245.707 42.719,236.193 42.291,236.864 35.827 C 237.195 32.643,236.154 30.706,233.344 29.273 C 231.150 28.154,229.855 26.738,230.467 26.126 C 231.078 25.514,232.968 25.758,234.667 26.667 C 236.365 27.576,238.241 27.833,238.834 27.240 M136.889 30.278 C 136.889 32.264,138.028 34.326,139.420 34.860 C 145.140 37.055,140.250 47.091,133.079 47.875 C 130.386 48.169,130.007 42.003,132.371 36.345 C 133.879 32.738,134.193 30.222,133.138 30.222 C 132.152 30.222,131.840 29.422,132.444 28.444 C 134.314 25.420,136.889 26.482,136.889 30.278 M89.788 92.460 C 91.254 94.833,89.128 101.333,86.886 101.333 C 85.917 101.333,85.673 100.444,86.345 99.357 C 87.017 98.270,86.562 96.759,85.333 96.000 C 84.105 95.241,83.650 93.730,84.322 92.643 C 85.843 90.181,88.328 90.098,89.788 92.460 M341.333 97.778 C 341.333 98.756,339.533 99.543,337.333 99.528 C 334.099 99.506,333.844 99.171,336.000 97.778 C 339.447 95.550,341.333 95.550,341.333 97.778 M310.146 106.544 C 310.709 107.454,310.235 108.776,309.093 109.482 C 307.624 110.390,307.937 111.438,310.163 113.066 C 313.055 115.180,312.968 115.348,309.099 115.146 C 306.784 115.025,303.936 114.210,302.772 113.333 C 300.380 111.532,301.724 106.149,304.186 107.671 C 305.062 108.212,305.778 107.807,305.778 106.772 C 305.778 104.448,308.755 104.292,310.146 106.544 M351.303 108.000 C 354.121 111.713,354.476 115.556,352.000 115.556 C 351.022 115.556,350.222 114.330,350.222 112.833 C 350.222 111.336,349.027 109.652,347.566 109.091 C 346.105 108.531,345.352 107.356,345.893 106.480 C 347.337 104.144,348.657 104.515,351.303 108.000 M377.702 128.123 C 377.139 129.033,374.926 129.752,372.784 129.721 C 369.017 129.667,369.000 129.581,372.262 127.112 C 375.737 124.481,379.518 125.184,377.702 128.123 M192.255 147.361 C 188.931 149.467,192.086 151.156,199.892 151.449 C 205.299 151.653,205.872 152.067,203.979 154.406 C 202.173 156.639,202.231 156.854,204.302 155.605 C 206.220 154.449,206.540 154.829,205.635 157.187 C 204.980 158.894,204.444 161.511,204.444 163.002 C 204.444 164.628,203.422 165.322,201.893 164.735 C 200.489 164.196,198.980 164.710,198.540 165.878 C 198.099 167.045,196.898 166.000,195.871 163.556 C 194.844 161.111,193.952 160.111,193.890 161.333 C 193.728 164.531,190.222 164.083,190.222 160.865 C 190.222 159.385,189.296 156.691,188.164 154.878 C 185.554 150.699,187.367 145.769,191.500 145.805 C 193.955 145.826,194.124 146.176,192.255 147.361 M191.983 231.979 C 193.760 234.121,193.634 234.833,191.322 235.721 C 189.750 236.324,188.907 237.533,189.448 238.409 C 189.989 239.284,189.585 240.000,188.549 240.000 C 185.873 240.000,186.202 234.696,188.889 234.526 C 190.667 234.414,190.667 234.207,188.889 233.489 C 186.361 232.469,185.862 229.333,188.227 229.333 C 189.085 229.333,190.775 230.524,191.983 231.979 M271.505 241.200 C 270.854 244.606,271.636 246.797,274.261 248.923 C 278.437 252.304,277.413 258.379,272.956 256.669 C 269.935 255.509,269.158 258.688,272.029 260.462 C 276.580 263.275,271.187 264.444,265.710 261.832 C 259.622 258.929,257.665 255.149,261.576 253.845 C 263.019 253.364,262.910 252.075,261.195 249.328 C 259.063 245.914,259.270 244.978,263.040 240.964 C 268.765 234.871,272.694 234.980,271.505 241.200 M194.591 241.901 C 194.028 242.811,194.415 243.556,195.451 243.556 C 196.486 243.556,197.333 245.316,197.333 247.467 C 197.333 252.580,194.439 249.658,192.755 242.846 C 191.838 239.135,192.060 238.050,193.548 238.969 C 194.684 239.671,195.153 240.990,194.591 241.901 M127.291 322.369 C 127.389 324.977,126.887 327.111,126.175 327.111 C 123.534 327.111,120.865 322.132,121.966 319.261 C 123.644 314.888,127.083 316.896,127.291 322.369 M353.778 324.662 C 353.778 327.942,352.819 328.889,349.500 328.889 C 345.196 328.889,344.950 327.438,347.735 318.466 C 348.929 314.617,353.778 319.588,353.778 324.662 M53.333 350.966 C 53.333 351.375,53.819 352.975,54.412 354.521 C 55.121 356.367,54.509 357.333,52.635 357.333 C 51.063 357.333,49.778 358.133,49.778 359.111 C 49.778 360.089,48.578 360.889,47.111 360.889 C 44.320 360.889,43.695 357.799,45.524 353.034 C 46.443 350.638,53.333 348.813,53.333 350.966 M66.135 368.082 C 84.876 371.782,85.268 371.969,77.333 373.427 C 73.422 374.146,69.956 374.019,69.630 373.145 C 69.304 372.271,67.051 371.556,64.624 371.556 C 62.197 371.556,58.721 370.758,56.901 369.784 C 52.514 367.436,48.000 369.333,48.000 373.524 C 48.000 375.952,46.729 376.889,43.432 376.889 C 35.850 376.889,38.206 369.206,46.222 367.790 C 55.801 366.097,56.103 366.102,66.135 368.082 M94.222 373.333 C 94.222 377.539,93.096 377.794,89.667 374.365 C 87.730 372.428,87.656 371.634,89.349 370.950 C 93.369 369.326,94.222 369.743,94.222 373.333 " stroke="none" fill="#000000" fill-rule="evenodd"></path></g></svg>