<svg xmlns="http://www.w3.org/2000/svg" width="400" height="400" viewBox="0 0 400 400" version="1.1"><path d="M -0 200.002 L -0 400.005 200.250 399.752 L 400.500 399.500 400.752 199.750 L 401.005 0 200.502 0 L 0 0 -0 200.002 M 0.490 200.500 C 0.490 310.500, 0.607 355.352, 0.750 300.170 C 0.893 244.989, 0.893 154.989, 0.750 100.170 C 0.607 45.352, 0.490 90.500, 0.490 200.500 M 301.231 63.662 C 288.997 66.560, 276.526 77.657, 272.019 89.656 C 264.006 110.986, 273.109 134.036, 293.512 144.080 C 300.201 147.373, 300.885 147.500, 311.979 147.500 C 322.872 147.500, 323.869 147.325, 330.274 144.291 C 352.527 133.750, 361.310 107.846, 350.273 85.305 C 346.998 78.617, 337.708 69.671, 330.708 66.467 C 320.820 61.940, 312.031 61.103, 301.231 63.662 M 253.263 148.039 C 242.857 149.340, 228.233 154.498, 219.215 160.047 C 205.357 168.575, 182.457 190.412, 172.341 204.744 C 159.477 222.969, 148.995 233.830, 139.889 238.368 C 133.099 241.751, 123.891 242.005, 117.947 238.973 C 102.525 231.105, 102.267 206.258, 117.289 175.721 C 119.664 170.892, 121.396 166.729, 121.137 166.471 C 120.878 166.212, 106.172 166, 88.456 166 L 56.245 166 53.130 174.750 C 37.123 219.710, 43.477 261.499, 70.129 286.548 C 84.842 300.375, 101.949 307.392, 124.064 308.673 C 141.248 309.668, 155.654 306.709, 171 299.035 C 186.872 291.097, 205.093 274.032, 227.349 246.257 C 245.707 223.347, 251.425 218.566, 261.958 217.319 C 272.599 216.058, 282.318 221.083, 287.322 230.432 C 289.196 233.931, 289.491 236.038, 289.437 245.500 C 289.380 255.491, 289.031 257.509, 285.632 267.500 C 283.573 273.550, 279.664 282.727, 276.945 287.894 C 274.225 293.060, 272 297.448, 272 297.644 C 272 297.840, 287.239 298, 305.863 298 L 339.727 298 342.273 292.250 C 355.276 262.880, 356.391 227.450, 345.165 200.364 C 334.979 175.788, 312.912 156.445, 287.776 150.058 C 278.483 147.696, 263.168 146.801, 253.263 148.039" stroke="none" fill="#0f1e35" fill-rule="evenodd"/></svg>